<?xml version="1.0" encoding="UTF-8" standalone="no"?><svg xmlns="http://www.w3.org/2000/svg" xmlns:xlink="http://www.w3.org/1999/xlink" clip-rule="evenodd" stroke-miterlimit="10" viewBox="0 0 720 540"><desc>SVG generated by Keynote</desc><defs></defs><g transform="matrix(1.00, 0.00, -0.00, -1.00, 0.0, 540.0)"><g><clipPath id="clip0x6000026a5c40"><path d="M 0.0 540.0 L 720.0 540.0 L 720.0 0.0 L 0.0 0.0 Z M 0.0 540.0 "></path></clipPath><g clip-path="url(#clip0x6000026a5c40)"><image xlink:href="../../6C8CA873-4094-4AAB-84FA-98B434A53252/assets/FB9F438063C152C41BBF80E1AC3A0F64.jpeg" width="1500.00" height="1125.00" transform="matrix(0.48, 0.00, -0.00, -0.48, 0.0, 540.0)"></image></g></g><image xlink:href="../../6C8CA873-4094-4AAB-84FA-98B434A53252/assets/4269B1647B48C2333CA1F43A723777F3.png" width="256.00" height="311.00" transform="matrix(0.19, 0.00, -0.00, -0.19, 666.0, 540.0)"></image><image xlink:href="1A04C71409F8374A038924F7D07A9CAB.png" width="773.00" height="405.00" transform="matrix(0.84, 0.00, -0.00, -0.87, 36.0, 435.9)"></image><image xlink:href="56CA6F4D2EB6D434CA3B79F5B8BFB927.png" width="303.00" height="289.00" transform="matrix(1.00, 0.00, -0.00, -1.00, 381.7, 366.0)" opacity="0.35"></image><path d="M 385.5 364.5 L 681.5 364.5 L 681.5 81.5 L 385.5 81.5 Z M 385.1 364.5 " fill="#FFFFFF"></path><path d="M 0.4 -0.0 L 296.4 -0.0 L 296.4 283.0 L 0.4 283.0 Z M 0.0 0.0 " fill="none" stroke="#FFFFFF" stroke-width="0.75" stroke-linejoin="bevel" transform="matrix(1.00, 0.00, 0.00, -1.00, 385.1, 364.5)"></path><image xlink:href="7E696C9A2CF9B35A4AEBF5AAEE5F956B.png" width="35.00" height="15.00" transform="matrix(1.00, 0.00, -0.00, -1.00, 232.0, 349.0)"></image><text xml:space="preserve" font-family="Arial-BoldMT,Arial" font-weight="bold" font-size="11.0" fill="#00B0F0" transform="matrix(1.00, 0.00, -0.00, -1.00, 232.4, 339.6)">R</text><text xml:space="preserve" font-family="Arial-BoldMT,Arial" font-weight="bold" font-size="11.0" fill="#00B0F0" transform="matrix(1.00, 0.00, -0.00, -1.00, 240.3, 339.6)">e</text><text xml:space="preserve" font-family="Arial-BoldMT,Arial" font-weight="bold" font-size="11.0" fill="#00B0F0" transform="matrix(1.00, 0.00, -0.00, -1.00, 246.5, 339.6)">t</text><text xml:space="preserve" font-family="Arial-BoldMT,Arial" font-weight="bold" font-size="11.0" fill="#00B0F0" transform="matrix(1.00, 0.00, -0.00, -1.00, 250.1, 339.6)">a</text><text xml:space="preserve" font-family="Arial-BoldMT,Arial" font-weight="bold" font-size="11.0" fill="#00B0F0" transform="matrix(1.00, 0.00, -0.00, -1.00, 256.2, 339.6)">i</text><text xml:space="preserve" font-family="Arial-BoldMT,Arial" font-weight="bold" font-size="11.0" fill="#00B0F0" transform="matrix(1.00, 0.00, -0.00, -1.00, 259.3, 339.6)">l</text><text xml:space="preserve" font-family="Arial-BoldMT,Arial" font-weight="bold" font-size="11.0" fill="#00B0F0" transform="matrix(1.00, 0.00, -0.00, -1.00, 262.3, 339.6)"> </text><text xml:space="preserve" font-family="ArialMT,Arial" font-size="24.0" fill="#000000" transform="matrix(1.00, 0.00, -0.00, -1.00, 265.4, 339.6)"> </text><image xlink:href="DC9CDCA70F792B22DBE1EA4C890049A2.png" width="47.00" height="15.00" transform="matrix(1.00, 0.00, -0.00, -1.00, 232.0, 337.0)"></image><text xml:space="preserve" font-family="Arial-BoldMT,Arial" font-weight="bold" font-size="11.0" fill="#00B0F0" transform="matrix(1.00, 0.00, -0.00, -1.00, 232.4, 327.6)">M</text><text xml:space="preserve" font-family="Arial-BoldMT,Arial" font-weight="bold" font-size="11.0" fill="#00B0F0" transform="matrix(1.00, 0.00, -0.00, -1.00, 241.6, 327.6)">a</text><text xml:space="preserve" font-family="Arial-BoldMT,Arial" font-weight="bold" font-size="11.0" fill="#00B0F0" transform="matrix(1.00, 0.00, -0.00, -1.00, 247.7, 327.6)">r</text><text xml:space="preserve" font-family="Arial-BoldMT,Arial" font-weight="bold" font-size="11.0" fill="#00B0F0" transform="matrix(1.00, 0.00, -0.00, -1.00, 252.0, 327.6)">k</text><text xml:space="preserve" font-family="Arial-BoldMT,Arial" font-weight="bold" font-size="11.0" fill="#00B0F0" transform="matrix(1.00, 0.00, -0.00, -1.00, 258.1, 327.6)">e</text><text xml:space="preserve" font-family="Arial-BoldMT,Arial" font-weight="bold" font-size="11.0" fill="#00B0F0" transform="matrix(1.00, 0.00, -0.00, -1.00, 264.2, 327.6)">t</text><text xml:space="preserve" font-family="Arial-BoldMT,Arial" font-weight="bold" font-size="11.0" fill="#00B0F0" transform="matrix(1.00, 0.00, -0.00, -1.00, 267.9, 327.6)">s</text><image xlink:href="71DD01852078A96AF469F671863D6DE1.png" width="90.00" height="20.00" transform="matrix(1.00, 0.00, -0.00, -1.00, 60.0, 373.0)"></image><text xml:space="preserve" font-family="Arial-BoldMT,Arial" font-weight="bold" font-size="17.0" fill="#00B0F0" transform="matrix(1.00, 0.00, -0.00, -1.00, 61.3, 359.0)">W</text><text xml:space="preserve" font-family="Arial-BoldMT,Arial" font-weight="bold" font-size="17.0" fill="#00B0F0" transform="matrix(1.00, 0.00, -0.00, -1.00, 77.3, 359.0)">h</text><text xml:space="preserve" font-family="Arial-BoldMT,Arial" font-weight="bold" font-size="17.0" fill="#00B0F0" transform="matrix(1.00, 0.00, -0.00, -1.00, 87.7, 359.0)">o</text><text xml:space="preserve" font-family="Arial-BoldMT,Arial" font-weight="bold" font-size="17.0" fill="#00B0F0" transform="matrix(1.00, 0.00, -0.00, -1.00, 98.1, 359.0)">l</text><text xml:space="preserve" font-family="Arial-BoldMT,Arial" font-weight="bold" font-size="17.0" fill="#00B0F0" transform="matrix(1.00, 0.00, -0.00, -1.00, 102.8, 359.0)">e</text><text xml:space="preserve" font-family="Arial-BoldMT,Arial" font-weight="bold" font-size="17.0" fill="#00B0F0" transform="matrix(1.00, 0.00, -0.00, -1.00, 112.2, 359.0)">s</text><text xml:space="preserve" font-family="Arial-BoldMT,Arial" font-weight="bold" font-size="17.0" fill="#00B0F0" transform="matrix(1.00, 0.00, -0.00, -1.00, 121.7, 359.0)">a</text><text xml:space="preserve" font-family="Arial-BoldMT,Arial" font-weight="bold" font-size="17.0" fill="#00B0F0" transform="matrix(1.00, 0.00, -0.00, -1.00, 131.1, 359.0)">l</text><text xml:space="preserve" font-family="Arial-BoldMT,Arial" font-weight="bold" font-size="17.0" fill="#00B0F0" transform="matrix(1.00, 0.00, -0.00, -1.00, 135.9, 359.0)">e</text><g><clipPath id="clip0x6000026aa560"><path d="M 384.0 373.0 L 686.0 373.0 L 686.0 81.0 L 384.0 81.0 Z M 383.8 373.2 "></path></clipPath><g clip-path="url(#clip0x6000026aa560)"><image xlink:href="4792D19F00F94093062881D4624CABB9.png" width="1057.00" height="829.00" transform="matrix(0.41, 0.00, -0.00, -0.40, 262.3, 407.4)"></image></g></g><image xlink:href="F20C39E817509DC950E6B0665B6C52F9.png" width="392.00" height="392.00" transform="matrix(1.00, 0.00, -0.00, -1.00, 312.4, 421.2)" opacity="0.35"></image><path d="M 325.8 55.9 C 400.3 130.4 400.3 251.2 325.8 325.8 C 251.2 400.3 130.4 400.3 55.9 325.8 C -18.6 251.2 -18.6 130.4 55.9 55.9 C 130.4 -18.6 251.2 -18.6 325.8 55.9 Z M 325.8 55.9 " fill="none" stroke="#00B050" stroke-width="4.00" stroke-linejoin="bevel" transform="matrix(1.00, 0.00, 0.00, -1.00, 317.5, 417.8)"></path><path d="M 308.0 385.0 L 419.0 385.0 L 419.0 333.0 L 308.0 333.0 Z M 308.4 385.1 " fill="#8DB3E2"></path><g><clipPath id="clip0x6000026a5fa0"><path d="M 306.4 329.9 L 420.5 329.9 L 420.5 387.1 L 306.4 387.1 Z M 306.4 329.9 "></path></clipPath><g clip-path="url(#clip0x6000026a5fa0)"><text xml:space="preserve" font-family="Arial-BoldMT,Arial" font-weight="bold" font-size="20.0" fill="#000000" transform="matrix(1.00, 0.00, -0.00, -1.00, 316.8, 363.4)">C</text><text xml:space="preserve" font-family="Arial-BoldMT,Arial" font-weight="bold" font-size="20.0" fill="#000000" transform="matrix(1.00, 0.00, -0.00, -1.00, 331.2, 363.4)">u</text><text xml:space="preserve" font-family="Arial-BoldMT,Arial" font-weight="bold" font-size="20.0" fill="#000000" transform="matrix(1.00, 0.00, -0.00, -1.00, 343.4, 363.4)">s</text><text xml:space="preserve" font-family="Arial-BoldMT,Arial" font-weight="bold" font-size="20.0" fill="#000000" transform="matrix(1.00, 0.00, -0.00, -1.00, 354.5, 363.4)">t</text><text xml:space="preserve" font-family="Arial-BoldMT,Arial" font-weight="bold" font-size="20.0" fill="#000000" transform="matrix(1.00, 0.00, -0.00, -1.00, 361.2, 363.4)">o</text><text xml:space="preserve" font-family="Arial-BoldMT,Arial" font-weight="bold" font-size="20.0" fill="#000000" transform="matrix(1.00, 0.00, -0.00, -1.00, 373.4, 363.4)">m</text><text xml:space="preserve" font-family="Arial-BoldMT,Arial" font-weight="bold" font-size="20.0" fill="#000000" transform="matrix(1.00, 0.00, -0.00, -1.00, 391.2, 363.4)">e</text><text xml:space="preserve" font-family="Arial-BoldMT,Arial" font-weight="bold" font-size="20.0" fill="#000000" transform="matrix(1.00, 0.00, -0.00, -1.00, 402.3, 363.4)">r</text><text xml:space="preserve" font-family="Arial-BoldMT,Arial" font-weight="bold" font-size="20.0" fill="#000000" transform="matrix(1.00, 0.00, -0.00, -1.00, 410.1, 363.4)"> </text><text xml:space="preserve" font-family="Arial-BoldMT,Arial" font-weight="bold" font-size="20.0" fill="#000000" transform="matrix(1.00, 0.00, -0.00, -1.00, 326.8, 340.4)">D</text><text xml:space="preserve" font-family="Arial-BoldMT,Arial" font-weight="bold" font-size="20.0" fill="#000000" transform="matrix(1.00, 0.00, -0.00, -1.00, 341.2, 340.4)">o</text><text xml:space="preserve" font-family="Arial-BoldMT,Arial" font-weight="bold" font-size="20.0" fill="#000000" transform="matrix(1.00, 0.00, -0.00, -1.00, 353.4, 340.4)">m</text><text xml:space="preserve" font-family="Arial-BoldMT,Arial" font-weight="bold" font-size="20.0" fill="#000000" transform="matrix(1.00, 0.00, -0.00, -1.00, 371.2, 340.4)">a</text><text xml:space="preserve" font-family="Arial-BoldMT,Arial" font-weight="bold" font-size="20.0" fill="#000000" transform="matrix(1.00, 0.00, -0.00, -1.00, 382.3, 340.4)">i</text><text xml:space="preserve" font-family="Arial-BoldMT,Arial" font-weight="bold" font-size="20.0" fill="#000000" transform="matrix(1.00, 0.00, -0.00, -1.00, 387.9, 340.4)">n</text><text xml:space="preserve" font-family="Arial-BoldMT,Arial" font-weight="bold" font-size="20.0" fill="#000000" transform="matrix(1.00, 0.00, -0.00, -1.00, 400.1, 340.4)"> </text></g></g><text xml:space="preserve" font-family="Arial-BoldMT,Arial" font-weight="bold" font-size="36.0" fill="#0B5D73" transform="matrix(1.00, 0.00, -0.00, -1.00, 66.6, 470.2)">C</text><text xml:space="preserve" font-family="Arial-BoldMT,Arial" font-weight="bold" font-size="36.0" fill="#0B5D73" transform="matrix(1.00, 0.00, -0.00, -1.00, 92.6, 470.2)">u</text><text xml:space="preserve" font-family="Arial-BoldMT,Arial" font-weight="bold" font-size="36.0" fill="#0B5D73" transform="matrix(1.00, 0.00, -0.00, -1.00, 114.6, 470.2)">s</text><text xml:space="preserve" font-family="Arial-BoldMT,Arial" font-weight="bold" font-size="36.0" fill="#0B5D73" transform="matrix(1.00, 0.00, -0.00, -1.00, 134.6, 470.2)">t</text><text xml:space="preserve" font-family="Arial-BoldMT,Arial" font-weight="bold" font-size="36.0" fill="#0B5D73" transform="matrix(1.00, 0.00, -0.00, -1.00, 146.6, 470.2)">o</text><text xml:space="preserve" font-family="Arial-BoldMT,Arial" font-weight="bold" font-size="36.0" fill="#0B5D73" transform="matrix(1.00, 0.00, -0.00, -1.00, 168.6, 470.2)">m</text><text xml:space="preserve" font-family="Arial-BoldMT,Arial" font-weight="bold" font-size="36.0" fill="#0B5D73" transform="matrix(1.00, 0.00, -0.00, -1.00, 200.6, 470.2)">e</text><text xml:space="preserve" font-family="Arial-BoldMT,Arial" font-weight="bold" font-size="36.0" fill="#0B5D73" transform="matrix(1.00, 0.00, -0.00, -1.00, 220.6, 470.2)">r</text><text xml:space="preserve" font-family="Arial-BoldMT,Arial" font-weight="bold" font-size="36.0" fill="#0B5D73" transform="matrix(1.00, 0.00, -0.00, -1.00, 234.6, 470.2)"> </text><text xml:space="preserve" font-family="Arial-BoldMT,Arial" font-weight="bold" font-size="36.0" fill="#0B5D73" transform="matrix(1.00, 0.00, -0.00, -1.00, 244.6, 470.2)">D</text><text xml:space="preserve" font-family="Arial-BoldMT,Arial" font-weight="bold" font-size="36.0" fill="#0B5D73" transform="matrix(1.00, 0.00, -0.00, -1.00, 270.6, 470.2)">o</text><text xml:space="preserve" font-family="Arial-BoldMT,Arial" font-weight="bold" font-size="36.0" fill="#0B5D73" transform="matrix(1.00, 0.00, -0.00, -1.00, 292.6, 470.2)">m</text><text xml:space="preserve" font-family="Arial-BoldMT,Arial" font-weight="bold" font-size="36.0" fill="#0B5D73" transform="matrix(1.00, 0.00, -0.00, -1.00, 324.6, 470.2)">a</text><text xml:space="preserve" font-family="Arial-BoldMT,Arial" font-weight="bold" font-size="36.0" fill="#0B5D73" transform="matrix(1.00, 0.00, -0.00, -1.00, 344.6, 470.2)">i</text><text xml:space="preserve" font-family="Arial-BoldMT,Arial" font-weight="bold" font-size="36.0" fill="#0B5D73" transform="matrix(1.00, 0.00, -0.00, -1.00, 354.6, 470.2)">n</text></g></svg>