<?xml version="1.0" encoding="UTF-8" standalone="no"?><svg xmlns="http://www.w3.org/2000/svg" xmlns:xlink="http://www.w3.org/1999/xlink" clip-rule="evenodd" stroke-miterlimit="10" viewBox="0 0 720 540"><desc>SVG generated by Keynote</desc><defs></defs><g transform="matrix(1.00, 0.00, -0.00, -1.00, 0.0, 540.0)"><g><clipPath id="clip0x6100022ab220"><path d="M 0.0 540.0 L 720.0 540.0 L 720.0 0.0 L 0.0 0.0 Z M 0.0 540.0 "></path></clipPath><g clip-path="url(#clip0x6100022ab220)"><image xlink:href="../../6C8CA873-4094-4AAB-84FA-98B434A53252/assets/FB9F438063C152C41BBF80E1AC3A0F64.jpeg" width="1500.00" height="1125.00" transform="matrix(0.48, 0.00, -0.00, -0.48, 0.0, 540.0)"></image></g></g><image xlink:href="../../6C8CA873-4094-4AAB-84FA-98B434A53252/assets/4269B1647B48C2333CA1F43A723777F3.png" width="256.00" height="311.00" transform="matrix(0.19, 0.00, -0.00, -0.19, 666.0, 540.0)"></image><text xml:space="preserve" font-family="Arial-BoldMT,Arial" font-weight="bold" font-size="32.0" fill="#0B5D73" transform="matrix(1.00, 0.00, -0.00, -1.00, 3.6, 502.2)">G</text><text xml:space="preserve" font-family="Arial-BoldMT,Arial" font-weight="bold" font-size="32.0" fill="#0B5D73" transform="matrix(1.00, 0.00, -0.00, -1.00, 28.5, 502.2)">r</text><text xml:space="preserve" font-family="Arial-BoldMT,Arial" font-weight="bold" font-size="32.0" fill="#0B5D73" transform="matrix(1.00, 0.00, -0.00, -1.00, 40.9, 502.2)">e</text><text xml:space="preserve" font-family="Arial-BoldMT,Arial" font-weight="bold" font-size="32.0" fill="#0B5D73" transform="matrix(1.00, 0.00, -0.00, -1.00, 58.7, 502.2)">e</text><text xml:space="preserve" font-family="Arial-BoldMT,Arial" font-weight="bold" font-size="32.0" fill="#0B5D73" transform="matrix(1.00, 0.00, -0.00, -1.00, 76.6, 502.2)">n</text><text xml:space="preserve" font-family="Arial-BoldMT,Arial" font-weight="bold" font-size="32.0" fill="#0B5D73" transform="matrix(1.00, 0.00, -0.00, -1.00, 96.1, 502.2)"> </text><text xml:space="preserve" font-family="Arial-BoldMT,Arial" font-weight="bold" font-size="32.0" fill="#0B5D73" transform="matrix(1.00, 0.00, -0.00, -1.00, 105.0, 502.2)">B</text><text xml:space="preserve" font-family="Arial-BoldMT,Arial" font-weight="bold" font-size="32.0" fill="#0B5D73" transform="matrix(1.00, 0.00, -0.00, -1.00, 128.1, 502.2)">u</text><text xml:space="preserve" font-family="Arial-BoldMT,Arial" font-weight="bold" font-size="32.0" fill="#0B5D73" transform="matrix(1.00, 0.00, -0.00, -1.00, 147.6, 502.2)">t</text><text xml:space="preserve" font-family="Arial-BoldMT,Arial" font-weight="bold" font-size="32.0" fill="#0B5D73" transform="matrix(1.00, 0.00, -0.00, -1.00, 158.3, 502.2)">t</text><text xml:space="preserve" font-family="Arial-BoldMT,Arial" font-weight="bold" font-size="32.0" fill="#0B5D73" transform="matrix(1.00, 0.00, -0.00, -1.00, 168.9, 502.2)">o</text><text xml:space="preserve" font-family="Arial-BoldMT,Arial" font-weight="bold" font-size="32.0" fill="#0B5D73" transform="matrix(1.00, 0.00, -0.00, -1.00, 188.5, 502.2)">n</text><text xml:space="preserve" font-family="Arial-BoldMT,Arial" font-weight="bold" font-size="32.0" fill="#0B5D73" transform="matrix(1.00, 0.00, -0.00, -1.00, 208.0, 502.2)"> </text><text xml:space="preserve" font-family="Arial-BoldMT,Arial" font-weight="bold" font-size="32.0" fill="#0B5D73" transform="matrix(1.00, 0.00, -0.00, -1.00, 216.9, 502.2)">C</text><text xml:space="preserve" font-family="Arial-BoldMT,Arial" font-weight="bold" font-size="32.0" fill="#0B5D73" transform="matrix(1.00, 0.00, -0.00, -1.00, 240.0, 502.2)">o</text><text xml:space="preserve" font-family="Arial-BoldMT,Arial" font-weight="bold" font-size="32.0" fill="#0B5D73" transform="matrix(1.00, 0.00, -0.00, -1.00, 259.6, 502.2)">n</text><text xml:space="preserve" font-family="Arial-BoldMT,Arial" font-weight="bold" font-size="32.0" fill="#0B5D73" transform="matrix(1.00, 0.00, -0.00, -1.00, 279.1, 502.2)">n</text><text xml:space="preserve" font-family="Arial-BoldMT,Arial" font-weight="bold" font-size="32.0" fill="#0B5D73" transform="matrix(1.00, 0.00, -0.00, -1.00, 298.6, 502.2)">e</text><text xml:space="preserve" font-family="Arial-BoldMT,Arial" font-weight="bold" font-size="32.0" fill="#0B5D73" transform="matrix(1.00, 0.00, -0.00, -1.00, 316.4, 502.2)">c</text><text xml:space="preserve" font-family="Arial-BoldMT,Arial" font-weight="bold" font-size="32.0" fill="#0B5D73" transform="matrix(1.00, 0.00, -0.00, -1.00, 334.3, 502.2)">t</text><text xml:space="preserve" font-family="Arial-BoldMT,Arial" font-weight="bold" font-size="32.0" fill="#0B5D73" transform="matrix(1.00, 0.00, -0.00, -1.00, 344.9, 502.2)"> </text><text xml:space="preserve" font-family="Arial-BoldMT,Arial" font-weight="bold" font-size="32.0" fill="#0B5D73" transform="matrix(1.00, 0.00, -0.00, -1.00, 353.8, 502.2)">M</text><text xml:space="preserve" font-family="Arial-BoldMT,Arial" font-weight="bold" font-size="32.0" fill="#0B5D73" transform="matrix(1.00, 0.00, -0.00, -1.00, 380.4, 502.2)">y</text><text xml:space="preserve" font-family="Arial-BoldMT,Arial" font-weight="bold" font-size="32.0" fill="#0B5D73" transform="matrix(1.00, 0.00, -0.00, -1.00, 398.3, 502.2)"> </text><text xml:space="preserve" font-family="Arial-BoldMT,Arial" font-weight="bold" font-size="32.0" fill="#0B5D73" transform="matrix(1.00, 0.00, -0.00, -1.00, 407.1, 502.2)">D</text><text xml:space="preserve" font-family="Arial-BoldMT,Arial" font-weight="bold" font-size="32.0" fill="#0B5D73" transform="matrix(1.00, 0.00, -0.00, -1.00, 430.3, 502.2)">a</text><text xml:space="preserve" font-family="Arial-BoldMT,Arial" font-weight="bold" font-size="32.0" fill="#0B5D73" transform="matrix(1.00, 0.00, -0.00, -1.00, 448.1, 502.2)">t</text><text xml:space="preserve" font-family="Arial-BoldMT,Arial" font-weight="bold" font-size="32.0" fill="#0B5D73" transform="matrix(1.00, 0.00, -0.00, -1.00, 458.7, 502.2)">a</text><text xml:space="preserve" font-family="LucidaGrande-Bold,Lucida Grande" font-weight="bold" font-size="32.0" fill="#0B5D73" transform="matrix(1.00, 0.00, -0.00, -1.00, 476.5, 502.2)"> </text><text xml:space="preserve" font-family="Arial-BoldMT,Arial" font-weight="bold" font-size="32.0" fill="#0B5D73" transform="matrix(1.00, 0.00, -0.00, -1.00, 3.6, 465.2)">U</text><text xml:space="preserve" font-family="Arial-BoldMT,Arial" font-weight="bold" font-size="32.0" fill="#0B5D73" transform="matrix(1.00, 0.00, -0.00, -1.00, 26.7, 465.2)">s</text><text xml:space="preserve" font-family="Arial-BoldMT,Arial" font-weight="bold" font-size="32.0" fill="#0B5D73" transform="matrix(1.00, 0.00, -0.00, -1.00, 44.5, 465.2)">e</text><text xml:space="preserve" font-family="Arial-BoldMT,Arial" font-weight="bold" font-size="32.0" fill="#0B5D73" transform="matrix(1.00, 0.00, -0.00, -1.00, 62.3, 465.2)">r</text><text xml:space="preserve" font-family="Arial-BoldMT,Arial" font-weight="bold" font-size="32.0" fill="#0B5D73" transform="matrix(1.00, 0.00, -0.00, -1.00, 74.8, 465.2)"> </text><text xml:space="preserve" font-family="Arial-BoldMT,Arial" font-weight="bold" font-size="32.0" fill="#0B5D73" transform="matrix(1.00, 0.00, -0.00, -1.00, 83.7, 465.2)">E</text><text xml:space="preserve" font-family="Arial-BoldMT,Arial" font-weight="bold" font-size="32.0" fill="#0B5D73" transform="matrix(1.00, 0.00, -0.00, -1.00, 105.0, 465.2)">x</text><text xml:space="preserve" font-family="Arial-BoldMT,Arial" font-weight="bold" font-size="32.0" fill="#0B5D73" transform="matrix(1.00, 0.00, -0.00, -1.00, 122.8, 465.2)">p</text><text xml:space="preserve" font-family="Arial-BoldMT,Arial" font-weight="bold" font-size="32.0" fill="#0B5D73" transform="matrix(1.00, 0.00, -0.00, -1.00, 142.4, 465.2)">e</text><text xml:space="preserve" font-family="Arial-BoldMT,Arial" font-weight="bold" font-size="32.0" fill="#0B5D73" transform="matrix(1.00, 0.00, -0.00, -1.00, 160.2, 465.2)">r</text><text xml:space="preserve" font-family="Arial-BoldMT,Arial" font-weight="bold" font-size="32.0" fill="#0B5D73" transform="matrix(1.00, 0.00, -0.00, -1.00, 172.6, 465.2)">i</text><text xml:space="preserve" font-family="Arial-BoldMT,Arial" font-weight="bold" font-size="32.0" fill="#0B5D73" transform="matrix(1.00, 0.00, -0.00, -1.00, 181.5, 465.2)">e</text><text xml:space="preserve" font-family="Arial-BoldMT,Arial" font-weight="bold" font-size="32.0" fill="#0B5D73" transform="matrix(1.00, 0.00, -0.00, -1.00, 199.3, 465.2)">n</text><text xml:space="preserve" font-family="Arial-BoldMT,Arial" font-weight="bold" font-size="32.0" fill="#0B5D73" transform="matrix(1.00, 0.00, -0.00, -1.00, 218.8, 465.2)">c</text><text xml:space="preserve" font-family="Arial-BoldMT,Arial" font-weight="bold" font-size="32.0" fill="#0B5D73" transform="matrix(1.00, 0.00, -0.00, -1.00, 236.6, 465.2)">e</text><text xml:space="preserve" font-family="Arial-BoldMT,Arial" font-weight="bold" font-size="32.0" fill="#0B5D73" transform="matrix(1.00, 0.00, -0.00, -1.00, 254.5, 465.2)"> </text><text xml:space="preserve" font-family="Arial-BoldMT,Arial" font-weight="bold" font-size="32.0" fill="#0B5D73" transform="matrix(1.00, 0.00, -0.00, -1.00, 263.3, 465.2)">G</text><text xml:space="preserve" font-family="Arial-BoldMT,Arial" font-weight="bold" font-size="32.0" fill="#0B5D73" transform="matrix(1.00, 0.00, -0.00, -1.00, 288.2, 465.2)">u</text><text xml:space="preserve" font-family="Arial-BoldMT,Arial" font-weight="bold" font-size="32.0" fill="#0B5D73" transform="matrix(1.00, 0.00, -0.00, -1.00, 307.8, 465.2)">i</text><text xml:space="preserve" font-family="Arial-BoldMT,Arial" font-weight="bold" font-size="32.0" fill="#0B5D73" transform="matrix(1.00, 0.00, -0.00, -1.00, 316.6, 465.2)">d</text><text xml:space="preserve" font-family="Arial-BoldMT,Arial" font-weight="bold" font-size="32.0" fill="#0B5D73" transform="matrix(1.00, 0.00, -0.00, -1.00, 336.2, 465.2)">e</text><text xml:space="preserve" font-family="Arial-BoldMT,Arial" font-weight="bold" font-size="32.0" fill="#0B5D73" transform="matrix(1.00, 0.00, -0.00, -1.00, 354.0, 465.2)">l</text><text xml:space="preserve" font-family="Arial-BoldMT,Arial" font-weight="bold" font-size="32.0" fill="#0B5D73" transform="matrix(1.00, 0.00, -0.00, -1.00, 362.9, 465.2)">i</text><text xml:space="preserve" font-family="Arial-BoldMT,Arial" font-weight="bold" font-size="32.0" fill="#0B5D73" transform="matrix(1.00, 0.00, -0.00, -1.00, 371.8, 465.2)">n</text><text xml:space="preserve" font-family="Arial-BoldMT,Arial" font-weight="bold" font-size="32.0" fill="#0B5D73" transform="matrix(1.00, 0.00, -0.00, -1.00, 391.3, 465.2)">e</text><text xml:space="preserve" font-family="Arial-BoldMT,Arial" font-weight="bold" font-size="32.0" fill="#0B5D73" transform="matrix(1.00, 0.00, -0.00, -1.00, 409.1, 465.2)">s</text><image xlink:href="A1B136424F10BAC0B720DC6D5DDFEDEA.png" width="945.00" height="655.00" transform="matrix(0.58, 0.00, -0.00, -0.53, 84.0, 426.0)"></image><text xml:space="preserve" font-family="ArialMT,Arial" font-size="16.0" fill="#0000FF" transform="matrix(1.00, 0.00, -0.00, -1.00, 39.6, 36.3)">R</text><text xml:space="preserve" font-family="ArialMT,Arial" font-size="16.0" fill="#0000FF" transform="matrix(1.00, 0.00, -0.00, -1.00, 51.2, 36.3)">e</text><text xml:space="preserve" font-family="ArialMT,Arial" font-size="16.0" fill="#0000FF" transform="matrix(1.00, 0.00, -0.00, -1.00, 60.1, 36.3)">f</text><text xml:space="preserve" font-family="ArialMT,Arial" font-size="16.0" fill="#0000FF" transform="matrix(1.00, 0.00, -0.00, -1.00, 64.5, 36.3)">:</text><text xml:space="preserve" font-family="ArialMT,Arial" font-size="16.0" fill="#0000FF" transform="matrix(1.00, 0.00, -0.00, -1.00, 68.9, 36.3)"> </text><text xml:space="preserve" font-family="ArialMT,Arial" font-size="16.0" fill="#0000FF" transform="matrix(1.00, 0.00, -0.00, -1.00, 72.5, 36.3)">A</text><text xml:space="preserve" font-family="ArialMT,Arial" font-size="16.0" fill="#0000FF" transform="matrix(1.00, 0.00, -0.00, -1.00, 83.2, 36.3)">u</text><text xml:space="preserve" font-family="ArialMT,Arial" font-size="16.0" fill="#0000FF" transform="matrix(1.00, 0.00, -0.00, -1.00, 92.1, 36.3)">t</text><text xml:space="preserve" font-family="ArialMT,Arial" font-size="16.0" fill="#0000FF" transform="matrix(1.00, 0.00, -0.00, -1.00, 96.5, 36.3)">h</text><text xml:space="preserve" font-family="ArialMT,Arial" font-size="16.0" fill="#0000FF" transform="matrix(1.00, 0.00, -0.00, -1.00, 105.4, 36.3)">o</text><text xml:space="preserve" font-family="ArialMT,Arial" font-size="16.0" fill="#0000FF" transform="matrix(1.00, 0.00, -0.00, -1.00, 114.3, 36.3)">r</text><text xml:space="preserve" font-family="ArialMT,Arial" font-size="16.0" fill="#0000FF" transform="matrix(1.00, 0.00, -0.00, -1.00, 119.7, 36.3)">i</text><text xml:space="preserve" font-family="ArialMT,Arial" font-size="16.0" fill="#0000FF" transform="matrix(1.00, 0.00, -0.00, -1.00, 123.2, 36.3)">z</text><text xml:space="preserve" font-family="ArialMT,Arial" font-size="16.0" fill="#0000FF" transform="matrix(1.00, 0.00, -0.00, -1.00, 131.2, 36.3)">a</text><text xml:space="preserve" font-family="ArialMT,Arial" font-size="16.0" fill="#0000FF" transform="matrix(1.00, 0.00, -0.00, -1.00, 140.1, 36.3)">t</text><text xml:space="preserve" font-family="ArialMT,Arial" font-size="16.0" fill="#0000FF" transform="matrix(1.00, 0.00, -0.00, -1.00, 144.6, 36.3)">i</text><text xml:space="preserve" font-family="ArialMT,Arial" font-size="16.0" fill="#0000FF" transform="matrix(1.00, 0.00, -0.00, -1.00, 148.1, 36.3)">o</text><text xml:space="preserve" font-family="ArialMT,Arial" font-size="16.0" fill="#0000FF" transform="matrix(1.00, 0.00, -0.00, -1.00, 157.0, 36.3)">n</text><text xml:space="preserve" font-family="ArialMT,Arial" font-size="16.0" fill="#0000FF" transform="matrix(1.00, 0.00, -0.00, -1.00, 165.9, 36.3)">.</text><text xml:space="preserve" font-family="ArialMT,Arial" font-size="16.0" fill="#0000FF" transform="matrix(1.00, 0.00, -0.00, -1.00, 170.4, 36.3)">d</text><text xml:space="preserve" font-family="ArialMT,Arial" font-size="16.0" fill="#0000FF" transform="matrix(1.00, 0.00, -0.00, -1.00, 179.3, 36.3)">o</text><text xml:space="preserve" font-family="ArialMT,Arial" font-size="16.0" fill="#0000FF" transform="matrix(1.00, 0.00, -0.00, -1.00, 188.2, 36.3)">c</text><text xml:space="preserve" font-family="ArialMT,Arial" font-size="16.0" fill="#0000FF" transform="matrix(1.00, 0.00, -0.00, -1.00, 196.2, 36.3)">x</text><text xml:space="preserve" font-family="ArialMT,Arial" font-size="16.0" fill="#0000FF" transform="matrix(1.00, 0.00, -0.00, -1.00, 204.2, 36.3)"> </text><text xml:space="preserve" font-family="ArialMT,Arial" font-size="16.0" fill="#0000FF" transform="matrix(1.00, 0.00, -0.00, -1.00, 208.6, 36.3)">S</text><text xml:space="preserve" font-family="ArialMT,Arial" font-size="16.0" fill="#0000FF" transform="matrix(1.00, 0.00, -0.00, -1.00, 219.3, 36.3)">e</text><text xml:space="preserve" font-family="ArialMT,Arial" font-size="16.0" fill="#0000FF" transform="matrix(1.00, 0.00, -0.00, -1.00, 228.2, 36.3)">c</text><text xml:space="preserve" font-family="ArialMT,Arial" font-size="16.0" fill="#0000FF" transform="matrix(1.00, 0.00, -0.00, -1.00, 236.2, 36.3)">t</text><text xml:space="preserve" font-family="ArialMT,Arial" font-size="16.0" fill="#0000FF" transform="matrix(1.00, 0.00, -0.00, -1.00, 240.6, 36.3)">i</text><text xml:space="preserve" font-family="ArialMT,Arial" font-size="16.0" fill="#0000FF" transform="matrix(1.00, 0.00, -0.00, -1.00, 244.2, 36.3)">o</text><text xml:space="preserve" font-family="ArialMT,Arial" font-size="16.0" fill="#0000FF" transform="matrix(1.00, 0.00, -0.00, -1.00, 253.1, 36.3)">n</text><text xml:space="preserve" font-family="ArialMT,Arial" font-size="16.0" fill="#0000FF" transform="matrix(1.00, 0.00, -0.00, -1.00, 262.0, 36.3)"> </text><text xml:space="preserve" font-family="ArialMT,Arial" font-size="16.0" fill="#0000FF" transform="matrix(1.00, 0.00, -0.00, -1.00, 266.4, 36.3)">2</text><text xml:space="preserve" font-family="ArialMT,Arial" font-size="16.0" fill="#0000FF" transform="matrix(1.00, 0.00, -0.00, -1.00, 275.3, 36.3)">.</text><text xml:space="preserve" font-family="ArialMT,Arial" font-size="16.0" fill="#0000FF" transform="matrix(1.00, 0.00, -0.00, -1.00, 279.8, 36.3)">3</text><text xml:space="preserve" font-family="ArialMT,Arial" font-size="16.0" fill="#0000FF" transform="matrix(1.00, 0.00, -0.00, -1.00, 288.7, 36.3)">.</text><text xml:space="preserve" font-family="ArialMT,Arial" font-size="16.0" fill="#0000FF" transform="matrix(1.00, 0.00, -0.00, -1.00, 293.1, 36.3)">2</text><g><clipPath id="clip0x6080010bc9e0"><path d="M 38.6 33.0 L 302.0 33.0 L 302.0 36.2 L 38.6 36.2 Z M 38.6 33.0 "></path></clipPath><g clip-path="url(#clip0x6080010bc9e0)"><path d="M 3.6 19.4 L 266.0 19.4 " fill="none" stroke="#0000FF" stroke-width="1.17" transform="matrix(1.00, 0.00, 0.00, -1.00, 36.0, 54.0)"></path></g></g></g></svg>