<?xml version="1.0" encoding="UTF-8" standalone="no"?><svg xmlns="http://www.w3.org/2000/svg" xmlns:xlink="http://www.w3.org/1999/xlink" clip-rule="evenodd" stroke-miterlimit="10" viewBox="0 0 720 540"><desc>SVG generated by Keynote</desc><defs></defs><g transform="matrix(1.00, 0.00, -0.00, -1.00, 0.0, 540.0)"><g><clipPath id="clip0x6080034afe40"><path d="M 0.0 540.0 L 720.0 540.0 L 720.0 0.0 L 0.0 0.0 Z M 0.0 540.0 "></path></clipPath><g clip-path="url(#clip0x6080034afe40)"><image xlink:href="../../6C8CA873-4094-4AAB-84FA-98B434A53252/assets/FB9F438063C152C41BBF80E1AC3A0F64.jpeg" width="1500.00" height="1125.00" transform="matrix(0.48, 0.00, -0.00, -0.48, 0.0, 540.0)"></image></g></g><image xlink:href="../../6C8CA873-4094-4AAB-84FA-98B434A53252/assets/4269B1647B48C2333CA1F43A723777F3.png" width="256.00" height="311.00" transform="matrix(0.19, 0.00, -0.00, -0.19, 666.0, 540.0)"></image><text xml:space="preserve" font-family="Arial-BoldMT,Arial" font-weight="bold" font-size="32.0" fill="#0B5D73" transform="matrix(1.00, 0.00, -0.00, -1.00, 66.6, 484.7)">O</text><text xml:space="preserve" font-family="Arial-BoldMT,Arial" font-weight="bold" font-size="32.0" fill="#0B5D73" transform="matrix(1.00, 0.00, -0.00, -1.00, 91.4, 484.7)">p</text><text xml:space="preserve" font-family="Arial-BoldMT,Arial" font-weight="bold" font-size="32.0" fill="#0B5D73" transform="matrix(1.00, 0.00, -0.00, -1.00, 111.0, 484.7)">e</text><text xml:space="preserve" font-family="Arial-BoldMT,Arial" font-weight="bold" font-size="32.0" fill="#0B5D73" transform="matrix(1.00, 0.00, -0.00, -1.00, 128.8, 484.7)">n</text><text xml:space="preserve" font-family="Arial-BoldMT,Arial" font-weight="bold" font-size="32.0" fill="#0B5D73" transform="matrix(1.00, 0.00, -0.00, -1.00, 148.3, 484.7)"> </text><text xml:space="preserve" font-family="Arial-BoldMT,Arial" font-weight="bold" font-size="32.0" fill="#0B5D73" transform="matrix(1.00, 0.00, -0.00, -1.00, 157.2, 484.7)">S</text><text xml:space="preserve" font-family="Arial-BoldMT,Arial" font-weight="bold" font-size="32.0" fill="#0B5D73" transform="matrix(1.00, 0.00, -0.00, -1.00, 178.6, 484.7)">o</text><text xml:space="preserve" font-family="Arial-BoldMT,Arial" font-weight="bold" font-size="32.0" fill="#0B5D73" transform="matrix(1.00, 0.00, -0.00, -1.00, 198.1, 484.7)">u</text><text xml:space="preserve" font-family="Arial-BoldMT,Arial" font-weight="bold" font-size="32.0" fill="#0B5D73" transform="matrix(1.00, 0.00, -0.00, -1.00, 217.6, 484.7)">r</text><text xml:space="preserve" font-family="Arial-BoldMT,Arial" font-weight="bold" font-size="32.0" fill="#0B5D73" transform="matrix(1.00, 0.00, -0.00, -1.00, 230.1, 484.7)">c</text><text xml:space="preserve" font-family="Arial-BoldMT,Arial" font-weight="bold" font-size="32.0" fill="#0B5D73" transform="matrix(1.00, 0.00, -0.00, -1.00, 247.9, 484.7)">e</text><text xml:space="preserve" font-family="Arial-BoldMT,Arial" font-weight="bold" font-size="32.0" fill="#0B5D73" transform="matrix(1.00, 0.00, -0.00, -1.00, 265.7, 484.7)"> </text><text xml:space="preserve" font-family="Arial-BoldMT,Arial" font-weight="bold" font-size="32.0" fill="#0B5D73" transform="matrix(1.00, 0.00, -0.00, -1.00, 274.6, 484.7)">G</text><text xml:space="preserve" font-family="Arial-BoldMT,Arial" font-weight="bold" font-size="32.0" fill="#0B5D73" transform="matrix(1.00, 0.00, -0.00, -1.00, 299.5, 484.7)">r</text><text xml:space="preserve" font-family="Arial-BoldMT,Arial" font-weight="bold" font-size="32.0" fill="#0B5D73" transform="matrix(1.00, 0.00, -0.00, -1.00, 311.9, 484.7)">e</text><text xml:space="preserve" font-family="Arial-BoldMT,Arial" font-weight="bold" font-size="32.0" fill="#0B5D73" transform="matrix(1.00, 0.00, -0.00, -1.00, 329.7, 484.7)">e</text><text xml:space="preserve" font-family="Arial-BoldMT,Arial" font-weight="bold" font-size="32.0" fill="#0B5D73" transform="matrix(1.00, 0.00, -0.00, -1.00, 347.5, 484.7)">n</text><text xml:space="preserve" font-family="Arial-BoldMT,Arial" font-weight="bold" font-size="32.0" fill="#0B5D73" transform="matrix(1.00, 0.00, -0.00, -1.00, 367.1, 484.7)"> </text><text xml:space="preserve" font-family="Arial-BoldMT,Arial" font-weight="bold" font-size="32.0" fill="#0B5D73" transform="matrix(1.00, 0.00, -0.00, -1.00, 376.0, 484.7)">B</text><text xml:space="preserve" font-family="Arial-BoldMT,Arial" font-weight="bold" font-size="32.0" fill="#0B5D73" transform="matrix(1.00, 0.00, -0.00, -1.00, 399.1, 484.7)">u</text><text xml:space="preserve" font-family="Arial-BoldMT,Arial" font-weight="bold" font-size="32.0" fill="#0B5D73" transform="matrix(1.00, 0.00, -0.00, -1.00, 418.6, 484.7)">t</text><text xml:space="preserve" font-family="Arial-BoldMT,Arial" font-weight="bold" font-size="32.0" fill="#0B5D73" transform="matrix(1.00, 0.00, -0.00, -1.00, 429.3, 484.7)">t</text><text xml:space="preserve" font-family="Arial-BoldMT,Arial" font-weight="bold" font-size="32.0" fill="#0B5D73" transform="matrix(1.00, 0.00, -0.00, -1.00, 439.9, 484.7)">o</text><text xml:space="preserve" font-family="Arial-BoldMT,Arial" font-weight="bold" font-size="32.0" fill="#0B5D73" transform="matrix(1.00, 0.00, -0.00, -1.00, 459.5, 484.7)">n</text><text xml:space="preserve" font-family="LucidaGrande-Bold,Lucida Grande" font-weight="bold" font-size="32.0" fill="#0B5D73" transform="matrix(1.00, 0.00, -0.00, -1.00, 479.0, 484.7)"> </text><text xml:space="preserve" font-family="Arial-BoldMT,Arial" font-weight="bold" font-size="32.0" fill="#0000FF" transform="matrix(1.00, 0.00, -0.00, -1.00, 66.6, 447.7)">h</text><text xml:space="preserve" font-family="Arial-BoldMT,Arial" font-weight="bold" font-size="32.0" fill="#0000FF" transform="matrix(1.00, 0.00, -0.00, -1.00, 86.1, 447.7)">t</text><text xml:space="preserve" font-family="Arial-BoldMT,Arial" font-weight="bold" font-size="32.0" fill="#0000FF" transform="matrix(1.00, 0.00, -0.00, -1.00, 96.8, 447.7)">t</text><text xml:space="preserve" font-family="Arial-BoldMT,Arial" font-weight="bold" font-size="32.0" fill="#0000FF" transform="matrix(1.00, 0.00, -0.00, -1.00, 107.4, 447.7)">p</text><text xml:space="preserve" font-family="Arial-BoldMT,Arial" font-weight="bold" font-size="32.0" fill="#0000FF" transform="matrix(1.00, 0.00, -0.00, -1.00, 127.0, 447.7)">s</text><text xml:space="preserve" font-family="Arial-BoldMT,Arial" font-weight="bold" font-size="32.0" fill="#0000FF" transform="matrix(1.00, 0.00, -0.00, -1.00, 144.8, 447.7)">:</text><text xml:space="preserve" font-family="Arial-BoldMT,Arial" font-weight="bold" font-size="32.0" fill="#0000FF" transform="matrix(1.00, 0.00, -0.00, -1.00, 155.4, 447.7)">/</text><text xml:space="preserve" font-family="Arial-BoldMT,Arial" font-weight="bold" font-size="32.0" fill="#0000FF" transform="matrix(1.00, 0.00, -0.00, -1.00, 164.3, 447.7)">/</text><text xml:space="preserve" font-family="Arial-BoldMT,Arial" font-weight="bold" font-size="32.0" fill="#0000FF" transform="matrix(1.00, 0.00, -0.00, -1.00, 173.2, 447.7)">g</text><text xml:space="preserve" font-family="Arial-BoldMT,Arial" font-weight="bold" font-size="32.0" fill="#0000FF" transform="matrix(1.00, 0.00, -0.00, -1.00, 192.7, 447.7)">i</text><text xml:space="preserve" font-family="Arial-BoldMT,Arial" font-weight="bold" font-size="32.0" fill="#0000FF" transform="matrix(1.00, 0.00, -0.00, -1.00, 201.6, 447.7)">t</text><text xml:space="preserve" font-family="Arial-BoldMT,Arial" font-weight="bold" font-size="32.0" fill="#0000FF" transform="matrix(1.00, 0.00, -0.00, -1.00, 212.3, 447.7)">h</text><text xml:space="preserve" font-family="Arial-BoldMT,Arial" font-weight="bold" font-size="32.0" fill="#0000FF" transform="matrix(1.00, 0.00, -0.00, -1.00, 231.8, 447.7)">u</text><text xml:space="preserve" font-family="Arial-BoldMT,Arial" font-weight="bold" font-size="32.0" fill="#0000FF" transform="matrix(1.00, 0.00, -0.00, -1.00, 251.3, 447.7)">b</text><text xml:space="preserve" font-family="Arial-BoldMT,Arial" font-weight="bold" font-size="32.0" fill="#0000FF" transform="matrix(1.00, 0.00, -0.00, -1.00, 270.9, 447.7)">.</text><text xml:space="preserve" font-family="Arial-BoldMT,Arial" font-weight="bold" font-size="32.0" fill="#0000FF" transform="matrix(1.00, 0.00, -0.00, -1.00, 279.8, 447.7)">c</text><text xml:space="preserve" font-family="Arial-BoldMT,Arial" font-weight="bold" font-size="32.0" fill="#0000FF" transform="matrix(1.00, 0.00, -0.00, -1.00, 297.6, 447.7)">o</text><text xml:space="preserve" font-family="Arial-BoldMT,Arial" font-weight="bold" font-size="32.0" fill="#0000FF" transform="matrix(1.00, 0.00, -0.00, -1.00, 317.1, 447.7)">m</text><text xml:space="preserve" font-family="Arial-BoldMT,Arial" font-weight="bold" font-size="32.0" fill="#0000FF" transform="matrix(1.00, 0.00, -0.00, -1.00, 345.6, 447.7)">/</text><text xml:space="preserve" font-family="Arial-BoldMT,Arial" font-weight="bold" font-size="32.0" fill="#0000FF" transform="matrix(1.00, 0.00, -0.00, -1.00, 354.5, 447.7)">e</text><text xml:space="preserve" font-family="Arial-BoldMT,Arial" font-weight="bold" font-size="32.0" fill="#0000FF" transform="matrix(1.00, 0.00, -0.00, -1.00, 372.3, 447.7)">n</text><text xml:space="preserve" font-family="Arial-BoldMT,Arial" font-weight="bold" font-size="32.0" fill="#0000FF" transform="matrix(1.00, 0.00, -0.00, -1.00, 391.8, 447.7)">e</text><text xml:space="preserve" font-family="Arial-BoldMT,Arial" font-weight="bold" font-size="32.0" fill="#0000FF" transform="matrix(1.00, 0.00, -0.00, -1.00, 409.6, 447.7)">r</text><text xml:space="preserve" font-family="Arial-BoldMT,Arial" font-weight="bold" font-size="32.0" fill="#0000FF" transform="matrix(1.00, 0.00, -0.00, -1.00, 422.1, 447.7)">g</text><text xml:space="preserve" font-family="Arial-BoldMT,Arial" font-weight="bold" font-size="32.0" fill="#0000FF" transform="matrix(1.00, 0.00, -0.00, -1.00, 441.6, 447.7)">y</text><text xml:space="preserve" font-family="Arial-BoldMT,Arial" font-weight="bold" font-size="32.0" fill="#0000FF" transform="matrix(1.00, 0.00, -0.00, -1.00, 459.4, 447.7)">o</text><text xml:space="preserve" font-family="Arial-BoldMT,Arial" font-weight="bold" font-size="32.0" fill="#0000FF" transform="matrix(1.00, 0.00, -0.00, -1.00, 479.0, 447.7)">s</text><text xml:space="preserve" font-family="Arial-BoldMT,Arial" font-weight="bold" font-size="32.0" fill="#0B5D73" transform="matrix(1.00, 0.00, -0.00, -1.00, 496.8, 447.7)"> </text><g><clipPath id="clip0x6000046b9320"><path d="M 65.6 441.6 L 496.8 441.6 L 496.8 447.0 L 65.6 447.0 Z M 65.6 441.6 "></path></clipPath><g clip-path="url(#clip0x6000046b9320)"><path d="M 3.6 78.2 L 433.8 78.2 " fill="none" stroke="#0000FF" stroke-width="3.36" transform="matrix(1.00, 0.00, 0.00, -1.00, 63.0, 522.5)"></path></g></g><image xlink:href="../../FFDBEAB4-769D-4F45-9242-D9C4DBBB4A3B/assets/A158987272E25B30B3583DBECDC6B8FC.png" width="1090.00" height="616.00" transform="matrix(0.61, 0.00, -0.00, -0.61, 30.0, 420.0)"></image></g></svg>