<?xml version="1.0" encoding="UTF-8" standalone="no"?><svg xmlns="http://www.w3.org/2000/svg" xmlns:xlink="http://www.w3.org/1999/xlink" clip-rule="evenodd" stroke-miterlimit="10" viewBox="0 0 720 540"><desc>SVG generated by Keynote</desc><defs></defs><g transform="matrix(1.00, 0.00, -0.00, -1.00, 0.0, 540.0)"><g><clipPath id="clip0x618001ab63e0"><path d="M 0.0 540.0 L 720.0 540.0 L 720.0 0.0 L 0.0 0.0 Z M 0.0 540.0 "></path></clipPath><g clip-path="url(#clip0x618001ab63e0)"><image xlink:href="../../6C8CA873-4094-4AAB-84FA-98B434A53252/assets/FB9F438063C152C41BBF80E1AC3A0F64.jpeg" width="1500.00" height="1125.00" transform="matrix(0.48, 0.00, -0.00, -0.48, 0.0, 540.0)"></image></g></g><image xlink:href="../../6C8CA873-4094-4AAB-84FA-98B434A53252/assets/4269B1647B48C2333CA1F43A723777F3.png" width="256.00" height="311.00" transform="matrix(0.19, 0.00, -0.00, -0.19, 666.0, 540.0)"></image><text xml:space="preserve" font-family="Arial-BoldMT,Arial" font-weight="bold" font-size="32.0" fill="#0B5D73" transform="matrix(1.00, 0.00, -0.00, -1.00, 3.6, 502.2)">G</text><text xml:space="preserve" font-family="Arial-BoldMT,Arial" font-weight="bold" font-size="32.0" fill="#0B5D73" transform="matrix(1.00, 0.00, -0.00, -1.00, 28.5, 502.2)">r</text><text xml:space="preserve" font-family="Arial-BoldMT,Arial" font-weight="bold" font-size="32.0" fill="#0B5D73" transform="matrix(1.00, 0.00, -0.00, -1.00, 40.9, 502.2)">e</text><text xml:space="preserve" font-family="Arial-BoldMT,Arial" font-weight="bold" font-size="32.0" fill="#0B5D73" transform="matrix(1.00, 0.00, -0.00, -1.00, 58.7, 502.2)">e</text><text xml:space="preserve" font-family="Arial-BoldMT,Arial" font-weight="bold" font-size="32.0" fill="#0B5D73" transform="matrix(1.00, 0.00, -0.00, -1.00, 76.6, 502.2)">n</text><text xml:space="preserve" font-family="Arial-BoldMT,Arial" font-weight="bold" font-size="32.0" fill="#0B5D73" transform="matrix(1.00, 0.00, -0.00, -1.00, 96.1, 502.2)"> </text><text xml:space="preserve" font-family="Arial-BoldMT,Arial" font-weight="bold" font-size="32.0" fill="#0B5D73" transform="matrix(1.00, 0.00, -0.00, -1.00, 105.0, 502.2)">B</text><text xml:space="preserve" font-family="Arial-BoldMT,Arial" font-weight="bold" font-size="32.0" fill="#0B5D73" transform="matrix(1.00, 0.00, -0.00, -1.00, 128.1, 502.2)">u</text><text xml:space="preserve" font-family="Arial-BoldMT,Arial" font-weight="bold" font-size="32.0" fill="#0B5D73" transform="matrix(1.00, 0.00, -0.00, -1.00, 147.6, 502.2)">t</text><text xml:space="preserve" font-family="Arial-BoldMT,Arial" font-weight="bold" font-size="32.0" fill="#0B5D73" transform="matrix(1.00, 0.00, -0.00, -1.00, 158.3, 502.2)">t</text><text xml:space="preserve" font-family="Arial-BoldMT,Arial" font-weight="bold" font-size="32.0" fill="#0B5D73" transform="matrix(1.00, 0.00, -0.00, -1.00, 168.9, 502.2)">o</text><text xml:space="preserve" font-family="Arial-BoldMT,Arial" font-weight="bold" font-size="32.0" fill="#0B5D73" transform="matrix(1.00, 0.00, -0.00, -1.00, 188.5, 502.2)">n</text><text xml:space="preserve" font-family="Arial-BoldMT,Arial" font-weight="bold" font-size="32.0" fill="#0B5D73" transform="matrix(1.00, 0.00, -0.00, -1.00, 208.0, 502.2)"> </text><text xml:space="preserve" font-family="Arial-BoldMT,Arial" font-weight="bold" font-size="32.0" fill="#0B5D73" transform="matrix(1.00, 0.00, -0.00, -1.00, 216.9, 502.2)">C</text><text xml:space="preserve" font-family="Arial-BoldMT,Arial" font-weight="bold" font-size="32.0" fill="#0B5D73" transform="matrix(1.00, 0.00, -0.00, -1.00, 240.0, 502.2)">o</text><text xml:space="preserve" font-family="Arial-BoldMT,Arial" font-weight="bold" font-size="32.0" fill="#0B5D73" transform="matrix(1.00, 0.00, -0.00, -1.00, 259.6, 502.2)">n</text><text xml:space="preserve" font-family="Arial-BoldMT,Arial" font-weight="bold" font-size="32.0" fill="#0B5D73" transform="matrix(1.00, 0.00, -0.00, -1.00, 279.1, 502.2)">n</text><text xml:space="preserve" font-family="Arial-BoldMT,Arial" font-weight="bold" font-size="32.0" fill="#0B5D73" transform="matrix(1.00, 0.00, -0.00, -1.00, 298.6, 502.2)">e</text><text xml:space="preserve" font-family="Arial-BoldMT,Arial" font-weight="bold" font-size="32.0" fill="#0B5D73" transform="matrix(1.00, 0.00, -0.00, -1.00, 316.4, 502.2)">c</text><text xml:space="preserve" font-family="Arial-BoldMT,Arial" font-weight="bold" font-size="32.0" fill="#0B5D73" transform="matrix(1.00, 0.00, -0.00, -1.00, 334.3, 502.2)">t</text><text xml:space="preserve" font-family="Arial-BoldMT,Arial" font-weight="bold" font-size="32.0" fill="#0B5D73" transform="matrix(1.00, 0.00, -0.00, -1.00, 344.9, 502.2)"> </text><text xml:space="preserve" font-family="Arial-BoldMT,Arial" font-weight="bold" font-size="32.0" fill="#0B5D73" transform="matrix(1.00, 0.00, -0.00, -1.00, 353.8, 502.2)">M</text><text xml:space="preserve" font-family="Arial-BoldMT,Arial" font-weight="bold" font-size="32.0" fill="#0B5D73" transform="matrix(1.00, 0.00, -0.00, -1.00, 380.4, 502.2)">y</text><text xml:space="preserve" font-family="Arial-BoldMT,Arial" font-weight="bold" font-size="32.0" fill="#0B5D73" transform="matrix(1.00, 0.00, -0.00, -1.00, 398.3, 502.2)"> </text><text xml:space="preserve" font-family="Arial-BoldMT,Arial" font-weight="bold" font-size="32.0" fill="#0B5D73" transform="matrix(1.00, 0.00, -0.00, -1.00, 407.1, 502.2)">D</text><text xml:space="preserve" font-family="Arial-BoldMT,Arial" font-weight="bold" font-size="32.0" fill="#0B5D73" transform="matrix(1.00, 0.00, -0.00, -1.00, 430.3, 502.2)">a</text><text xml:space="preserve" font-family="Arial-BoldMT,Arial" font-weight="bold" font-size="32.0" fill="#0B5D73" transform="matrix(1.00, 0.00, -0.00, -1.00, 448.1, 502.2)">t</text><text xml:space="preserve" font-family="Arial-BoldMT,Arial" font-weight="bold" font-size="32.0" fill="#0B5D73" transform="matrix(1.00, 0.00, -0.00, -1.00, 458.7, 502.2)">a</text><text xml:space="preserve" font-family="LucidaGrande-Bold,Lucida Grande" font-weight="bold" font-size="32.0" fill="#0B5D73" transform="matrix(1.00, 0.00, -0.00, -1.00, 476.5, 502.2)"> </text><text xml:space="preserve" font-family="Arial-BoldMT,Arial" font-weight="bold" font-size="32.0" fill="#0B5D73" transform="matrix(1.00, 0.00, -0.00, -1.00, 3.6, 465.2)">S</text><text xml:space="preserve" font-family="Arial-BoldMT,Arial" font-weight="bold" font-size="32.0" fill="#0B5D73" transform="matrix(1.00, 0.00, -0.00, -1.00, 24.9, 465.2)">t</text><text xml:space="preserve" font-family="Arial-BoldMT,Arial" font-weight="bold" font-size="32.0" fill="#0B5D73" transform="matrix(1.00, 0.00, -0.00, -1.00, 35.6, 465.2)">a</text><text xml:space="preserve" font-family="Arial-BoldMT,Arial" font-weight="bold" font-size="32.0" fill="#0B5D73" transform="matrix(1.00, 0.00, -0.00, -1.00, 53.4, 465.2)">t</text><text xml:space="preserve" font-family="Arial-BoldMT,Arial" font-weight="bold" font-size="32.0" fill="#0B5D73" transform="matrix(1.00, 0.00, -0.00, -1.00, 64.1, 465.2)">u</text><text xml:space="preserve" font-family="Arial-BoldMT,Arial" font-weight="bold" font-size="32.0" fill="#0B5D73" transform="matrix(1.00, 0.00, -0.00, -1.00, 83.6, 465.2)">s</text><text xml:space="preserve" font-family="Arial-BoldMT,Arial" font-weight="bold" font-size="32.0" fill="#0B5D73" transform="matrix(1.00, 0.00, -0.00, -1.00, 101.4, 465.2)"> </text><text xml:space="preserve" font-family="Arial-BoldMT,Arial" font-weight="bold" font-size="32.0" fill="#0B5D73" transform="matrix(1.00, 0.00, -0.00, -1.00, 110.3, 465.2)">a</text><text xml:space="preserve" font-family="Arial-BoldMT,Arial" font-weight="bold" font-size="32.0" fill="#0B5D73" transform="matrix(1.00, 0.00, -0.00, -1.00, 128.1, 465.2)">n</text><text xml:space="preserve" font-family="Arial-BoldMT,Arial" font-weight="bold" font-size="32.0" fill="#0B5D73" transform="matrix(1.00, 0.00, -0.00, -1.00, 147.6, 465.2)">d</text><text xml:space="preserve" font-family="Arial-BoldMT,Arial" font-weight="bold" font-size="32.0" fill="#0B5D73" transform="matrix(1.00, 0.00, -0.00, -1.00, 167.2, 465.2)"> </text><text xml:space="preserve" font-family="Arial-BoldMT,Arial" font-weight="bold" font-size="32.0" fill="#0B5D73" transform="matrix(1.00, 0.00, -0.00, -1.00, 176.1, 465.2)">N</text><text xml:space="preserve" font-family="Arial-BoldMT,Arial" font-weight="bold" font-size="32.0" fill="#0B5D73" transform="matrix(1.00, 0.00, -0.00, -1.00, 199.2, 465.2)">o</text><text xml:space="preserve" font-family="Arial-BoldMT,Arial" font-weight="bold" font-size="32.0" fill="#0B5D73" transform="matrix(1.00, 0.00, -0.00, -1.00, 218.7, 465.2)">t</text><text xml:space="preserve" font-family="Arial-BoldMT,Arial" font-weight="bold" font-size="32.0" fill="#0B5D73" transform="matrix(1.00, 0.00, -0.00, -1.00, 229.4, 465.2)">i</text><text xml:space="preserve" font-family="Arial-BoldMT,Arial" font-weight="bold" font-size="32.0" fill="#0B5D73" transform="matrix(1.00, 0.00, -0.00, -1.00, 238.3, 465.2)">f</text><text xml:space="preserve" font-family="Arial-BoldMT,Arial" font-weight="bold" font-size="32.0" fill="#0B5D73" transform="matrix(1.00, 0.00, -0.00, -1.00, 248.9, 465.2)">i</text><text xml:space="preserve" font-family="Arial-BoldMT,Arial" font-weight="bold" font-size="32.0" fill="#0B5D73" transform="matrix(1.00, 0.00, -0.00, -1.00, 257.8, 465.2)">c</text><text xml:space="preserve" font-family="Arial-BoldMT,Arial" font-weight="bold" font-size="32.0" fill="#0B5D73" transform="matrix(1.00, 0.00, -0.00, -1.00, 275.6, 465.2)">a</text><text xml:space="preserve" font-family="Arial-BoldMT,Arial" font-weight="bold" font-size="32.0" fill="#0B5D73" transform="matrix(1.00, 0.00, -0.00, -1.00, 293.4, 465.2)">t</text><text xml:space="preserve" font-family="Arial-BoldMT,Arial" font-weight="bold" font-size="32.0" fill="#0B5D73" transform="matrix(1.00, 0.00, -0.00, -1.00, 304.1, 465.2)">i</text><text xml:space="preserve" font-family="Arial-BoldMT,Arial" font-weight="bold" font-size="32.0" fill="#0B5D73" transform="matrix(1.00, 0.00, -0.00, -1.00, 312.9, 465.2)">o</text><text xml:space="preserve" font-family="Arial-BoldMT,Arial" font-weight="bold" font-size="32.0" fill="#0B5D73" transform="matrix(1.00, 0.00, -0.00, -1.00, 332.5, 465.2)">n</text><image xlink:href="C4574D27E7BC5C77EF9CB4213540E000.png" width="884.00" height="307.00" transform="matrix(0.73, 0.00, -0.00, -1.09, 36.0, 444.0)"></image><text xml:space="preserve" font-family="ArialMT,Arial" font-size="16.0" fill="#0000FF" transform="matrix(1.00, 0.00, -0.00, -1.00, 39.6, 36.3)">R</text><text xml:space="preserve" font-family="ArialMT,Arial" font-size="16.0" fill="#0000FF" transform="matrix(1.00, 0.00, -0.00, -1.00, 51.2, 36.3)">e</text><text xml:space="preserve" font-family="ArialMT,Arial" font-size="16.0" fill="#0000FF" transform="matrix(1.00, 0.00, -0.00, -1.00, 60.1, 36.3)">f</text><text xml:space="preserve" font-family="ArialMT,Arial" font-size="16.0" fill="#0000FF" transform="matrix(1.00, 0.00, -0.00, -1.00, 64.5, 36.3)">:</text><text xml:space="preserve" font-family="ArialMT,Arial" font-size="16.0" fill="#0000FF" transform="matrix(1.00, 0.00, -0.00, -1.00, 68.9, 36.3)"> </text><text xml:space="preserve" font-family="ArialMT,Arial" font-size="16.0" fill="#0000FF" transform="matrix(1.00, 0.00, -0.00, -1.00, 72.5, 36.3)">A</text><text xml:space="preserve" font-family="ArialMT,Arial" font-size="16.0" fill="#0000FF" transform="matrix(1.00, 0.00, -0.00, -1.00, 83.2, 36.3)">u</text><text xml:space="preserve" font-family="ArialMT,Arial" font-size="16.0" fill="#0000FF" transform="matrix(1.00, 0.00, -0.00, -1.00, 92.1, 36.3)">t</text><text xml:space="preserve" font-family="ArialMT,Arial" font-size="16.0" fill="#0000FF" transform="matrix(1.00, 0.00, -0.00, -1.00, 96.5, 36.3)">h</text><text xml:space="preserve" font-family="ArialMT,Arial" font-size="16.0" fill="#0000FF" transform="matrix(1.00, 0.00, -0.00, -1.00, 105.4, 36.3)">o</text><text xml:space="preserve" font-family="ArialMT,Arial" font-size="16.0" fill="#0000FF" transform="matrix(1.00, 0.00, -0.00, -1.00, 114.3, 36.3)">r</text><text xml:space="preserve" font-family="ArialMT,Arial" font-size="16.0" fill="#0000FF" transform="matrix(1.00, 0.00, -0.00, -1.00, 119.7, 36.3)">i</text><text xml:space="preserve" font-family="ArialMT,Arial" font-size="16.0" fill="#0000FF" transform="matrix(1.00, 0.00, -0.00, -1.00, 123.2, 36.3)">z</text><text xml:space="preserve" font-family="ArialMT,Arial" font-size="16.0" fill="#0000FF" transform="matrix(1.00, 0.00, -0.00, -1.00, 131.2, 36.3)">a</text><text xml:space="preserve" font-family="ArialMT,Arial" font-size="16.0" fill="#0000FF" transform="matrix(1.00, 0.00, -0.00, -1.00, 140.1, 36.3)">t</text><text xml:space="preserve" font-family="ArialMT,Arial" font-size="16.0" fill="#0000FF" transform="matrix(1.00, 0.00, -0.00, -1.00, 144.6, 36.3)">i</text><text xml:space="preserve" font-family="ArialMT,Arial" font-size="16.0" fill="#0000FF" transform="matrix(1.00, 0.00, -0.00, -1.00, 148.1, 36.3)">o</text><text xml:space="preserve" font-family="ArialMT,Arial" font-size="16.0" fill="#0000FF" transform="matrix(1.00, 0.00, -0.00, -1.00, 157.0, 36.3)">n</text><text xml:space="preserve" font-family="ArialMT,Arial" font-size="16.0" fill="#0000FF" transform="matrix(1.00, 0.00, -0.00, -1.00, 165.9, 36.3)">.</text><text xml:space="preserve" font-family="ArialMT,Arial" font-size="16.0" fill="#0000FF" transform="matrix(1.00, 0.00, -0.00, -1.00, 170.4, 36.3)">d</text><text xml:space="preserve" font-family="ArialMT,Arial" font-size="16.0" fill="#0000FF" transform="matrix(1.00, 0.00, -0.00, -1.00, 179.3, 36.3)">o</text><text xml:space="preserve" font-family="ArialMT,Arial" font-size="16.0" fill="#0000FF" transform="matrix(1.00, 0.00, -0.00, -1.00, 188.2, 36.3)">c</text><text xml:space="preserve" font-family="ArialMT,Arial" font-size="16.0" fill="#0000FF" transform="matrix(1.00, 0.00, -0.00, -1.00, 196.2, 36.3)">x</text><text xml:space="preserve" font-family="ArialMT,Arial" font-size="16.0" fill="#0000FF" transform="matrix(1.00, 0.00, -0.00, -1.00, 204.2, 36.3)"> </text><text xml:space="preserve" font-family="ArialMT,Arial" font-size="16.0" fill="#0000FF" transform="matrix(1.00, 0.00, -0.00, -1.00, 208.6, 36.3)">S</text><text xml:space="preserve" font-family="ArialMT,Arial" font-size="16.0" fill="#0000FF" transform="matrix(1.00, 0.00, -0.00, -1.00, 219.3, 36.3)">e</text><text xml:space="preserve" font-family="ArialMT,Arial" font-size="16.0" fill="#0000FF" transform="matrix(1.00, 0.00, -0.00, -1.00, 228.2, 36.3)">c</text><text xml:space="preserve" font-family="ArialMT,Arial" font-size="16.0" fill="#0000FF" transform="matrix(1.00, 0.00, -0.00, -1.00, 236.2, 36.3)">t</text><text xml:space="preserve" font-family="ArialMT,Arial" font-size="16.0" fill="#0000FF" transform="matrix(1.00, 0.00, -0.00, -1.00, 240.6, 36.3)">i</text><text xml:space="preserve" font-family="ArialMT,Arial" font-size="16.0" fill="#0000FF" transform="matrix(1.00, 0.00, -0.00, -1.00, 244.2, 36.3)">o</text><text xml:space="preserve" font-family="ArialMT,Arial" font-size="16.0" fill="#0000FF" transform="matrix(1.00, 0.00, -0.00, -1.00, 253.1, 36.3)">n</text><text xml:space="preserve" font-family="ArialMT,Arial" font-size="16.0" fill="#0000FF" transform="matrix(1.00, 0.00, -0.00, -1.00, 262.0, 36.3)"> </text><text xml:space="preserve" font-family="ArialMT,Arial" font-size="16.0" fill="#0000FF" transform="matrix(1.00, 0.00, -0.00, -1.00, 266.4, 36.3)">2</text><text xml:space="preserve" font-family="ArialMT,Arial" font-size="16.0" fill="#0000FF" transform="matrix(1.00, 0.00, -0.00, -1.00, 275.3, 36.3)">.</text><text xml:space="preserve" font-family="ArialMT,Arial" font-size="16.0" fill="#0000FF" transform="matrix(1.00, 0.00, -0.00, -1.00, 279.8, 36.3)">2</text><text xml:space="preserve" font-family="ArialMT,Arial" font-size="16.0" fill="#0000FF" transform="matrix(1.00, 0.00, -0.00, -1.00, 288.7, 36.3)">.</text><text xml:space="preserve" font-family="ArialMT,Arial" font-size="16.0" fill="#0000FF" transform="matrix(1.00, 0.00, -0.00, -1.00, 293.1, 36.3)">2</text><g><clipPath id="clip0x6080010b42e0"><path d="M 38.6 33.0 L 302.0 33.0 L 302.0 36.2 L 38.6 36.2 Z M 38.6 33.0 "></path></clipPath><g clip-path="url(#clip0x6080010b42e0)"><path d="M 3.6 19.4 L 266.0 19.4 " fill="none" stroke="#0000FF" stroke-width="1.17" transform="matrix(1.00, 0.00, 0.00, -1.00, 36.0, 54.0)"></path></g></g><path d="M 498.5 155.5 L 693.5 155.5 L 693.5 79.5 L 498.5 79.5 Z M 498.0 156.0 " fill="#FFFFFF"></path><path d="M 0.5 0.5 L 195.5 0.5 L 195.5 76.5 L 0.5 76.5 Z M 0.0 0.0 " fill="none" stroke="#000000" stroke-width="0.75" stroke-linejoin="bevel" transform="matrix(1.00, 0.00, 0.00, -1.00, 498.0, 156.0)"></path><g><clipPath id="clip0x6080010b46a0"><path d="M 496.4 77.4 L 879.6 77.4 L 879.6 157.6 L 496.4 157.6 Z M 496.4 77.4 "></path></clipPath><g clip-path="url(#clip0x6080010b46a0)"><text xml:space="preserve" font-family="ArialMT,Arial" font-size="20.0" fill="#000000" transform="matrix(1.00, 0.00, -0.00, -1.00, 502.0, 133.9)">S</text><text xml:space="preserve" font-family="ArialMT,Arial" font-size="20.0" fill="#000000" transform="matrix(1.00, 0.00, -0.00, -1.00, 515.3, 133.9)">t</text><text xml:space="preserve" font-family="ArialMT,Arial" font-size="20.0" fill="#000000" transform="matrix(1.00, 0.00, -0.00, -1.00, 520.9, 133.9)">a</text><text xml:space="preserve" font-family="ArialMT,Arial" font-size="20.0" fill="#000000" transform="matrix(1.00, 0.00, -0.00, -1.00, 532.0, 133.9)">t</text><text xml:space="preserve" font-family="ArialMT,Arial" font-size="20.0" fill="#000000" transform="matrix(1.00, 0.00, -0.00, -1.00, 537.5, 133.9)">u</text><text xml:space="preserve" font-family="ArialMT,Arial" font-size="20.0" fill="#000000" transform="matrix(1.00, 0.00, -0.00, -1.00, 548.7, 133.9)">s</text><text xml:space="preserve" font-family="ArialMT,Arial" font-size="20.0" fill="#000000" transform="matrix(1.00, 0.00, -0.00, -1.00, 558.7, 133.9)"> </text><text xml:space="preserve" font-family="ArialMT,Arial" font-size="20.0" fill="#000000" transform="matrix(1.00, 0.00, -0.00, -1.00, 564.2, 133.9)">C</text><text xml:space="preserve" font-family="ArialMT,Arial" font-size="20.0" fill="#000000" transform="matrix(1.00, 0.00, -0.00, -1.00, 578.7, 133.9)">o</text><text xml:space="preserve" font-family="ArialMT,Arial" font-size="20.0" fill="#000000" transform="matrix(1.00, 0.00, -0.00, -1.00, 589.8, 133.9)">d</text><text xml:space="preserve" font-family="ArialMT,Arial" font-size="20.0" fill="#000000" transform="matrix(1.00, 0.00, -0.00, -1.00, 600.9, 133.9)">e</text><text xml:space="preserve" font-family="ArialMT,Arial" font-size="20.0" fill="#000000" transform="matrix(1.00, 0.00, -0.00, -1.00, 612.1, 133.9)">s</text><text xml:space="preserve" font-family="ArialMT,Arial" font-size="20.0" fill="#000000" transform="matrix(1.00, 0.00, -0.00, -1.00, 622.1, 133.9)">:</text><text xml:space="preserve" font-family="ArialMT,Arial" font-size="24.0" fill="#000000" transform="matrix(1.00, 0.00, -0.00, -1.00, 627.6, 133.9)"> </text><text xml:space="preserve" font-family="ArialMT,Arial" font-size="20.0" fill="#000000" transform="matrix(1.00, 0.00, -0.00, -1.00, 538.0, 110.9)">0</text><text xml:space="preserve" font-family="ArialMT,Arial" font-size="20.0" fill="#000000" transform="matrix(1.00, 0.00, -0.00, -1.00, 549.1, 110.9)"> </text><text xml:space="preserve" font-family="ArialMT,Arial" font-size="20.0" fill="#000000" transform="matrix(1.00, 0.00, -0.00, -1.00, 554.7, 110.9)">=</text><text xml:space="preserve" font-family="ArialMT,Arial" font-size="20.0" fill="#000000" transform="matrix(1.00, 0.00, -0.00, -1.00, 566.3, 110.9)"> </text><text xml:space="preserve" font-family="ArialMT,Arial" font-size="20.0" fill="#000000" transform="matrix(1.00, 0.00, -0.00, -1.00, 571.9, 110.9)">U</text><text xml:space="preserve" font-family="ArialMT,Arial" font-size="20.0" fill="#000000" transform="matrix(1.00, 0.00, -0.00, -1.00, 586.3, 110.9)">n</text><text xml:space="preserve" font-family="ArialMT,Arial" font-size="20.0" fill="#000000" transform="matrix(1.00, 0.00, -0.00, -1.00, 597.5, 110.9)">a</text><text xml:space="preserve" font-family="ArialMT,Arial" font-size="20.0" fill="#000000" transform="matrix(1.00, 0.00, -0.00, -1.00, 608.6, 110.9)">v</text><text xml:space="preserve" font-family="ArialMT,Arial" font-size="20.0" fill="#000000" transform="matrix(1.00, 0.00, -0.00, -1.00, 618.6, 110.9)">a</text><text xml:space="preserve" font-family="ArialMT,Arial" font-size="20.0" fill="#000000" transform="matrix(1.00, 0.00, -0.00, -1.00, 629.7, 110.9)">i</text><text xml:space="preserve" font-family="ArialMT,Arial" font-size="20.0" fill="#000000" transform="matrix(1.00, 0.00, -0.00, -1.00, 634.2, 110.9)">l</text><text xml:space="preserve" font-family="ArialMT,Arial" font-size="20.0" fill="#000000" transform="matrix(1.00, 0.00, -0.00, -1.00, 638.6, 110.9)">a</text><text xml:space="preserve" font-family="ArialMT,Arial" font-size="20.0" fill="#000000" transform="matrix(1.00, 0.00, -0.00, -1.00, 649.7, 110.9)">b</text><text xml:space="preserve" font-family="ArialMT,Arial" font-size="20.0" fill="#000000" transform="matrix(1.00, 0.00, -0.00, -1.00, 660.9, 110.9)">l</text><text xml:space="preserve" font-family="ArialMT,Arial" font-size="20.0" fill="#000000" transform="matrix(1.00, 0.00, -0.00, -1.00, 665.3, 110.9)">e</text><text xml:space="preserve" font-family="ArialMT,Arial" font-size="20.0" fill="#000000" transform="matrix(1.00, 0.00, -0.00, -1.00, 676.4, 110.9)"> </text><text xml:space="preserve" font-family="ArialMT,Arial" font-size="24.0" fill="#000000" transform="matrix(1.00, 0.00, -0.00, -1.00, 682.0, 110.9)"> </text><text xml:space="preserve" font-family="ArialMT,Arial" font-size="20.0" fill="#000000" transform="matrix(1.00, 0.00, -0.00, -1.00, 538.0, 87.9)">1</text><text xml:space="preserve" font-family="ArialMT,Arial" font-size="20.0" fill="#000000" transform="matrix(1.00, 0.00, -0.00, -1.00, 549.1, 87.9)"> </text><text xml:space="preserve" font-family="ArialMT,Arial" font-size="20.0" fill="#000000" transform="matrix(1.00, 0.00, -0.00, -1.00, 554.7, 87.9)">=</text><text xml:space="preserve" font-family="ArialMT,Arial" font-size="20.0" fill="#000000" transform="matrix(1.00, 0.00, -0.00, -1.00, 566.3, 87.9)"> </text><text xml:space="preserve" font-family="ArialMT,Arial" font-size="20.0" fill="#000000" transform="matrix(1.00, 0.00, -0.00, -1.00, 571.9, 87.9)">N</text><text xml:space="preserve" font-family="ArialMT,Arial" font-size="20.0" fill="#000000" transform="matrix(1.00, 0.00, -0.00, -1.00, 586.3, 87.9)">o</text><text xml:space="preserve" font-family="ArialMT,Arial" font-size="20.0" fill="#000000" transform="matrix(1.00, 0.00, -0.00, -1.00, 597.5, 87.9)">r</text><text xml:space="preserve" font-family="ArialMT,Arial" font-size="20.0" fill="#000000" transform="matrix(1.00, 0.00, -0.00, -1.00, 604.1, 87.9)">m</text><text xml:space="preserve" font-family="ArialMT,Arial" font-size="20.0" fill="#000000" transform="matrix(1.00, 0.00, -0.00, -1.00, 620.8, 87.9)">a</text><text xml:space="preserve" font-family="ArialMT,Arial" font-size="20.0" fill="#000000" transform="matrix(1.00, 0.00, -0.00, -1.00, 631.9, 87.9)">l</text></g></g><path d="M 36.0 126.0 L 365.0 126.0 L 365.0 95.0 L 36.0 95.0 Z M 36.0 126.0 " fill="#FFFFFF"></path><path d="M 0.0 0.0 L 329.0 0.0 L 329.0 31.0 L 0.0 31.0 Z M 0.0 0.0 " fill="none" stroke="#000000" stroke-width="2.00" stroke-linejoin="bevel" transform="matrix(1.00, 0.00, 0.00, -1.00, 36.0, 126.0)"></path><g><clipPath id="clip0x6080010b5960"><path d="M 35.1 93.9 L 366.0 93.9 L 366.0 126.9 L 35.1 126.9 Z M 35.1 93.9 "></path></clipPath><g clip-path="url(#clip0x6080010b5960)"><text xml:space="preserve" font-family="Calibri,Calibri" font-size="18.0" fill="#000000" transform="matrix(1.00, 0.00, -0.00, -1.00, 40.6, 104.2)">A</text><text xml:space="preserve" font-family="Calibri,Calibri" font-size="18.0" fill="#000000" transform="matrix(1.00, 0.00, -0.00, -1.00, 51.0, 104.2)">u</text><text xml:space="preserve" font-family="Calibri,Calibri" font-size="18.0" fill="#000000" transform="matrix(1.00, 0.00, -0.00, -1.00, 60.5, 104.2)">t</text><text xml:space="preserve" font-family="Calibri,Calibri" font-size="18.0" fill="#000000" transform="matrix(1.00, 0.00, -0.00, -1.00, 66.5, 104.2)">h</text><text xml:space="preserve" font-family="Calibri,Calibri" font-size="18.0" fill="#000000" transform="matrix(1.00, 0.00, -0.00, -1.00, 76.0, 104.2)">o</text><text xml:space="preserve" font-family="Calibri,Calibri" font-size="18.0" fill="#000000" transform="matrix(1.00, 0.00, -0.00, -1.00, 85.5, 104.2)">r</text><text xml:space="preserve" font-family="Calibri,Calibri" font-size="18.0" fill="#000000" transform="matrix(1.00, 0.00, -0.00, -1.00, 91.7, 104.2)">i</text><text xml:space="preserve" font-family="Calibri,Calibri" font-size="18.0" fill="#000000" transform="matrix(1.00, 0.00, -0.00, -1.00, 95.9, 104.2)">z</text><text xml:space="preserve" font-family="Calibri,Calibri" font-size="18.0" fill="#000000" transform="matrix(1.00, 0.00, -0.00, -1.00, 102.7, 104.2)">a</text><text xml:space="preserve" font-family="Calibri,Calibri" font-size="18.0" fill="#000000" transform="matrix(1.00, 0.00, -0.00, -1.00, 111.1, 104.2)">t</text><text xml:space="preserve" font-family="Calibri,Calibri" font-size="18.0" fill="#000000" transform="matrix(1.00, 0.00, -0.00, -1.00, 117.2, 104.2)">i</text><text xml:space="preserve" font-family="Calibri,Calibri" font-size="18.0" fill="#000000" transform="matrix(1.00, 0.00, -0.00, -1.00, 121.3, 104.2)">o</text><text xml:space="preserve" font-family="Calibri,Calibri" font-size="18.0" fill="#000000" transform="matrix(1.00, 0.00, -0.00, -1.00, 130.8, 104.2)">n</text><text xml:space="preserve" font-family="Calibri,Calibri" font-size="18.0" fill="#000000" transform="matrix(1.00, 0.00, -0.00, -1.00, 140.3, 104.2)">:</text><text xml:space="preserve" font-family="Calibri,Calibri" font-size="18.0" fill="#000000" transform="matrix(1.00, 0.00, -0.00, -1.00, 145.1, 104.2)">	</text><text xml:space="preserve" font-family="Calibri,Calibri" font-size="18.0" fill="#000000" transform="matrix(1.00, 0.00, -0.00, -1.00, 173.1, 104.2)"></text><text xml:space="preserve" font-family="Calibri,Calibri" font-size="18.0" fill="#000000" transform="matrix(1.00, 0.00, -0.00, -1.00, 173.1, 104.2)"> </text><text xml:space="preserve" font-family="Calibri,Calibri" font-size="18.0" fill="#000000" transform="matrix(1.00, 0.00, -0.00, -1.00, 177.1, 104.2)"> </text><text xml:space="preserve" font-family="Calibri,Calibri" font-size="18.0" fill="#000000" transform="matrix(1.00, 0.00, -0.00, -1.00, 181.2, 104.2)">B</text><text xml:space="preserve" font-family="Calibri,Calibri" font-size="18.0" fill="#000000" transform="matrix(1.00, 0.00, -0.00, -1.00, 191.0, 104.2)">e</text><text xml:space="preserve" font-family="Calibri,Calibri" font-size="18.0" fill="#000000" transform="matrix(1.00, 0.00, -0.00, -1.00, 200.0, 104.2)">a</text><text xml:space="preserve" font-family="Calibri,Calibri" font-size="18.0" fill="#000000" transform="matrix(1.00, 0.00, -0.00, -1.00, 208.6, 104.2)">r</text><text xml:space="preserve" font-family="Calibri,Calibri" font-size="18.0" fill="#000000" transform="matrix(1.00, 0.00, -0.00, -1.00, 214.6, 104.2)">e</text><text xml:space="preserve" font-family="Calibri,Calibri" font-size="18.0" fill="#000000" transform="matrix(1.00, 0.00, -0.00, -1.00, 223.6, 104.2)">r</text><text xml:space="preserve" font-family="Calibri,Calibri" font-size="18.0" fill="#000000" transform="matrix(1.00, 0.00, -0.00, -1.00, 229.8, 104.2)">	</text><text xml:space="preserve" font-family="Calibri,Calibri" font-size="18.0" fill="#000000" transform="matrix(1.00, 0.00, -0.00, -1.00, 257.8, 104.2)"></text><text xml:space="preserve" font-family="Calibri,Calibri" font-size="18.0" fill="#000000" transform="matrix(1.00, 0.00, -0.00, -1.00, 257.8, 104.2)"> </text><text xml:space="preserve" font-family="Calibri,Calibri" font-size="18.0" fill="#000000" transform="matrix(1.00, 0.00, -0.00, -1.00, 261.9, 104.2)"> </text><text xml:space="preserve" font-family="Calibri,Calibri" font-size="18.0" fill="#000000" transform="matrix(1.00, 0.00, -0.00, -1.00, 266.0, 104.2)">{</text><text xml:space="preserve" font-family="Calibri,Calibri" font-size="18.0" fill="#000000" transform="matrix(1.00, 0.00, -0.00, -1.00, 271.6, 104.2)">c</text><text xml:space="preserve" font-family="Calibri,Calibri" font-size="18.0" fill="#000000" transform="matrix(1.00, 0.00, -0.00, -1.00, 279.2, 104.2)">l</text><text xml:space="preserve" font-family="Calibri,Calibri" font-size="18.0" fill="#000000" transform="matrix(1.00, 0.00, -0.00, -1.00, 283.4, 104.2)">i</text><text xml:space="preserve" font-family="Calibri,Calibri" font-size="18.0" fill="#000000" transform="matrix(1.00, 0.00, -0.00, -1.00, 287.5, 104.2)">e</text><text xml:space="preserve" font-family="Calibri,Calibri" font-size="18.0" fill="#000000" transform="matrix(1.00, 0.00, -0.00, -1.00, 296.5, 104.2)">n</text><text xml:space="preserve" font-family="Calibri,Calibri" font-size="18.0" fill="#000000" transform="matrix(1.00, 0.00, -0.00, -1.00, 305.8, 104.2)">t</text><text xml:space="preserve" font-family="Calibri,Calibri" font-size="18.0" fill="#000000" transform="matrix(1.00, 0.00, -0.00, -1.00, 311.8, 104.2)">_</text><text xml:space="preserve" font-family="Calibri,Calibri" font-size="18.0" fill="#000000" transform="matrix(1.00, 0.00, -0.00, -1.00, 320.8, 104.2)">a</text><text xml:space="preserve" font-family="Calibri,Calibri" font-size="18.0" fill="#000000" transform="matrix(1.00, 0.00, -0.00, -1.00, 329.4, 104.2)">c</text><text xml:space="preserve" font-family="Calibri,Calibri" font-size="18.0" fill="#000000" transform="matrix(1.00, 0.00, -0.00, -1.00, 337.0, 104.2)">c</text><text xml:space="preserve" font-family="Calibri,Calibri" font-size="18.0" fill="#000000" transform="matrix(1.00, 0.00, -0.00, -1.00, 344.6, 104.2)">e</text><text xml:space="preserve" font-family="Calibri,Calibri" font-size="18.0" fill="#000000" transform="matrix(1.00, 0.00, -0.00, -1.00, 353.6, 104.2)">s</text><text xml:space="preserve" font-family="Calibri,Calibri" font-size="18.0" fill="#000000" transform="matrix(1.00, 0.00, -0.00, -1.00, 360.6, 104.2)">s</text><text xml:space="preserve" font-family="Calibri,Calibri" font-size="18.0" fill="#000000" transform="matrix(1.00, 0.00, -0.00, -1.00, 367.6, 104.2)">_</text><text xml:space="preserve" font-family="Calibri,Calibri" font-size="18.0" fill="#000000" transform="matrix(1.00, 0.00, -0.00, -1.00, 376.6, 104.2)">t</text><text xml:space="preserve" font-family="Calibri,Calibri" font-size="18.0" fill="#000000" transform="matrix(1.00, 0.00, -0.00, -1.00, 382.5, 104.2)">o</text><text xml:space="preserve" font-family="Calibri,Calibri" font-size="18.0" fill="#000000" transform="matrix(1.00, 0.00, -0.00, -1.00, 392.0, 104.2)">k</text><text xml:space="preserve" font-family="Calibri,Calibri" font-size="18.0" fill="#000000" transform="matrix(1.00, 0.00, -0.00, -1.00, 399.5, 104.2)">e</text><text xml:space="preserve" font-family="Calibri,Calibri" font-size="18.0" fill="#000000" transform="matrix(1.00, 0.00, -0.00, -1.00, 408.5, 104.2)">n</text><text xml:space="preserve" font-family="Calibri,Calibri" font-size="18.0" fill="#000000" transform="matrix(1.00, 0.00, -0.00, -1.00, 418.0, 104.2)">}</text></g></g></g></svg>