<?xml version="1.0" encoding="UTF-8" standalone="no"?><svg xmlns="http://www.w3.org/2000/svg" xmlns:xlink="http://www.w3.org/1999/xlink" clip-rule="evenodd" stroke-miterlimit="10" viewBox="0 0 720 540"><desc>SVG generated by Keynote</desc><defs></defs><g transform="matrix(1.00, 0.00, -0.00, -1.00, 0.0, 540.0)"><g><clipPath id="clip0x6000028bd4c0"><path d="M 0.0 540.0 L 720.0 540.0 L 720.0 0.0 L 0.0 0.0 Z M 0.0 540.0 "></path></clipPath><g clip-path="url(#clip0x6000028bd4c0)"><image xlink:href="../../6C8CA873-4094-4AAB-84FA-98B434A53252/assets/FB9F438063C152C41BBF80E1AC3A0F64.jpeg" width="1500.00" height="1125.00" transform="matrix(0.48, 0.00, -0.00, -0.48, 0.0, 540.0)"></image></g></g><image xlink:href="../../6C8CA873-4094-4AAB-84FA-98B434A53252/assets/4269B1647B48C2333CA1F43A723777F3.png" width="256.00" height="311.00" transform="matrix(0.19, 0.00, -0.00, -0.19, 666.0, 540.0)"></image><text xml:space="preserve" font-family="Arial-BoldMT,Arial" font-weight="bold" font-size="36.0" fill="#0B5D73" transform="matrix(1.00, 0.00, -0.00, -1.00, 66.6, 464.7)">G</text><text xml:space="preserve" font-family="Arial-BoldMT,Arial" font-weight="bold" font-size="36.0" fill="#0B5D73" transform="matrix(1.00, 0.00, -0.00, -1.00, 94.6, 464.7)">r</text><text xml:space="preserve" font-family="Arial-BoldMT,Arial" font-weight="bold" font-size="36.0" fill="#0B5D73" transform="matrix(1.00, 0.00, -0.00, -1.00, 108.6, 464.7)">e</text><text xml:space="preserve" font-family="Arial-BoldMT,Arial" font-weight="bold" font-size="36.0" fill="#0B5D73" transform="matrix(1.00, 0.00, -0.00, -1.00, 128.6, 464.7)">e</text><text xml:space="preserve" font-family="Arial-BoldMT,Arial" font-weight="bold" font-size="36.0" fill="#0B5D73" transform="matrix(1.00, 0.00, -0.00, -1.00, 148.6, 464.7)">n</text><text xml:space="preserve" font-family="Arial-BoldMT,Arial" font-weight="bold" font-size="36.0" fill="#0B5D73" transform="matrix(1.00, 0.00, -0.00, -1.00, 170.6, 464.7)"> </text><text xml:space="preserve" font-family="Arial-BoldMT,Arial" font-weight="bold" font-size="36.0" fill="#0B5D73" transform="matrix(1.00, 0.00, -0.00, -1.00, 180.6, 464.7)">B</text><text xml:space="preserve" font-family="Arial-BoldMT,Arial" font-weight="bold" font-size="36.0" fill="#0B5D73" transform="matrix(1.00, 0.00, -0.00, -1.00, 206.6, 464.7)">u</text><text xml:space="preserve" font-family="Arial-BoldMT,Arial" font-weight="bold" font-size="36.0" fill="#0B5D73" transform="matrix(1.00, 0.00, -0.00, -1.00, 228.6, 464.7)">t</text><text xml:space="preserve" font-family="Arial-BoldMT,Arial" font-weight="bold" font-size="36.0" fill="#0B5D73" transform="matrix(1.00, 0.00, -0.00, -1.00, 240.6, 464.7)">t</text><text xml:space="preserve" font-family="Arial-BoldMT,Arial" font-weight="bold" font-size="36.0" fill="#0B5D73" transform="matrix(1.00, 0.00, -0.00, -1.00, 252.6, 464.7)">o</text><text xml:space="preserve" font-family="Arial-BoldMT,Arial" font-weight="bold" font-size="36.0" fill="#0B5D73" transform="matrix(1.00, 0.00, -0.00, -1.00, 274.6, 464.7)">n</text><text xml:space="preserve" font-family="Arial-BoldMT,Arial" font-weight="bold" font-size="36.0" fill="#0B5D73" transform="matrix(1.00, 0.00, -0.00, -1.00, 296.5, 464.7)"> </text><text xml:space="preserve" font-family="Arial-BoldMT,Arial" font-weight="bold" font-size="36.0" fill="#0B5D73" transform="matrix(1.00, 0.00, -0.00, -1.00, 306.5, 464.7)">D</text><text xml:space="preserve" font-family="Arial-BoldMT,Arial" font-weight="bold" font-size="36.0" fill="#0B5D73" transform="matrix(1.00, 0.00, -0.00, -1.00, 332.5, 464.7)">a</text><text xml:space="preserve" font-family="Arial-BoldMT,Arial" font-weight="bold" font-size="36.0" fill="#0B5D73" transform="matrix(1.00, 0.00, -0.00, -1.00, 352.6, 464.7)">t</text><text xml:space="preserve" font-family="Arial-BoldMT,Arial" font-weight="bold" font-size="36.0" fill="#0B5D73" transform="matrix(1.00, 0.00, -0.00, -1.00, 364.6, 464.7)">a</text><text xml:space="preserve" font-family="Arial-BoldMT,Arial" font-weight="bold" font-size="36.0" fill="#0B5D73" transform="matrix(1.00, 0.00, -0.00, -1.00, 384.6, 464.7)"> </text><text xml:space="preserve" font-family="Arial-BoldMT,Arial" font-weight="bold" font-size="36.0" fill="#0B5D73" transform="matrix(1.00, 0.00, -0.00, -1.00, 394.6, 464.7)">E</text><text xml:space="preserve" font-family="Arial-BoldMT,Arial" font-weight="bold" font-size="36.0" fill="#0B5D73" transform="matrix(1.00, 0.00, -0.00, -1.00, 418.6, 464.7)">x</text><text xml:space="preserve" font-family="Arial-BoldMT,Arial" font-weight="bold" font-size="36.0" fill="#0B5D73" transform="matrix(1.00, 0.00, -0.00, -1.00, 438.6, 464.7)">c</text><text xml:space="preserve" font-family="Arial-BoldMT,Arial" font-weight="bold" font-size="36.0" fill="#0B5D73" transform="matrix(1.00, 0.00, -0.00, -1.00, 458.7, 464.7)">h</text><text xml:space="preserve" font-family="Arial-BoldMT,Arial" font-weight="bold" font-size="36.0" fill="#0B5D73" transform="matrix(1.00, 0.00, -0.00, -1.00, 480.6, 464.7)">a</text><text xml:space="preserve" font-family="Arial-BoldMT,Arial" font-weight="bold" font-size="36.0" fill="#0B5D73" transform="matrix(1.00, 0.00, -0.00, -1.00, 500.7, 464.7)">n</text><text xml:space="preserve" font-family="Arial-BoldMT,Arial" font-weight="bold" font-size="36.0" fill="#0B5D73" transform="matrix(1.00, 0.00, -0.00, -1.00, 522.6, 464.7)">g</text><text xml:space="preserve" font-family="Arial-BoldMT,Arial" font-weight="bold" font-size="36.0" fill="#0B5D73" transform="matrix(1.00, 0.00, -0.00, -1.00, 544.6, 464.7)">e</text><g><clipPath id="clip0x6100006ac2a0"><path d="M 102.3 195.6 L 274.3 195.6 L 274.3 398.0 L 102.3 398.0 Z M 102.3 195.6 "></path></clipPath><g clip-path="url(#clip0x6100006ac2a0)"><path d="M 104.0 396.0 L 272.0 396.0 L 272.0 198.0 L 104.0 198.0 Z M 104.3 396.0 " fill="#4E81BD"></path><path d="M -0.3 -0.0 L 167.7 -0.0 L 167.7 198.0 L -0.3 198.0 Z M 0.0 0.0 " fill="none" stroke="#395E89" stroke-width="2.00" stroke-linejoin="bevel" transform="matrix(1.00, 0.00, 0.00, -1.00, 104.3, 396.0)"></path></g></g><g><clipPath id="clip0x6100006be1e0"><path d="M 100.6 356.1 L 276.0 356.1 L 276.0 399.7 L 100.6 399.7 Z M 100.6 356.1 "></path></clipPath><g clip-path="url(#clip0x6100006be1e0)"><text xml:space="preserve" font-family="Calibri,Calibri" font-size="24.0" fill="#FFFFFF" transform="matrix(1.00, 0.00, -0.00, -1.00, 114.3, 369.8)">D</text><text xml:space="preserve" font-family="Calibri,Calibri" font-size="24.0" fill="#FFFFFF" transform="matrix(1.00, 0.00, -0.00, -1.00, 129.1, 369.8)">a</text><text xml:space="preserve" font-family="Calibri,Calibri" font-size="24.0" fill="#FFFFFF" transform="matrix(1.00, 0.00, -0.00, -1.00, 140.4, 369.8)">t</text><text xml:space="preserve" font-family="Calibri,Calibri" font-size="24.0" fill="#FFFFFF" transform="matrix(1.00, 0.00, -0.00, -1.00, 148.1, 369.8)">a</text><text xml:space="preserve" font-family="Calibri,Calibri" font-size="24.0" fill="#FFFFFF" transform="matrix(1.00, 0.00, -0.00, -1.00, 159.6, 369.8)">	</text><text xml:space="preserve" font-family="Calibri,Calibri" font-size="24.0" fill="#FFFFFF" transform="matrix(1.00, 0.00, -0.00, -1.00, 187.6, 369.8)"></text><text xml:space="preserve" font-family="Calibri,Calibri" font-size="24.0" fill="#FFFFFF" transform="matrix(1.00, 0.00, -0.00, -1.00, 187.6, 369.8)"> </text><text xml:space="preserve" font-family="Calibri,Calibri" font-size="24.0" fill="#FFFFFF" transform="matrix(1.00, 0.00, -0.00, -1.00, 193.0, 369.8)"> </text><text xml:space="preserve" font-family="Calibri,Calibri" font-size="24.0" fill="#FFFFFF" transform="matrix(1.00, 0.00, -0.00, -1.00, 198.5, 369.8)">C</text><text xml:space="preserve" font-family="Calibri,Calibri" font-size="24.0" fill="#FFFFFF" transform="matrix(1.00, 0.00, -0.00, -1.00, 211.3, 369.8)">u</text><text xml:space="preserve" font-family="Calibri,Calibri" font-size="24.0" fill="#FFFFFF" transform="matrix(1.00, 0.00, -0.00, -1.00, 223.9, 369.8)">s</text><text xml:space="preserve" font-family="Calibri,Calibri" font-size="24.0" fill="#FFFFFF" transform="matrix(1.00, 0.00, -0.00, -1.00, 233.0, 369.8)">t</text><text xml:space="preserve" font-family="Calibri,Calibri" font-size="24.0" fill="#FFFFFF" transform="matrix(1.00, 0.00, -0.00, -1.00, 240.8, 369.8)">o</text><text xml:space="preserve" font-family="Calibri,Calibri" font-size="24.0" fill="#FFFFFF" transform="matrix(1.00, 0.00, -0.00, -1.00, 253.5, 369.8)">d</text><text xml:space="preserve" font-family="Calibri,Calibri" font-size="24.0" fill="#FFFFFF" transform="matrix(1.00, 0.00, -0.00, -1.00, 266.1, 369.8)">i</text><text xml:space="preserve" font-family="Calibri,Calibri" font-size="24.0" fill="#FFFFFF" transform="matrix(1.00, 0.00, -0.00, -1.00, 271.6, 369.8)">a</text><text xml:space="preserve" font-family="Calibri,Calibri" font-size="24.0" fill="#FFFFFF" transform="matrix(1.00, 0.00, -0.00, -1.00, 283.1, 369.8)">n</text></g></g><g><clipPath id="clip0x6180004a7aa0"><path d="M 462.3 195.6 L 634.3 195.6 L 634.3 398.0 L 462.3 398.0 Z M 462.3 195.6 "></path></clipPath><g clip-path="url(#clip0x6180004a7aa0)"><path d="M 464.0 396.0 L 632.0 396.0 L 632.0 198.0 L 464.0 198.0 Z M 464.3 396.0 " fill="#4E81BD"></path><path d="M -0.3 -0.0 L 167.7 -0.0 L 167.7 198.0 L -0.3 198.0 Z M 0.0 0.0 " fill="none" stroke="#395E89" stroke-width="2.00" stroke-linejoin="bevel" transform="matrix(1.00, 0.00, 0.00, -1.00, 464.3, 396.0)"></path></g></g><g><clipPath id="clip0x6180004a7ce0"><path d="M 460.6 356.1 L 636.0 356.1 L 636.0 399.7 L 460.6 399.7 Z M 460.6 356.1 "></path></clipPath><g clip-path="url(#clip0x6180004a7ce0)"><text xml:space="preserve" font-family="Calibri,Calibri" font-size="24.0" fill="#FFFFFF" transform="matrix(1.00, 0.00, -0.00, -1.00, 495.0, 369.8)">T</text><text xml:space="preserve" font-family="Calibri,Calibri" font-size="24.0" fill="#FFFFFF" transform="matrix(1.00, 0.00, -0.00, -1.00, 506.7, 369.8)">h</text><text xml:space="preserve" font-family="Calibri,Calibri" font-size="24.0" fill="#FFFFFF" transform="matrix(1.00, 0.00, -0.00, -1.00, 519.3, 369.8)">i</text><text xml:space="preserve" font-family="Calibri,Calibri" font-size="24.0" fill="#FFFFFF" transform="matrix(1.00, 0.00, -0.00, -1.00, 524.9, 369.8)">r</text><text xml:space="preserve" font-family="Calibri,Calibri" font-size="24.0" fill="#FFFFFF" transform="matrix(1.00, 0.00, -0.00, -1.00, 532.9, 369.8)">d</text><text xml:space="preserve" font-family="Calibri,Calibri" font-size="24.0" fill="#FFFFFF" transform="matrix(1.00, 0.00, -0.00, -1.00, 545.5, 369.8)">	</text><text xml:space="preserve" font-family="Calibri,Calibri" font-size="24.0" fill="#FFFFFF" transform="matrix(1.00, 0.00, -0.00, -1.00, 573.5, 369.8)"></text><text xml:space="preserve" font-family="Calibri,Calibri" font-size="24.0" fill="#FFFFFF" transform="matrix(1.00, 0.00, -0.00, -1.00, 573.5, 369.8)"> </text><text xml:space="preserve" font-family="Calibri,Calibri" font-size="24.0" fill="#FFFFFF" transform="matrix(1.00, 0.00, -0.00, -1.00, 578.9, 369.8)"> </text><text xml:space="preserve" font-family="Calibri,Calibri" font-size="24.0" fill="#FFFFFF" transform="matrix(1.00, 0.00, -0.00, -1.00, 584.4, 369.8)">P</text><text xml:space="preserve" font-family="Calibri,Calibri" font-size="24.0" fill="#FFFFFF" transform="matrix(1.00, 0.00, -0.00, -1.00, 596.2, 369.8)">a</text><text xml:space="preserve" font-family="Calibri,Calibri" font-size="24.0" fill="#FFFFFF" transform="matrix(1.00, 0.00, -0.00, -1.00, 607.7, 369.8)">r</text><text xml:space="preserve" font-family="Calibri,Calibri" font-size="24.0" fill="#FFFFFF" transform="matrix(1.00, 0.00, -0.00, -1.00, 616.1, 369.8)">t</text><text xml:space="preserve" font-family="Calibri,Calibri" font-size="24.0" fill="#FFFFFF" transform="matrix(1.00, 0.00, -0.00, -1.00, 624.1, 369.8)">y</text></g></g><g><clipPath id="clip0x6180002bab80"><path d="M 141.3 280.1 L 235.3 280.1 L 235.3 349.6 L 141.3 349.6 Z M 141.3 280.1 "></path></clipPath><g clip-path="url(#clip0x6180002bab80)"><path d="M 143.3 293.0 L 143.0 336.7 C 143.0 342.7 148.2 348.0 154.2 348.0 L 222.4 348.0 C 228.4 348.0 233.0 342.7 233.0 336.7 L 233.0 293.0 C 233.0 287.0 228.4 282.0 222.4 282.0 L 154.2 282.0 C 148.2 282.0 143.3 287.0 143.3 293.0 Z M 143.3 293.0 " fill="#FFC000"></path><path d="M 0.0 54.6 L -0.3 10.9 C -0.3 4.9 4.9 -0.4 10.9 -0.4 L 79.1 -0.4 C 85.1 -0.4 89.7 4.9 89.7 10.9 L 89.7 54.6 C 89.7 60.6 85.1 65.6 79.1 65.6 L 10.9 65.6 C 4.9 65.6 0.0 60.6 0.0 54.6 Z M 0.0 54.6 " fill="none" stroke="#395E89" stroke-width="2.00" stroke-linejoin="bevel" transform="matrix(1.00, 0.00, 0.00, -1.00, 143.3, 347.6)"></path></g></g><g><clipPath id="clip0x6180004a8640"><path d="M 145.2 281.5 L 231.4 281.5 L 231.4 348.2 L 145.2 348.2 Z M 145.2 281.5 "></path></clipPath><g clip-path="url(#clip0x6180004a8640)"><text xml:space="preserve" font-family="Calibri,Calibri" font-size="16.0" fill="#FFFFFF" transform="matrix(1.00, 0.00, -0.00, -1.00, 173.3, 328.6)">W</text><text xml:space="preserve" font-family="Calibri,Calibri" font-size="16.0" fill="#FFFFFF" transform="matrix(1.00, 0.00, -0.00, -1.00, 186.9, 328.6)">e</text><text xml:space="preserve" font-family="Calibri,Calibri" font-size="16.0" fill="#FFFFFF" transform="matrix(1.00, 0.00, -0.00, -1.00, 194.9, 328.6)">b</text><text xml:space="preserve" font-family="Calibri,Calibri" font-size="16.0" fill="#FFFFFF" transform="matrix(1.00, 0.00, -0.00, -1.00, 203.3, 328.6)">	</text><text xml:space="preserve" font-family="Calibri,Calibri" font-size="16.0" fill="#FFFFFF" transform="matrix(1.00, 0.00, -0.00, -1.00, 231.3, 328.6)"></text><text xml:space="preserve" font-family="Calibri,Calibri" font-size="16.0" fill="#FFFFFF" transform="matrix(1.00, 0.00, -0.00, -1.00, 231.3, 328.6)"> </text><text xml:space="preserve" font-family="Calibri,Calibri" font-size="16.0" fill="#FFFFFF" transform="matrix(1.00, 0.00, -0.00, -1.00, 234.3, 328.6)"> </text><text xml:space="preserve" font-family="Calibri,Calibri" font-size="16.0" fill="#FFFFFF" transform="matrix(1.00, 0.00, -0.00, -1.00, 165.0, 309.6)">S</text><text xml:space="preserve" font-family="Calibri,Calibri" font-size="16.0" fill="#FFFFFF" transform="matrix(1.00, 0.00, -0.00, -1.00, 172.3, 309.6)">e</text><text xml:space="preserve" font-family="Calibri,Calibri" font-size="16.0" fill="#FFFFFF" transform="matrix(1.00, 0.00, -0.00, -1.00, 180.3, 309.6)">r</text><text xml:space="preserve" font-family="Calibri,Calibri" font-size="16.0" fill="#FFFFFF" transform="matrix(1.00, 0.00, -0.00, -1.00, 186.0, 309.6)">v</text><text xml:space="preserve" font-family="Calibri,Calibri" font-size="16.0" fill="#FFFFFF" transform="matrix(1.00, 0.00, -0.00, -1.00, 193.2, 309.6)">i</text><text xml:space="preserve" font-family="Calibri,Calibri" font-size="16.0" fill="#FFFFFF" transform="matrix(1.00, 0.00, -0.00, -1.00, 196.9, 309.6)">c</text><text xml:space="preserve" font-family="Calibri,Calibri" font-size="16.0" fill="#FFFFFF" transform="matrix(1.00, 0.00, -0.00, -1.00, 203.6, 309.6)">e</text><text xml:space="preserve" font-family="Calibri,Calibri" font-size="16.0" fill="#FFFFFF" transform="matrix(1.00, 0.00, -0.00, -1.00, 211.6, 309.6)">	</text><text xml:space="preserve" font-family="Calibri,Calibri" font-size="16.0" fill="#FFFFFF" transform="matrix(1.00, 0.00, -0.00, -1.00, 239.6, 309.6)"></text><text xml:space="preserve" font-family="Calibri,Calibri" font-size="16.0" fill="#FFFFFF" transform="matrix(1.00, 0.00, -0.00, -1.00, 239.6, 309.6)"> </text><text xml:space="preserve" font-family="Calibri,Calibri" font-size="16.0" fill="#FFFFFF" transform="matrix(1.00, 0.00, -0.00, -1.00, 243.2, 309.6)"> </text><text xml:space="preserve" font-family="Calibri,Calibri" font-size="16.0" fill="#FFFFFF" transform="matrix(1.00, 0.00, -0.00, -1.00, 160.9, 290.6)">P</text><text xml:space="preserve" font-family="Calibri,Calibri" font-size="16.0" fill="#FFFFFF" transform="matrix(1.00, 0.00, -0.00, -1.00, 169.1, 290.6)">r</text><text xml:space="preserve" font-family="Calibri,Calibri" font-size="16.0" fill="#FFFFFF" transform="matrix(1.00, 0.00, -0.00, -1.00, 174.5, 290.6)">o</text><text xml:space="preserve" font-family="Calibri,Calibri" font-size="16.0" fill="#FFFFFF" transform="matrix(1.00, 0.00, -0.00, -1.00, 182.8, 290.6)">v</text><text xml:space="preserve" font-family="Calibri,Calibri" font-size="16.0" fill="#FFFFFF" transform="matrix(1.00, 0.00, -0.00, -1.00, 190.0, 290.6)">i</text><text xml:space="preserve" font-family="Calibri,Calibri" font-size="16.0" fill="#FFFFFF" transform="matrix(1.00, 0.00, -0.00, -1.00, 193.7, 290.6)">d</text><text xml:space="preserve" font-family="Calibri,Calibri" font-size="16.0" fill="#FFFFFF" transform="matrix(1.00, 0.00, -0.00, -1.00, 202.1, 290.6)">e</text><text xml:space="preserve" font-family="Calibri,Calibri" font-size="16.0" fill="#FFFFFF" transform="matrix(1.00, 0.00, -0.00, -1.00, 210.1, 290.6)">r</text></g></g><g><clipPath id="clip0x6180004a8d60"><path d="M 501.3 280.1 L 595.3 280.1 L 595.3 349.6 L 501.3 349.6 Z M 501.3 280.1 "></path></clipPath><g clip-path="url(#clip0x6180004a8d60)"><path d="M 503.3 293.0 L 503.0 336.7 C 503.0 342.7 508.2 348.0 514.2 348.0 L 582.4 348.0 C 588.4 348.0 593.0 342.7 593.0 336.7 L 593.0 293.0 C 593.0 287.0 588.4 282.0 582.4 282.0 L 514.2 282.0 C 508.2 282.0 503.3 287.0 503.3 293.0 Z M 503.3 293.0 " fill="#FFC000"></path><path d="M 0.0 54.6 L -0.3 10.9 C -0.3 4.9 4.9 -0.4 10.9 -0.4 L 79.1 -0.4 C 85.1 -0.4 89.7 4.9 89.7 10.9 L 89.7 54.6 C 89.7 60.6 85.1 65.6 79.1 65.6 L 10.9 65.6 C 4.9 65.6 0.0 60.6 0.0 54.6 Z M 0.0 54.6 " fill="none" stroke="#395E89" stroke-width="2.00" stroke-linejoin="bevel" transform="matrix(1.00, 0.00, 0.00, -1.00, 503.3, 347.6)"></path></g></g><g><clipPath id="clip0x6180004a9c00"><path d="M 505.2 281.5 L 591.4 281.5 L 591.4 348.2 L 505.2 348.2 Z M 505.2 281.5 "></path></clipPath><g clip-path="url(#clip0x6180004a9c00)"><text xml:space="preserve" font-family="Calibri,Calibri" font-size="16.0" fill="#FFFFFF" transform="matrix(1.00, 0.00, -0.00, -1.00, 533.3, 328.6)">W</text><text xml:space="preserve" font-family="Calibri,Calibri" font-size="16.0" fill="#FFFFFF" transform="matrix(1.00, 0.00, -0.00, -1.00, 546.9, 328.6)">e</text><text xml:space="preserve" font-family="Calibri,Calibri" font-size="16.0" fill="#FFFFFF" transform="matrix(1.00, 0.00, -0.00, -1.00, 554.9, 328.6)">b</text><text xml:space="preserve" font-family="Calibri,Calibri" font-size="16.0" fill="#FFFFFF" transform="matrix(1.00, 0.00, -0.00, -1.00, 563.3, 328.6)">	</text><text xml:space="preserve" font-family="Calibri,Calibri" font-size="16.0" fill="#FFFFFF" transform="matrix(1.00, 0.00, -0.00, -1.00, 591.3, 328.6)"></text><text xml:space="preserve" font-family="Calibri,Calibri" font-size="16.0" fill="#FFFFFF" transform="matrix(1.00, 0.00, -0.00, -1.00, 591.3, 328.6)"> </text><text xml:space="preserve" font-family="Calibri,Calibri" font-size="16.0" fill="#FFFFFF" transform="matrix(1.00, 0.00, -0.00, -1.00, 594.3, 328.6)"> </text><text xml:space="preserve" font-family="Calibri,Calibri" font-size="16.0" fill="#FFFFFF" transform="matrix(1.00, 0.00, -0.00, -1.00, 525.0, 309.6)">S</text><text xml:space="preserve" font-family="Calibri,Calibri" font-size="16.0" fill="#FFFFFF" transform="matrix(1.00, 0.00, -0.00, -1.00, 532.3, 309.6)">e</text><text xml:space="preserve" font-family="Calibri,Calibri" font-size="16.0" fill="#FFFFFF" transform="matrix(1.00, 0.00, -0.00, -1.00, 540.3, 309.6)">r</text><text xml:space="preserve" font-family="Calibri,Calibri" font-size="16.0" fill="#FFFFFF" transform="matrix(1.00, 0.00, -0.00, -1.00, 546.0, 309.6)">v</text><text xml:space="preserve" font-family="Calibri,Calibri" font-size="16.0" fill="#FFFFFF" transform="matrix(1.00, 0.00, -0.00, -1.00, 553.2, 309.6)">i</text><text xml:space="preserve" font-family="Calibri,Calibri" font-size="16.0" fill="#FFFFFF" transform="matrix(1.00, 0.00, -0.00, -1.00, 556.9, 309.6)">c</text><text xml:space="preserve" font-family="Calibri,Calibri" font-size="16.0" fill="#FFFFFF" transform="matrix(1.00, 0.00, -0.00, -1.00, 563.6, 309.6)">e</text><text xml:space="preserve" font-family="Calibri,Calibri" font-size="16.0" fill="#FFFFFF" transform="matrix(1.00, 0.00, -0.00, -1.00, 571.6, 309.6)">	</text><text xml:space="preserve" font-family="Calibri,Calibri" font-size="16.0" fill="#FFFFFF" transform="matrix(1.00, 0.00, -0.00, -1.00, 599.6, 309.6)"></text><text xml:space="preserve" font-family="Calibri,Calibri" font-size="16.0" fill="#FFFFFF" transform="matrix(1.00, 0.00, -0.00, -1.00, 599.6, 309.6)"> </text><text xml:space="preserve" font-family="Calibri,Calibri" font-size="16.0" fill="#FFFFFF" transform="matrix(1.00, 0.00, -0.00, -1.00, 603.2, 309.6)"> </text><text xml:space="preserve" font-family="Calibri,Calibri" font-size="16.0" fill="#FFFFFF" transform="matrix(1.00, 0.00, -0.00, -1.00, 515.1, 290.6)">C</text><text xml:space="preserve" font-family="Calibri,Calibri" font-size="16.0" fill="#FFFFFF" transform="matrix(1.00, 0.00, -0.00, -1.00, 523.6, 290.6)">o</text><text xml:space="preserve" font-family="Calibri,Calibri" font-size="16.0" fill="#FFFFFF" transform="matrix(1.00, 0.00, -0.00, -1.00, 532.1, 290.6)">n</text><text xml:space="preserve" font-family="Calibri,Calibri" font-size="16.0" fill="#FFFFFF" transform="matrix(1.00, 0.00, -0.00, -1.00, 540.5, 290.6)">s</text><text xml:space="preserve" font-family="Calibri,Calibri" font-size="16.0" fill="#FFFFFF" transform="matrix(1.00, 0.00, -0.00, -1.00, 546.8, 290.6)">u</text><text xml:space="preserve" font-family="Calibri,Calibri" font-size="16.0" fill="#FFFFFF" transform="matrix(1.00, 0.00, -0.00, -1.00, 555.2, 290.6)">m</text><text xml:space="preserve" font-family="Calibri,Calibri" font-size="16.0" fill="#FFFFFF" transform="matrix(1.00, 0.00, -0.00, -1.00, 567.9, 290.6)">e</text><text xml:space="preserve" font-family="Calibri,Calibri" font-size="16.0" fill="#FFFFFF" transform="matrix(1.00, 0.00, -0.00, -1.00, 575.9, 290.6)">r</text></g></g><g><clipPath id="clip0x6180004aa3e0"><path d="M 282.3 46.0 L 452.0 46.0 L 452.0 163.6 L 282.3 163.6 Z M 282.3 46.0 "></path></clipPath><g clip-path="url(#clip0x6180004aa3e0)"><path d="M 284.0 162.0 L 450.0 162.0 L 450.0 48.0 L 284.0 48.0 Z M 284.3 161.6 " fill="#4E81BD"></path><path d="M -0.3 -0.4 L 165.7 -0.4 L 165.7 113.6 L -0.3 113.6 Z M 0.0 0.0 " fill="none" stroke="#395E89" stroke-width="2.00" stroke-linejoin="bevel" transform="matrix(1.00, 0.00, 0.00, -1.00, 284.3, 161.6)"></path></g></g><g><clipPath id="clip0x6180004aa2c0"><path d="M 281.8 45.5 L 452.5 45.5 L 452.5 81.7 L 281.8 81.7 Z M 281.8 45.5 "></path></clipPath><g clip-path="url(#clip0x6180004aa2c0)"><text xml:space="preserve" font-family="Calibri,Calibri" font-size="20.0" fill="#FFFFFF" transform="matrix(1.00, 0.00, -0.00, -1.00, 302.7, 57.0)">R</text><text xml:space="preserve" font-family="Calibri,Calibri" font-size="20.0" fill="#FFFFFF" transform="matrix(1.00, 0.00, -0.00, -1.00, 313.2, 57.0)">e</text><text xml:space="preserve" font-family="Calibri,Calibri" font-size="20.0" fill="#FFFFFF" transform="matrix(1.00, 0.00, -0.00, -1.00, 323.1, 57.0)">t</text><text xml:space="preserve" font-family="Calibri,Calibri" font-size="20.0" fill="#FFFFFF" transform="matrix(1.00, 0.00, -0.00, -1.00, 329.5, 57.0)">a</text><text xml:space="preserve" font-family="Calibri,Calibri" font-size="20.0" fill="#FFFFFF" transform="matrix(1.00, 0.00, -0.00, -1.00, 339.1, 57.0)">i</text><text xml:space="preserve" font-family="Calibri,Calibri" font-size="20.0" fill="#FFFFFF" transform="matrix(1.00, 0.00, -0.00, -1.00, 343.7, 57.0)">l</text><text xml:space="preserve" font-family="Calibri,Calibri" font-size="20.0" fill="#FFFFFF" transform="matrix(1.00, 0.00, -0.00, -1.00, 348.3, 57.0)">	</text><text xml:space="preserve" font-family="Calibri,Calibri" font-size="20.0" fill="#FFFFFF" transform="matrix(1.00, 0.00, -0.00, -1.00, 376.3, 57.0)"></text><text xml:space="preserve" font-family="Calibri,Calibri" font-size="20.0" fill="#FFFFFF" transform="matrix(1.00, 0.00, -0.00, -1.00, 376.3, 57.0)"> </text><text xml:space="preserve" font-family="Calibri,Calibri" font-size="20.0" fill="#FFFFFF" transform="matrix(1.00, 0.00, -0.00, -1.00, 380.8, 57.0)"> </text><text xml:space="preserve" font-family="Calibri,Calibri" font-size="20.0" fill="#FFFFFF" transform="matrix(1.00, 0.00, -0.00, -1.00, 385.4, 57.0)">C</text><text xml:space="preserve" font-family="Calibri,Calibri" font-size="20.0" fill="#FFFFFF" transform="matrix(1.00, 0.00, -0.00, -1.00, 396.0, 57.0)">u</text><text xml:space="preserve" font-family="Calibri,Calibri" font-size="20.0" fill="#FFFFFF" transform="matrix(1.00, 0.00, -0.00, -1.00, 406.5, 57.0)">s</text><text xml:space="preserve" font-family="Calibri,Calibri" font-size="20.0" fill="#FFFFFF" transform="matrix(1.00, 0.00, -0.00, -1.00, 414.1, 57.0)">t</text><text xml:space="preserve" font-family="Calibri,Calibri" font-size="20.0" fill="#FFFFFF" transform="matrix(1.00, 0.00, -0.00, -1.00, 420.6, 57.0)">o</text><text xml:space="preserve" font-family="Calibri,Calibri" font-size="20.0" fill="#FFFFFF" transform="matrix(1.00, 0.00, -0.00, -1.00, 431.2, 57.0)">m</text><text xml:space="preserve" font-family="Calibri,Calibri" font-size="20.0" fill="#FFFFFF" transform="matrix(1.00, 0.00, -0.00, -1.00, 447.2, 57.0)">e</text><text xml:space="preserve" font-family="Calibri,Calibri" font-size="20.0" fill="#FFFFFF" transform="matrix(1.00, 0.00, -0.00, -1.00, 457.1, 57.0)">r</text></g></g><g><clipPath id="clip0x6180004b5420"><path d="M 141.3 213.6 L 235.3 213.6 L 235.3 271.6 L 141.3 271.6 Z M 141.3 213.6 "></path></clipPath><g clip-path="url(#clip0x6180004b5420)"><path d="M 143.3 224.6 L 143.0 260.6 C 143.0 265.5 147.3 270.0 152.3 270.0 L 224.3 270.0 C 229.3 270.0 233.0 265.5 233.0 260.6 L 233.0 224.6 C 233.0 219.6 229.3 216.0 224.3 216.0 L 152.3 216.0 C 147.3 216.0 143.3 219.6 143.3 224.6 Z M 143.3 224.6 " fill="#FFC000"></path><path d="M 0.0 45.0 L -0.3 9.0 C -0.3 4.0 4.0 -0.4 9.0 -0.4 L 81.0 -0.4 C 86.0 -0.4 89.7 4.0 89.7 9.0 L 89.7 45.0 C 89.7 50.0 86.0 53.6 81.0 53.6 L 9.0 53.6 C 4.0 53.6 0.0 50.0 0.0 45.0 Z M 0.0 45.0 " fill="none" stroke="#395E89" stroke-width="2.00" stroke-linejoin="bevel" transform="matrix(1.00, 0.00, 0.00, -1.00, 143.3, 269.6)"></path></g></g><g><clipPath id="clip0x6180004b5ba0"><path d="M 143.4 212.5 L 233.2 212.5 L 233.2 272.7 L 143.4 272.7 Z M 143.4 212.5 "></path></clipPath><g clip-path="url(#clip0x6180004b5ba0)"><text xml:space="preserve" font-family="Calibri,Calibri" font-size="20.0" fill="#FFFFFF" transform="matrix(1.00, 0.00, -0.00, -1.00, 169.5, 247.9)">W</text><text xml:space="preserve" font-family="Calibri,Calibri" font-size="20.0" fill="#FFFFFF" transform="matrix(1.00, 0.00, -0.00, -1.00, 186.6, 247.9)">e</text><text xml:space="preserve" font-family="Calibri,Calibri" font-size="20.0" fill="#FFFFFF" transform="matrix(1.00, 0.00, -0.00, -1.00, 196.5, 247.9)">b</text><text xml:space="preserve" font-family="Calibri,Calibri" font-size="20.0" fill="#FFFFFF" transform="matrix(1.00, 0.00, -0.00, -1.00, 207.0, 247.9)">	</text><text xml:space="preserve" font-family="Calibri,Calibri" font-size="20.0" fill="#FFFFFF" transform="matrix(1.00, 0.00, -0.00, -1.00, 235.0, 247.9)"></text><text xml:space="preserve" font-family="Calibri,Calibri" font-size="20.0" fill="#FFFFFF" transform="matrix(1.00, 0.00, -0.00, -1.00, 235.0, 247.9)"> </text><text xml:space="preserve" font-family="Calibri,Calibri" font-size="20.0" fill="#FFFFFF" transform="matrix(1.00, 0.00, -0.00, -1.00, 238.8, 247.9)"> </text><text xml:space="preserve" font-family="Calibri,Calibri" font-size="20.0" fill="#FFFFFF" transform="matrix(1.00, 0.00, -0.00, -1.00, 164.2, 223.9)">P</text><text xml:space="preserve" font-family="Calibri,Calibri" font-size="20.0" fill="#FFFFFF" transform="matrix(1.00, 0.00, -0.00, -1.00, 174.2, 223.9)">o</text><text xml:space="preserve" font-family="Calibri,Calibri" font-size="20.0" fill="#FFFFFF" transform="matrix(1.00, 0.00, -0.00, -1.00, 184.7, 223.9)">r</text><text xml:space="preserve" font-family="Calibri,Calibri" font-size="20.0" fill="#FFFFFF" transform="matrix(1.00, 0.00, -0.00, -1.00, 191.7, 223.9)">t</text><text xml:space="preserve" font-family="Calibri,Calibri" font-size="20.0" fill="#FFFFFF" transform="matrix(1.00, 0.00, -0.00, -1.00, 198.1, 223.9)">a</text><text xml:space="preserve" font-family="Calibri,Calibri" font-size="20.0" fill="#FFFFFF" transform="matrix(1.00, 0.00, -0.00, -1.00, 207.7, 223.9)">l</text></g></g><g><clipPath id="clip0x6180004b5780"><path d="M 501.3 211.5 L 595.3 211.5 L 595.3 269.5 L 501.3 269.5 Z M 501.3 211.5 "></path></clipPath><g clip-path="url(#clip0x6180004b5780)"><path d="M 503.3 222.5 L 503.0 258.5 C 503.0 263.5 507.3 267.0 512.3 267.0 L 584.3 267.0 C 589.3 267.0 593.0 263.5 593.0 258.5 L 593.0 222.5 C 593.0 217.5 589.3 213.0 584.3 213.0 L 512.3 213.0 C 507.3 213.0 503.3 217.5 503.3 222.5 Z M 503.3 222.5 " fill="#FFC000"></path><path d="M 0.0 45.0 L -0.3 9.0 C -0.3 4.0 4.0 0.5 9.0 0.5 L 81.0 0.5 C 86.0 0.5 89.7 4.0 89.7 9.0 L 89.7 45.0 C 89.7 50.0 86.0 54.5 81.0 54.5 L 9.0 54.5 C 4.0 54.5 0.0 50.0 0.0 45.0 Z M 0.0 45.0 " fill="none" stroke="#395E89" stroke-width="2.00" stroke-linejoin="bevel" transform="matrix(1.00, 0.00, 0.00, -1.00, 503.3, 267.5)"></path></g></g><g><clipPath id="clip0x6180004b6680"><path d="M 503.4 210.4 L 593.2 210.4 L 593.2 270.6 L 503.4 270.6 Z M 503.4 210.4 "></path></clipPath><g clip-path="url(#clip0x6180004b6680)"><text xml:space="preserve" font-family="Calibri,Calibri" font-size="20.0" fill="#FFFFFF" transform="matrix(1.00, 0.00, -0.00, -1.00, 529.5, 245.9)">W</text><text xml:space="preserve" font-family="Calibri,Calibri" font-size="20.0" fill="#FFFFFF" transform="matrix(1.00, 0.00, -0.00, -1.00, 546.6, 245.9)">e</text><text xml:space="preserve" font-family="Calibri,Calibri" font-size="20.0" fill="#FFFFFF" transform="matrix(1.00, 0.00, -0.00, -1.00, 556.5, 245.9)">b</text><text xml:space="preserve" font-family="Calibri,Calibri" font-size="20.0" fill="#FFFFFF" transform="matrix(1.00, 0.00, -0.00, -1.00, 567.0, 245.9)">	</text><text xml:space="preserve" font-family="Calibri,Calibri" font-size="20.0" fill="#FFFFFF" transform="matrix(1.00, 0.00, -0.00, -1.00, 595.0, 245.9)"></text><text xml:space="preserve" font-family="Calibri,Calibri" font-size="20.0" fill="#FFFFFF" transform="matrix(1.00, 0.00, -0.00, -1.00, 595.0, 245.9)"> </text><text xml:space="preserve" font-family="Calibri,Calibri" font-size="20.0" fill="#FFFFFF" transform="matrix(1.00, 0.00, -0.00, -1.00, 598.8, 245.9)"> </text><text xml:space="preserve" font-family="Calibri,Calibri" font-size="20.0" fill="#FFFFFF" transform="matrix(1.00, 0.00, -0.00, -1.00, 524.2, 221.9)">P</text><text xml:space="preserve" font-family="Calibri,Calibri" font-size="20.0" fill="#FFFFFF" transform="matrix(1.00, 0.00, -0.00, -1.00, 534.2, 221.9)">o</text><text xml:space="preserve" font-family="Calibri,Calibri" font-size="20.0" fill="#FFFFFF" transform="matrix(1.00, 0.00, -0.00, -1.00, 544.7, 221.9)">r</text><text xml:space="preserve" font-family="Calibri,Calibri" font-size="20.0" fill="#FFFFFF" transform="matrix(1.00, 0.00, -0.00, -1.00, 551.7, 221.9)">t</text><text xml:space="preserve" font-family="Calibri,Calibri" font-size="20.0" fill="#FFFFFF" transform="matrix(1.00, 0.00, -0.00, -1.00, 558.1, 221.9)">a</text><text xml:space="preserve" font-family="Calibri,Calibri" font-size="20.0" fill="#FFFFFF" transform="matrix(1.00, 0.00, -0.00, -1.00, 567.7, 221.9)">l</text></g></g><g><clipPath id="clip0x6180004a2ac0"><path d="M 321.3 87.6 L 415.3 87.6 L 415.3 145.6 L 321.3 145.6 Z M 321.3 87.6 "></path></clipPath><g clip-path="url(#clip0x6180004a2ac0)"><path d="M 323.3 98.6 L 323.0 134.6 C 323.0 139.5 327.3 144.0 332.3 144.0 L 404.3 144.0 C 409.3 144.0 413.0 139.5 413.0 134.6 L 413.0 98.6 C 413.0 93.6 409.3 90.0 404.3 90.0 L 332.3 90.0 C 327.3 90.0 323.3 93.6 323.3 98.6 Z M 323.3 98.6 " fill="#FFC000"></path><path d="M 0.0 45.0 L -0.3 9.0 C -0.3 4.0 4.0 -0.4 9.0 -0.4 L 81.0 -0.4 C 86.0 -0.4 89.7 4.0 89.7 9.0 L 89.7 45.0 C 89.7 50.0 86.0 53.6 81.0 53.6 L 9.0 53.6 C 4.0 53.6 0.0 50.0 0.0 45.0 Z M 0.0 45.0 " fill="none" stroke="#395E89" stroke-width="2.00" stroke-linejoin="bevel" transform="matrix(1.00, 0.00, 0.00, -1.00, 323.3, 143.6)"></path></g></g><g><clipPath id="clip0x6180004a2880"><path d="M 323.4 86.5 L 413.2 86.5 L 413.2 146.7 L 323.4 146.7 Z M 323.4 86.5 "></path></clipPath><g clip-path="url(#clip0x6180004a2880)"><text xml:space="preserve" font-family="Calibri,Calibri" font-size="20.0" fill="#FFFFFF" transform="matrix(1.00, 0.00, -0.00, -1.00, 349.5, 121.9)">U</text><text xml:space="preserve" font-family="Calibri,Calibri" font-size="20.0" fill="#FFFFFF" transform="matrix(1.00, 0.00, -0.00, -1.00, 362.3, 121.9)">s</text><text xml:space="preserve" font-family="Calibri,Calibri" font-size="20.0" fill="#FFFFFF" transform="matrix(1.00, 0.00, -0.00, -1.00, 370.2, 121.9)">e</text><text xml:space="preserve" font-family="Calibri,Calibri" font-size="20.0" fill="#FFFFFF" transform="matrix(1.00, 0.00, -0.00, -1.00, 380.1, 121.9)">r</text><text xml:space="preserve" font-family="Calibri,Calibri" font-size="20.0" fill="#FFFFFF" transform="matrix(1.00, 0.00, -0.00, -1.00, 387.1, 121.9)">	</text><text xml:space="preserve" font-family="Calibri,Calibri" font-size="20.0" fill="#FFFFFF" transform="matrix(1.00, 0.00, -0.00, -1.00, 415.1, 121.9)"></text><text xml:space="preserve" font-family="Calibri,Calibri" font-size="20.0" fill="#FFFFFF" transform="matrix(1.00, 0.00, -0.00, -1.00, 415.1, 121.9)"> </text><text xml:space="preserve" font-family="Calibri,Calibri" font-size="20.0" fill="#FFFFFF" transform="matrix(1.00, 0.00, -0.00, -1.00, 419.6, 121.9)"> </text><text xml:space="preserve" font-family="Calibri,Calibri" font-size="20.0" fill="#FFFFFF" transform="matrix(1.00, 0.00, -0.00, -1.00, 339.3, 97.9)">(</text><text xml:space="preserve" font-family="Calibri,Calibri" font-size="20.0" fill="#FFFFFF" transform="matrix(1.00, 0.00, -0.00, -1.00, 345.4, 97.9)">a</text><text xml:space="preserve" font-family="Calibri,Calibri" font-size="20.0" fill="#FFFFFF" transform="matrix(1.00, 0.00, -0.00, -1.00, 355.0, 97.9)">g</text><text xml:space="preserve" font-family="Calibri,Calibri" font-size="20.0" fill="#FFFFFF" transform="matrix(1.00, 0.00, -0.00, -1.00, 364.2, 97.9)">e</text><text xml:space="preserve" font-family="Calibri,Calibri" font-size="20.0" fill="#FFFFFF" transform="matrix(1.00, 0.00, -0.00, -1.00, 374.2, 97.9)">n</text><text xml:space="preserve" font-family="Calibri,Calibri" font-size="20.0" fill="#FFFFFF" transform="matrix(1.00, 0.00, -0.00, -1.00, 384.5, 97.9)">t</text><text xml:space="preserve" font-family="Calibri,Calibri" font-size="20.0" fill="#FFFFFF" transform="matrix(1.00, 0.00, -0.00, -1.00, 391.2, 97.9)">)</text></g></g><image xlink:href="65C476558C0D83E198621DDAB4B1A005.png" width="148.00" height="112.00" transform="matrix(1.00, 0.00, -0.00, -1.00, 176.9, 215.8)" opacity="0.35"></image><path d="M 0.3 7.6 L 0.3 9.1 L 0.3 98.1 L 124.9 98.1 L 126.3 98.1 " fill="none" stroke="#FF0000" stroke-width="3.00" stroke-linejoin="bevel" transform="matrix(1.00, 0.00, 0.00, -1.00, 188.2, 214.6)"></path><path d="M 322.1 116.5 L 308.4 124.5 L 308.4 124.5 C 307.5 125.0 306.4 124.7 305.9 123.8 C 305.4 123.0 305.7 121.8 306.5 121.3 L 314.8 116.5 L 306.5 111.7 L 306.5 111.7 C 305.7 111.2 305.4 110.0 305.9 109.2 C 306.4 108.3 307.5 108.0 308.4 108.5 C 308.4 108.5 308.4 108.5 308.4 108.5 Z M 322.1 116.5 " fill="#FF0000"></path><path d="M 188.5 214.6 L 180.5 200.9 L 180.5 200.9 C 180.0 200.0 180.3 198.9 181.2 198.4 C 182.0 197.9 183.2 198.2 183.7 199.0 L 188.5 207.3 L 193.3 199.0 L 193.3 199.0 C 193.8 198.2 195.0 197.9 195.8 198.4 C 196.7 198.9 197.0 200.0 196.5 200.9 C 196.5 200.9 196.5 200.9 196.5 200.9 Z M 188.5 214.6 " fill="#FF0000"></path><image xlink:href="067685266303C653034D97E210EB002C.png" width="276.00" height="15.00" transform="matrix(1.00, 0.00, -0.00, -1.03, 230.3, 311.9)" opacity="0.35"></image><path d="M 9.7 0.5 L 11.3 0.5 L 258.7 0.5 L 260.7 0.5 " fill="none" stroke="#0070C0" stroke-width="3.00" stroke-linejoin="bevel" transform="matrix(1.00, 0.00, 0.00, -1.00, 233.3, 306.0)"></path><path d="M 494.3 310.2 L 503.8 305.5 L 494.3 300.8 Z M 494.3 310.2 " fill="#0070C0"></path><path d="M 242.7 300.8 L 233.2 305.5 L 242.7 310.2 Z M 242.7 300.8 " fill="#0070C0"></path><image xlink:href="DF38BF04396A608C4213833E4C1C86B9.png" width="276.00" height="15.00" transform="matrix(1.00, 0.00, -0.00, -1.03, 230.3, 293.9)" opacity="0.35"></image><path d="M 9.7 0.5 L 11.3 0.5 L 258.7 0.5 L 260.7 0.5 " fill="none" stroke="#0070C0" stroke-width="3.00" stroke-linejoin="bevel" stroke-dasharray="12.0, 9.0" transform="matrix(1.00, 0.00, 0.00, -1.00, 233.3, 288.0)"></path><path d="M 494.3 292.2 L 503.8 287.5 L 494.3 282.8 Z M 494.3 292.2 " fill="#0070C0"></path><path d="M 242.7 282.8 L 233.2 287.5 L 242.7 292.2 Z M 242.7 282.8 " fill="#0070C0"></path><image xlink:href="E0232240BD021C9776103FECE2CE5990.png" width="109.00" height="79.00" transform="matrix(1.00, 0.00, -0.00, -1.00, 223.8, 217.4)" opacity="0.35"></image><path d="M 8.3 5.5 L 9.3 6.5 C 36.8 25.8 64.4 45.2 91.9 64.5 L 93.3 65.5 " fill="none" stroke="#0070C0" stroke-width="3.00" stroke-linejoin="bevel" stroke-dasharray="12.0, 9.0" transform="matrix(1.00, 0.00, 0.00, -1.00, 227.7, 215.0)"></path><path d="M 324.0 153.2 L 329.0 143.9 L 318.6 145.4 Z M 324.0 153.2 " fill="#0070C0"></path><path d="M 233.0 205.8 L 228.0 215.1 L 238.4 213.6 Z M 233.0 205.8 " fill="#0070C0"></path><image xlink:href="B6087E294A24396D55F811C91909AC96.png" width="108.00" height="77.00" transform="matrix(1.00, 0.00, -0.00, -1.00, 404.5, 215.3)" opacity="0.35"></image><path d="M 91.6 5.4 L 90.5 6.4 C 63.5 25.1 36.4 43.8 9.3 62.4 L 7.6 63.4 " fill="none" stroke="#0070C0" stroke-width="3.00" stroke-linejoin="bevel" stroke-dasharray="12.0, 9.0" transform="matrix(1.00, 0.00, 0.00, -1.00, 408.4, 212.9)"></path><path d="M 418.4 145.4 L 407.9 143.9 L 413.0 153.2 Z M 418.4 145.4 " fill="#0070C0"></path><path d="M 497.6 211.6 L 508.1 213.1 L 503.0 203.8 Z M 497.6 211.6 " fill="#0070C0"></path><text xml:space="preserve" font-family="ArialMT,Arial" font-size="18.0" fill="#000000" transform="matrix(1.00, 0.00, -0.00, -1.00, 335.9, 245.0)">O</text><text xml:space="preserve" font-family="ArialMT,Arial" font-size="18.0" fill="#000000" transform="matrix(1.00, 0.00, -0.00, -1.00, 349.9, 245.0)">n</text><text xml:space="preserve" font-family="ArialMT,Arial" font-size="18.0" fill="#000000" transform="matrix(1.00, 0.00, -0.00, -1.00, 359.9, 245.0)">e</text><text xml:space="preserve" font-family="ArialMT,Arial" font-size="18.0" fill="#000000" transform="matrix(1.00, 0.00, -0.00, -1.00, 369.9, 245.0)">-</text><text xml:space="preserve" font-family="ArialMT,Arial" font-size="18.0" fill="#000000" transform="matrix(1.00, 0.00, -0.00, -1.00, 375.9, 245.0)">t</text><text xml:space="preserve" font-family="ArialMT,Arial" font-size="18.0" fill="#000000" transform="matrix(1.00, 0.00, -0.00, -1.00, 380.9, 245.0)">i</text><text xml:space="preserve" font-family="ArialMT,Arial" font-size="18.0" fill="#000000" transform="matrix(1.00, 0.00, -0.00, -1.00, 384.9, 245.0)">m</text><text xml:space="preserve" font-family="ArialMT,Arial" font-size="18.0" fill="#000000" transform="matrix(1.00, 0.00, -0.00, -1.00, 399.9, 245.0)">e</text><text xml:space="preserve" font-family="ArialMT,Arial" font-size="18.0" fill="#000000" transform="matrix(1.00, 0.00, -0.00, -1.00, 409.9, 245.0)"> </text><text xml:space="preserve" font-family="ArialMT,Arial" font-size="18.0" fill="#000000" transform="matrix(1.00, 0.00, -0.00, -1.00, 320.4, 224.0)">A</text><text xml:space="preserve" font-family="ArialMT,Arial" font-size="18.0" fill="#000000" transform="matrix(1.00, 0.00, -0.00, -1.00, 332.4, 224.0)">u</text><text xml:space="preserve" font-family="ArialMT,Arial" font-size="18.0" fill="#000000" transform="matrix(1.00, 0.00, -0.00, -1.00, 342.4, 224.0)">t</text><text xml:space="preserve" font-family="ArialMT,Arial" font-size="18.0" fill="#000000" transform="matrix(1.00, 0.00, -0.00, -1.00, 347.4, 224.0)">h</text><text xml:space="preserve" font-family="ArialMT,Arial" font-size="18.0" fill="#000000" transform="matrix(1.00, 0.00, -0.00, -1.00, 357.4, 224.0)">o</text><text xml:space="preserve" font-family="ArialMT,Arial" font-size="18.0" fill="#000000" transform="matrix(1.00, 0.00, -0.00, -1.00, 367.4, 224.0)">r</text><text xml:space="preserve" font-family="ArialMT,Arial" font-size="18.0" fill="#000000" transform="matrix(1.00, 0.00, -0.00, -1.00, 373.4, 224.0)">i</text><text xml:space="preserve" font-family="ArialMT,Arial" font-size="18.0" fill="#000000" transform="matrix(1.00, 0.00, -0.00, -1.00, 377.4, 224.0)">z</text><text xml:space="preserve" font-family="ArialMT,Arial" font-size="18.0" fill="#000000" transform="matrix(1.00, 0.00, -0.00, -1.00, 386.4, 224.0)">a</text><text xml:space="preserve" font-family="ArialMT,Arial" font-size="18.0" fill="#000000" transform="matrix(1.00, 0.00, -0.00, -1.00, 396.4, 224.0)">t</text><text xml:space="preserve" font-family="ArialMT,Arial" font-size="18.0" fill="#000000" transform="matrix(1.00, 0.00, -0.00, -1.00, 401.4, 224.0)">i</text><text xml:space="preserve" font-family="ArialMT,Arial" font-size="18.0" fill="#000000" transform="matrix(1.00, 0.00, -0.00, -1.00, 405.4, 224.0)">o</text><text xml:space="preserve" font-family="ArialMT,Arial" font-size="18.0" fill="#000000" transform="matrix(1.00, 0.00, -0.00, -1.00, 415.4, 224.0)">n</text><text xml:space="preserve" font-family="ArialMT,Arial" font-size="18.0" fill="#000000" transform="matrix(1.00, 0.00, -0.00, -1.00, 284.8, 314.9)">A</text><text xml:space="preserve" font-family="ArialMT,Arial" font-size="18.0" fill="#000000" transform="matrix(1.00, 0.00, -0.00, -1.00, 296.8, 314.9)">u</text><text xml:space="preserve" font-family="ArialMT,Arial" font-size="18.0" fill="#000000" transform="matrix(1.00, 0.00, -0.00, -1.00, 306.9, 314.9)">t</text><text xml:space="preserve" font-family="ArialMT,Arial" font-size="18.0" fill="#000000" transform="matrix(1.00, 0.00, -0.00, -1.00, 311.9, 314.9)">o</text><text xml:space="preserve" font-family="ArialMT,Arial" font-size="18.0" fill="#000000" transform="matrix(1.00, 0.00, -0.00, -1.00, 321.9, 314.9)">m</text><text xml:space="preserve" font-family="ArialMT,Arial" font-size="18.0" fill="#000000" transform="matrix(1.00, 0.00, -0.00, -1.00, 336.9, 314.9)">a</text><text xml:space="preserve" font-family="ArialMT,Arial" font-size="18.0" fill="#000000" transform="matrix(1.00, 0.00, -0.00, -1.00, 346.9, 314.9)">t</text><text xml:space="preserve" font-family="ArialMT,Arial" font-size="18.0" fill="#000000" transform="matrix(1.00, 0.00, -0.00, -1.00, 351.9, 314.9)">e</text><text xml:space="preserve" font-family="ArialMT,Arial" font-size="18.0" fill="#000000" transform="matrix(1.00, 0.00, -0.00, -1.00, 361.9, 314.9)">d</text><text xml:space="preserve" font-family="ArialMT,Arial" font-size="18.0" fill="#000000" transform="matrix(1.00, 0.00, -0.00, -1.00, 371.9, 314.9)"> </text><text xml:space="preserve" font-family="ArialMT,Arial" font-size="18.0" fill="#000000" transform="matrix(1.00, 0.00, -0.00, -1.00, 376.6, 314.9)">T</text><text xml:space="preserve" font-family="ArialMT,Arial" font-size="18.0" fill="#000000" transform="matrix(1.00, 0.00, -0.00, -1.00, 386.9, 314.9)">r</text><text xml:space="preserve" font-family="ArialMT,Arial" font-size="18.0" fill="#000000" transform="matrix(1.00, 0.00, -0.00, -1.00, 392.9, 314.9)">a</text><text xml:space="preserve" font-family="ArialMT,Arial" font-size="18.0" fill="#000000" transform="matrix(1.00, 0.00, -0.00, -1.00, 402.9, 314.9)">n</text><text xml:space="preserve" font-family="ArialMT,Arial" font-size="18.0" fill="#000000" transform="matrix(1.00, 0.00, -0.00, -1.00, 412.9, 314.9)">s</text><text xml:space="preserve" font-family="ArialMT,Arial" font-size="18.0" fill="#000000" transform="matrix(1.00, 0.00, -0.00, -1.00, 421.9, 314.9)">f</text><text xml:space="preserve" font-family="ArialMT,Arial" font-size="18.0" fill="#000000" transform="matrix(1.00, 0.00, -0.00, -1.00, 426.9, 314.9)">e</text><text xml:space="preserve" font-family="ArialMT,Arial" font-size="18.0" fill="#000000" transform="matrix(1.00, 0.00, -0.00, -1.00, 436.9, 314.9)">r</text><path d="M 0.0 0.0 L 23.1 0.0 " fill="none" stroke="#0070C0" stroke-width="0.75" stroke-linejoin="bevel" transform="matrix(-0.85, -0.52, -0.52, 0.85, 310.0, 215.6)"></path><path d="M 0.0 0.0 L 21.6 0.0 " fill="none" stroke="#0070C0" stroke-width="0.75" stroke-linejoin="bevel" transform="matrix(0.83, -0.55, -0.55, -0.83, 428.3, 215.6)"></path><path d="M 0.4 -0.4 L 33.4 -0.4 " fill="none" stroke="#0070C0" stroke-width="0.75" stroke-linejoin="bevel" transform="matrix(0.00, 1.00, 1.00, 0.00, 372.9, 257.6)"></path><image xlink:href="22564D522C65F14B8DC3BB4C44524C92.png" width="276.00" height="15.00" transform="matrix(1.00, 0.00, -0.00, -1.03, 231.0, 342.3)" opacity="0.35"></image><path d="M 10.0 -0.1 L 11.3 -0.1 L 258.7 -0.1 L 260.0 -0.1 " fill="none" stroke="#66FF99" stroke-width="3.00" stroke-linejoin="bevel" transform="matrix(1.00, 0.00, 0.00, -1.00, 234.0, 336.4)"></path><path d="M 494.3 341.2 L 503.8 336.5 L 494.3 331.8 Z M 494.3 341.2 " fill="#66FF99"></path><path d="M 243.7 331.8 L 234.2 336.5 L 243.7 341.2 Z M 243.7 331.8 " fill="#66FF99"></path><text xml:space="preserve" font-family="ArialMT,Arial" font-size="18.0" fill="#000000" transform="matrix(1.00, 0.00, -0.00, -1.00, 273.6, 345.3)">T</text><text xml:space="preserve" font-family="ArialMT,Arial" font-size="18.0" fill="#000000" transform="matrix(1.00, 0.00, -0.00, -1.00, 284.6, 345.3)">h</text><text xml:space="preserve" font-family="ArialMT,Arial" font-size="18.0" fill="#000000" transform="matrix(1.00, 0.00, -0.00, -1.00, 294.6, 345.3)">i</text><text xml:space="preserve" font-family="ArialMT,Arial" font-size="18.0" fill="#000000" transform="matrix(1.00, 0.00, -0.00, -1.00, 298.6, 345.3)">r</text><text xml:space="preserve" font-family="ArialMT,Arial" font-size="18.0" fill="#000000" transform="matrix(1.00, 0.00, -0.00, -1.00, 304.6, 345.3)">d</text><text xml:space="preserve" font-family="ArialMT,Arial" font-size="18.0" fill="#000000" transform="matrix(1.00, 0.00, -0.00, -1.00, 314.6, 345.3)"> </text><text xml:space="preserve" font-family="ArialMT,Arial" font-size="18.0" fill="#000000" transform="matrix(1.00, 0.00, -0.00, -1.00, 319.6, 345.3)">P</text><text xml:space="preserve" font-family="ArialMT,Arial" font-size="18.0" fill="#000000" transform="matrix(1.00, 0.00, -0.00, -1.00, 331.6, 345.3)">a</text><text xml:space="preserve" font-family="ArialMT,Arial" font-size="18.0" fill="#000000" transform="matrix(1.00, 0.00, -0.00, -1.00, 341.6, 345.3)">r</text><text xml:space="preserve" font-family="ArialMT,Arial" font-size="18.0" fill="#000000" transform="matrix(1.00, 0.00, -0.00, -1.00, 347.6, 345.3)">t</text><text xml:space="preserve" font-family="ArialMT,Arial" font-size="18.0" fill="#000000" transform="matrix(1.00, 0.00, -0.00, -1.00, 352.6, 345.3)">y</text><text xml:space="preserve" font-family="ArialMT,Arial" font-size="18.0" fill="#000000" transform="matrix(1.00, 0.00, -0.00, -1.00, 361.6, 345.3)"> </text><text xml:space="preserve" font-family="ArialMT,Arial" font-size="18.0" fill="#000000" transform="matrix(1.00, 0.00, -0.00, -1.00, 366.6, 345.3)">R</text><text xml:space="preserve" font-family="ArialMT,Arial" font-size="18.0" fill="#000000" transform="matrix(1.00, 0.00, -0.00, -1.00, 379.6, 345.3)">e</text><text xml:space="preserve" font-family="ArialMT,Arial" font-size="18.0" fill="#000000" transform="matrix(1.00, 0.00, -0.00, -1.00, 389.6, 345.3)">g</text><text xml:space="preserve" font-family="ArialMT,Arial" font-size="18.0" fill="#000000" transform="matrix(1.00, 0.00, -0.00, -1.00, 399.7, 345.3)">i</text><text xml:space="preserve" font-family="ArialMT,Arial" font-size="18.0" fill="#000000" transform="matrix(1.00, 0.00, -0.00, -1.00, 403.7, 345.3)">s</text><text xml:space="preserve" font-family="ArialMT,Arial" font-size="18.0" fill="#000000" transform="matrix(1.00, 0.00, -0.00, -1.00, 412.7, 345.3)">t</text><text xml:space="preserve" font-family="ArialMT,Arial" font-size="18.0" fill="#000000" transform="matrix(1.00, 0.00, -0.00, -1.00, 417.7, 345.3)">r</text><text xml:space="preserve" font-family="ArialMT,Arial" font-size="18.0" fill="#000000" transform="matrix(1.00, 0.00, -0.00, -1.00, 423.6, 345.3)">a</text><text xml:space="preserve" font-family="ArialMT,Arial" font-size="18.0" fill="#000000" transform="matrix(1.00, 0.00, -0.00, -1.00, 433.7, 345.3)">t</text><text xml:space="preserve" font-family="ArialMT,Arial" font-size="18.0" fill="#000000" transform="matrix(1.00, 0.00, -0.00, -1.00, 438.7, 345.3)">i</text><text xml:space="preserve" font-family="ArialMT,Arial" font-size="18.0" fill="#000000" transform="matrix(1.00, 0.00, -0.00, -1.00, 442.7, 345.3)">o</text><text xml:space="preserve" font-family="ArialMT,Arial" font-size="18.0" fill="#000000" transform="matrix(1.00, 0.00, -0.00, -1.00, 452.7, 345.3)">n</text><image xlink:href="628305CA6A634029A1BCBDA3D3B3056F.png" width="486.00" height="228.00" transform="matrix(0.33, 0.00, -0.00, -0.33, 110.8, 122.6)"></image><image xlink:href="951BB6F13A06BA731BC968C061F6617F.png" width="462.00" height="235.00" transform="matrix(0.33, 0.00, -0.00, -0.33, 286.8, 443.0)"></image></g></svg>