<?xml version="1.0" encoding="UTF-8" standalone="no"?><svg xmlns="http://www.w3.org/2000/svg" xmlns:xlink="http://www.w3.org/1999/xlink" clip-rule="evenodd" stroke-miterlimit="10" viewBox="0 0 720 540"><desc>SVG generated by Keynote</desc><defs></defs><g transform="matrix(1.00, 0.00, -0.00, -1.00, 0.0, 540.0)"><g><clipPath id="clip0x6080054a97e0"><path d="M 0.0 540.0 L 720.0 540.0 L 720.0 0.0 L 0.0 0.0 Z M 0.0 540.0 "></path></clipPath><g clip-path="url(#clip0x6080054a97e0)"><image xlink:href="4B4E6B2ABEA2F54B1A29F0D67E783FAA.jpeg" width="1500.00" height="1125.00" transform="matrix(0.48, 0.00, -0.00, -0.48, 0.0, 540.0)"></image></g></g><image xlink:href="4269B1647B48C2333CA1F43A723777F3.png" width="256.00" height="311.00" transform="matrix(0.19, 0.00, -0.00, -0.19, 666.0, 540.0)"></image><image xlink:href="61049784BBE1B839B0094D764A3AB5CA.png" width="619.00" height="175.00" transform="matrix(1.00, 0.00, -0.00, -1.00, 50.0, 414.0)"></image><text xml:space="preserve" font-family="Arial-BoldMT,Arial" font-weight="bold" font-size="36.0" fill="#0B5D73" transform="matrix(1.00, 0.00, -0.00, -1.00, 47.7, 433.3)">T</text><text xml:space="preserve" font-family="Arial-BoldMT,Arial" font-weight="bold" font-size="36.0" fill="#0B5D73" transform="matrix(1.00, 0.00, -0.00, -1.00, 69.7, 433.3)">h</text><text xml:space="preserve" font-family="Arial-BoldMT,Arial" font-weight="bold" font-size="36.0" fill="#0B5D73" transform="matrix(1.00, 0.00, -0.00, -1.00, 91.7, 433.3)">e</text><text xml:space="preserve" font-family="Arial-BoldMT,Arial" font-weight="bold" font-size="36.0" fill="#0B5D73" transform="matrix(1.00, 0.00, -0.00, -1.00, 111.7, 433.3)"> </text><text xml:space="preserve" font-family="Arial-BoldMT,Arial" font-weight="bold" font-size="36.0" fill="#0B5D73" transform="matrix(1.00, 0.00, -0.00, -1.00, 121.7, 433.3)">G</text><text xml:space="preserve" font-family="Arial-BoldMT,Arial" font-weight="bold" font-size="36.0" fill="#0B5D73" transform="matrix(1.00, 0.00, -0.00, -1.00, 149.7, 433.3)">r</text><text xml:space="preserve" font-family="Arial-BoldMT,Arial" font-weight="bold" font-size="36.0" fill="#0B5D73" transform="matrix(1.00, 0.00, -0.00, -1.00, 163.7, 433.3)">e</text><text xml:space="preserve" font-family="Arial-BoldMT,Arial" font-weight="bold" font-size="36.0" fill="#0B5D73" transform="matrix(1.00, 0.00, -0.00, -1.00, 183.7, 433.3)">e</text><text xml:space="preserve" font-family="Arial-BoldMT,Arial" font-weight="bold" font-size="36.0" fill="#0B5D73" transform="matrix(1.00, 0.00, -0.00, -1.00, 203.8, 433.3)">n</text><text xml:space="preserve" font-family="Arial-BoldMT,Arial" font-weight="bold" font-size="36.0" fill="#0B5D73" transform="matrix(1.00, 0.00, -0.00, -1.00, 225.8, 433.3)"> </text><text xml:space="preserve" font-family="Arial-BoldMT,Arial" font-weight="bold" font-size="36.0" fill="#0B5D73" transform="matrix(1.00, 0.00, -0.00, -1.00, 235.8, 433.3)">B</text><text xml:space="preserve" font-family="Arial-BoldMT,Arial" font-weight="bold" font-size="36.0" fill="#0B5D73" transform="matrix(1.00, 0.00, -0.00, -1.00, 261.8, 433.3)">u</text><text xml:space="preserve" font-family="Arial-BoldMT,Arial" font-weight="bold" font-size="36.0" fill="#0B5D73" transform="matrix(1.00, 0.00, -0.00, -1.00, 283.7, 433.3)">t</text><text xml:space="preserve" font-family="Arial-BoldMT,Arial" font-weight="bold" font-size="36.0" fill="#0B5D73" transform="matrix(1.00, 0.00, -0.00, -1.00, 295.7, 433.3)">t</text><text xml:space="preserve" font-family="Arial-BoldMT,Arial" font-weight="bold" font-size="36.0" fill="#0B5D73" transform="matrix(1.00, 0.00, -0.00, -1.00, 307.7, 433.3)">o</text><text xml:space="preserve" font-family="Arial-BoldMT,Arial" font-weight="bold" font-size="36.0" fill="#0B5D73" transform="matrix(1.00, 0.00, -0.00, -1.00, 329.7, 433.3)">n</text><text xml:space="preserve" font-family="Arial-BoldMT,Arial" font-weight="bold" font-size="36.0" fill="#0B5D73" transform="matrix(1.00, 0.00, -0.00, -1.00, 351.7, 433.3)"> </text><text xml:space="preserve" font-family="Arial-BoldMT,Arial" font-weight="bold" font-size="36.0" fill="#0B5D73" transform="matrix(1.00, 0.00, -0.00, -1.00, 361.7, 433.3)">I</text><text xml:space="preserve" font-family="Arial-BoldMT,Arial" font-weight="bold" font-size="36.0" fill="#0B5D73" transform="matrix(1.00, 0.00, -0.00, -1.00, 371.7, 433.3)">n</text><text xml:space="preserve" font-family="Arial-BoldMT,Arial" font-weight="bold" font-size="36.0" fill="#0B5D73" transform="matrix(1.00, 0.00, -0.00, -1.00, 393.7, 433.3)">i</text><text xml:space="preserve" font-family="Arial-BoldMT,Arial" font-weight="bold" font-size="36.0" fill="#0B5D73" transform="matrix(1.00, 0.00, -0.00, -1.00, 403.7, 433.3)">t</text><text xml:space="preserve" font-family="Arial-BoldMT,Arial" font-weight="bold" font-size="36.0" fill="#0B5D73" transform="matrix(1.00, 0.00, -0.00, -1.00, 415.6, 433.3)">i</text><text xml:space="preserve" font-family="Arial-BoldMT,Arial" font-weight="bold" font-size="36.0" fill="#0B5D73" transform="matrix(1.00, 0.00, -0.00, -1.00, 425.6, 433.3)">a</text><text xml:space="preserve" font-family="Arial-BoldMT,Arial" font-weight="bold" font-size="36.0" fill="#0B5D73" transform="matrix(1.00, 0.00, -0.00, -1.00, 445.7, 433.3)">t</text><text xml:space="preserve" font-family="Arial-BoldMT,Arial" font-weight="bold" font-size="36.0" fill="#0B5D73" transform="matrix(1.00, 0.00, -0.00, -1.00, 457.7, 433.3)">i</text><text xml:space="preserve" font-family="Arial-BoldMT,Arial" font-weight="bold" font-size="36.0" fill="#0B5D73" transform="matrix(1.00, 0.00, -0.00, -1.00, 467.6, 433.3)">v</text><text xml:space="preserve" font-family="Arial-BoldMT,Arial" font-weight="bold" font-size="36.0" fill="#0B5D73" transform="matrix(1.00, 0.00, -0.00, -1.00, 487.7, 433.3)">e</text><text xml:space="preserve" font-family="Arial-BoldMT,Arial" font-weight="bold" font-size="24.0" fill="#09418B" transform="matrix(1.00, 0.00, -0.00, -1.00, 179.8, 190.3)">J</text><text xml:space="preserve" font-family="Arial-BoldMT,Arial" font-weight="bold" font-size="24.0" fill="#09418B" transform="matrix(1.00, 0.00, -0.00, -1.00, 193.2, 190.3)">o</text><text xml:space="preserve" font-family="Arial-BoldMT,Arial" font-weight="bold" font-size="24.0" fill="#09418B" transform="matrix(1.00, 0.00, -0.00, -1.00, 207.8, 190.3)">h</text><text xml:space="preserve" font-family="Arial-BoldMT,Arial" font-weight="bold" font-size="24.0" fill="#09418B" transform="matrix(1.00, 0.00, -0.00, -1.00, 222.5, 190.3)">n</text><text xml:space="preserve" font-family="Arial-BoldMT,Arial" font-weight="bold" font-size="24.0" fill="#09418B" transform="matrix(1.00, 0.00, -0.00, -1.00, 237.1, 190.3)"> </text><text xml:space="preserve" font-family="Arial-BoldMT,Arial" font-weight="bold" font-size="24.0" fill="#09418B" transform="matrix(1.00, 0.00, -0.00, -1.00, 243.8, 190.3)">T</text><text xml:space="preserve" font-family="Arial-BoldMT,Arial" font-weight="bold" font-size="24.0" fill="#09418B" transform="matrix(1.00, 0.00, -0.00, -1.00, 256.7, 190.3)">e</text><text xml:space="preserve" font-family="Arial-BoldMT,Arial" font-weight="bold" font-size="24.0" fill="#09418B" transform="matrix(1.00, 0.00, -0.00, -1.00, 270.0, 190.3)">e</text><text xml:space="preserve" font-family="Arial-BoldMT,Arial" font-weight="bold" font-size="24.0" fill="#09418B" transform="matrix(1.00, 0.00, -0.00, -1.00, 283.4, 190.3)">t</text><text xml:space="preserve" font-family="Arial-BoldMT,Arial" font-weight="bold" font-size="24.0" fill="#09418B" transform="matrix(1.00, 0.00, -0.00, -1.00, 291.4, 190.3)">e</text><text xml:space="preserve" font-family="Arial-BoldMT,Arial" font-weight="bold" font-size="24.0" fill="#09418B" transform="matrix(1.00, 0.00, -0.00, -1.00, 304.7, 190.3)">r</text><text xml:space="preserve" font-family="Arial-BoldMT,Arial" font-weight="bold" font-size="24.0" fill="#09418B" transform="matrix(1.00, 0.00, -0.00, -1.00, 312.7, 190.3)">,</text><text xml:space="preserve" font-family="Arial-BoldMT,Arial" font-weight="bold" font-size="24.0" fill="#09418B" transform="matrix(1.00, 0.00, -0.00, -1.00, 319.4, 190.3)"> </text><text xml:space="preserve" font-family="Arial-BoldMT,Arial" font-weight="bold" font-size="24.0" fill="#0000FF" transform="matrix(1.00, 0.00, -0.00, -1.00, 326.1, 190.3)">j</text><text xml:space="preserve" font-family="Arial-BoldMT,Arial" font-weight="bold" font-size="24.0" fill="#0000FF" transform="matrix(1.00, 0.00, -0.00, -1.00, 332.7, 190.3)">o</text><text xml:space="preserve" font-family="Arial-BoldMT,Arial" font-weight="bold" font-size="24.0" fill="#0000FF" transform="matrix(1.00, 0.00, -0.00, -1.00, 347.4, 190.3)">h</text><text xml:space="preserve" font-family="Arial-BoldMT,Arial" font-weight="bold" font-size="24.0" fill="#0000FF" transform="matrix(1.00, 0.00, -0.00, -1.00, 362.1, 190.3)">n</text><text xml:space="preserve" font-family="Arial-BoldMT,Arial" font-weight="bold" font-size="24.0" fill="#0000FF" transform="matrix(1.00, 0.00, -0.00, -1.00, 376.7, 190.3)">.</text><text xml:space="preserve" font-family="Arial-BoldMT,Arial" font-weight="bold" font-size="24.0" fill="#0000FF" transform="matrix(1.00, 0.00, -0.00, -1.00, 383.4, 190.3)">t</text><text xml:space="preserve" font-family="Arial-BoldMT,Arial" font-weight="bold" font-size="24.0" fill="#0000FF" transform="matrix(1.00, 0.00, -0.00, -1.00, 391.4, 190.3)">e</text><text xml:space="preserve" font-family="Arial-BoldMT,Arial" font-weight="bold" font-size="24.0" fill="#0000FF" transform="matrix(1.00, 0.00, -0.00, -1.00, 404.7, 190.3)">e</text><text xml:space="preserve" font-family="Arial-BoldMT,Arial" font-weight="bold" font-size="24.0" fill="#0000FF" transform="matrix(1.00, 0.00, -0.00, -1.00, 418.1, 190.3)">t</text><text xml:space="preserve" font-family="Arial-BoldMT,Arial" font-weight="bold" font-size="24.0" fill="#0000FF" transform="matrix(1.00, 0.00, -0.00, -1.00, 426.1, 190.3)">e</text><text xml:space="preserve" font-family="Arial-BoldMT,Arial" font-weight="bold" font-size="24.0" fill="#0000FF" transform="matrix(1.00, 0.00, -0.00, -1.00, 439.4, 190.3)">r</text><text xml:space="preserve" font-family="Arial-BoldMT,Arial" font-weight="bold" font-size="24.0" fill="#0000FF" transform="matrix(1.00, 0.00, -0.00, -1.00, 448.8, 190.3)">@</text><text xml:space="preserve" font-family="Arial-BoldMT,Arial" font-weight="bold" font-size="24.0" fill="#0000FF" transform="matrix(1.00, 0.00, -0.00, -1.00, 472.2, 190.3)">n</text><text xml:space="preserve" font-family="Arial-BoldMT,Arial" font-weight="bold" font-size="24.0" fill="#0000FF" transform="matrix(1.00, 0.00, -0.00, -1.00, 486.8, 190.3)">i</text><text xml:space="preserve" font-family="Arial-BoldMT,Arial" font-weight="bold" font-size="24.0" fill="#0000FF" transform="matrix(1.00, 0.00, -0.00, -1.00, 493.5, 190.3)">s</text><text xml:space="preserve" font-family="Arial-BoldMT,Arial" font-weight="bold" font-size="24.0" fill="#0000FF" transform="matrix(1.00, 0.00, -0.00, -1.00, 506.8, 190.3)">t</text><text xml:space="preserve" font-family="Arial-BoldMT,Arial" font-weight="bold" font-size="24.0" fill="#0000FF" transform="matrix(1.00, 0.00, -0.00, -1.00, 514.8, 190.3)">.</text><text xml:space="preserve" font-family="Arial-BoldMT,Arial" font-weight="bold" font-size="24.0" fill="#0000FF" transform="matrix(1.00, 0.00, -0.00, -1.00, 521.5, 190.3)">g</text><text xml:space="preserve" font-family="Arial-BoldMT,Arial" font-weight="bold" font-size="24.0" fill="#0000FF" transform="matrix(1.00, 0.00, -0.00, -1.00, 536.2, 190.3)">o</text><text xml:space="preserve" font-family="Arial-BoldMT,Arial" font-weight="bold" font-size="24.0" fill="#0000FF" transform="matrix(1.00, 0.00, -0.00, -1.00, 550.8, 190.3)">v</text><text xml:space="preserve" font-family="Arial-BoldMT,Arial" font-weight="bold" font-size="24.0" fill="#09418B" transform="matrix(1.00, 0.00, -0.00, -1.00, 564.2, 190.3)"> </text><g><clipPath id="clip0x6080054a9d80"><path d="M 325.1 185.5 L 564.2 185.5 L 564.2 190.0 L 325.1 190.0 Z M 325.1 185.5 "></path></clipPath><g clip-path="url(#clip0x6080054a9d80)"><path d="M 326.1 28.3 L 564.2 28.3 " fill="none" stroke="#0000FF" stroke-width="2.52" transform="matrix(1.00, 0.00, 0.00, -1.00, 0.0, 216.0)"></path></g></g><text xml:space="preserve" font-family="Arial-BoldMT,Arial" font-weight="bold" font-size="24.0" fill="#09418B" transform="matrix(1.00, 0.00, -0.00, -1.00, 164.3, 156.5)">M</text><text xml:space="preserve" font-family="Arial-BoldMT,Arial" font-weight="bold" font-size="24.0" fill="#09418B" transform="matrix(1.00, 0.00, -0.00, -1.00, 184.3, 156.5)">a</text><text xml:space="preserve" font-family="Arial-BoldMT,Arial" font-weight="bold" font-size="24.0" fill="#09418B" transform="matrix(1.00, 0.00, -0.00, -1.00, 197.6, 156.5)">r</text><text xml:space="preserve" font-family="Arial-BoldMT,Arial" font-weight="bold" font-size="24.0" fill="#09418B" transform="matrix(1.00, 0.00, -0.00, -1.00, 207.0, 156.5)">t</text><text xml:space="preserve" font-family="Arial-BoldMT,Arial" font-weight="bold" font-size="24.0" fill="#09418B" transform="matrix(1.00, 0.00, -0.00, -1.00, 215.0, 156.5)">y</text><text xml:space="preserve" font-family="Arial-BoldMT,Arial" font-weight="bold" font-size="24.0" fill="#09418B" transform="matrix(1.00, 0.00, -0.00, -1.00, 228.3, 156.5)"> </text><text xml:space="preserve" font-family="Arial-BoldMT,Arial" font-weight="bold" font-size="24.0" fill="#09418B" transform="matrix(1.00, 0.00, -0.00, -1.00, 235.0, 156.5)">B</text><text xml:space="preserve" font-family="Arial-BoldMT,Arial" font-weight="bold" font-size="24.0" fill="#09418B" transform="matrix(1.00, 0.00, -0.00, -1.00, 252.3, 156.5)">u</text><text xml:space="preserve" font-family="Arial-BoldMT,Arial" font-weight="bold" font-size="24.0" fill="#09418B" transform="matrix(1.00, 0.00, -0.00, -1.00, 267.0, 156.5)">r</text><text xml:space="preserve" font-family="Arial-BoldMT,Arial" font-weight="bold" font-size="24.0" fill="#09418B" transform="matrix(1.00, 0.00, -0.00, -1.00, 276.3, 156.5)">n</text><text xml:space="preserve" font-family="Arial-BoldMT,Arial" font-weight="bold" font-size="24.0" fill="#09418B" transform="matrix(1.00, 0.00, -0.00, -1.00, 291.0, 156.5)">s</text><text xml:space="preserve" font-family="Arial-BoldMT,Arial" font-weight="bold" font-size="24.0" fill="#09418B" transform="matrix(1.00, 0.00, -0.00, -1.00, 304.3, 156.5)">,</text><text xml:space="preserve" font-family="Arial-BoldMT,Arial" font-weight="bold" font-size="24.0" fill="#09418B" transform="matrix(1.00, 0.00, -0.00, -1.00, 311.0, 156.5)"> </text><text xml:space="preserve" font-family="Arial-BoldMT,Arial" font-weight="bold" font-size="24.0" fill="#0000FF" transform="matrix(1.00, 0.00, -0.00, -1.00, 317.6, 156.5)">m</text><text xml:space="preserve" font-family="Arial-BoldMT,Arial" font-weight="bold" font-size="24.0" fill="#0000FF" transform="matrix(1.00, 0.00, -0.00, -1.00, 339.0, 156.5)">a</text><text xml:space="preserve" font-family="Arial-BoldMT,Arial" font-weight="bold" font-size="24.0" fill="#0000FF" transform="matrix(1.00, 0.00, -0.00, -1.00, 352.3, 156.5)">r</text><text xml:space="preserve" font-family="Arial-BoldMT,Arial" font-weight="bold" font-size="24.0" fill="#0000FF" transform="matrix(1.00, 0.00, -0.00, -1.00, 361.7, 156.5)">t</text><text xml:space="preserve" font-family="Arial-BoldMT,Arial" font-weight="bold" font-size="24.0" fill="#0000FF" transform="matrix(1.00, 0.00, -0.00, -1.00, 369.7, 156.5)">i</text><text xml:space="preserve" font-family="Arial-BoldMT,Arial" font-weight="bold" font-size="24.0" fill="#0000FF" transform="matrix(1.00, 0.00, -0.00, -1.00, 376.3, 156.5)">n</text><text xml:space="preserve" font-family="Arial-BoldMT,Arial" font-weight="bold" font-size="24.0" fill="#0000FF" transform="matrix(1.00, 0.00, -0.00, -1.00, 391.0, 156.5)">.</text><text xml:space="preserve" font-family="Arial-BoldMT,Arial" font-weight="bold" font-size="24.0" fill="#0000FF" transform="matrix(1.00, 0.00, -0.00, -1.00, 397.7, 156.5)">b</text><text xml:space="preserve" font-family="Arial-BoldMT,Arial" font-weight="bold" font-size="24.0" fill="#0000FF" transform="matrix(1.00, 0.00, -0.00, -1.00, 412.3, 156.5)">u</text><text xml:space="preserve" font-family="Arial-BoldMT,Arial" font-weight="bold" font-size="24.0" fill="#0000FF" transform="matrix(1.00, 0.00, -0.00, -1.00, 427.0, 156.5)">r</text><text xml:space="preserve" font-family="Arial-BoldMT,Arial" font-weight="bold" font-size="24.0" fill="#0000FF" transform="matrix(1.00, 0.00, -0.00, -1.00, 436.3, 156.5)">n</text><text xml:space="preserve" font-family="Arial-BoldMT,Arial" font-weight="bold" font-size="24.0" fill="#0000FF" transform="matrix(1.00, 0.00, -0.00, -1.00, 451.0, 156.5)">s</text><text xml:space="preserve" font-family="Arial-BoldMT,Arial" font-weight="bold" font-size="24.0" fill="#0000FF" transform="matrix(1.00, 0.00, -0.00, -1.00, 464.3, 156.5)">@</text><text xml:space="preserve" font-family="Arial-BoldMT,Arial" font-weight="bold" font-size="24.0" fill="#0000FF" transform="matrix(1.00, 0.00, -0.00, -1.00, 487.7, 156.5)">n</text><text xml:space="preserve" font-family="Arial-BoldMT,Arial" font-weight="bold" font-size="24.0" fill="#0000FF" transform="matrix(1.00, 0.00, -0.00, -1.00, 502.4, 156.5)">i</text><text xml:space="preserve" font-family="Arial-BoldMT,Arial" font-weight="bold" font-size="24.0" fill="#0000FF" transform="matrix(1.00, 0.00, -0.00, -1.00, 509.0, 156.5)">s</text><text xml:space="preserve" font-family="Arial-BoldMT,Arial" font-weight="bold" font-size="24.0" fill="#0000FF" transform="matrix(1.00, 0.00, -0.00, -1.00, 522.4, 156.5)">t</text><text xml:space="preserve" font-family="Arial-BoldMT,Arial" font-weight="bold" font-size="24.0" fill="#0000FF" transform="matrix(1.00, 0.00, -0.00, -1.00, 530.4, 156.5)">.</text><text xml:space="preserve" font-family="Arial-BoldMT,Arial" font-weight="bold" font-size="24.0" fill="#0000FF" transform="matrix(1.00, 0.00, -0.00, -1.00, 537.0, 156.5)">g</text><text xml:space="preserve" font-family="Arial-BoldMT,Arial" font-weight="bold" font-size="24.0" fill="#0000FF" transform="matrix(1.00, 0.00, -0.00, -1.00, 551.7, 156.5)">o</text><text xml:space="preserve" font-family="Arial-BoldMT,Arial" font-weight="bold" font-size="24.0" fill="#0000FF" transform="matrix(1.00, 0.00, -0.00, -1.00, 566.4, 156.5)">v</text><text xml:space="preserve" font-family="Arial-BoldMT,Arial" font-weight="bold" font-size="24.0" fill="#09418B" transform="matrix(1.00, 0.00, -0.00, -1.00, 579.7, 156.5)"> </text><text xml:space="preserve" font-family="ArialMT,Arial" font-size="24.0" fill="#878787" transform="matrix(1.00, 0.00, -0.00, -1.00, 586.4, 156.5)"> </text><g><clipPath id="clip0x608004ab11c0"><path d="M 316.6 151.7 L 579.7 151.7 L 579.7 156.2 L 316.6 156.2 Z M 316.6 151.7 "></path></clipPath><g clip-path="url(#clip0x608004ab11c0)"><path d="M 317.6 62.0 L 579.7 62.0 " fill="none" stroke="#0000FF" stroke-width="2.52" transform="matrix(1.00, 0.00, 0.00, -1.00, 0.0, 216.0)"></path></g></g><text xml:space="preserve" font-family="Arial-BoldMT,Arial" font-weight="bold" font-size="24.0" fill="#09418B" transform="matrix(1.00, 0.00, -0.00, -1.00, 52.6, 122.8)">S</text><text xml:space="preserve" font-family="Arial-BoldMT,Arial" font-weight="bold" font-size="24.0" fill="#09418B" transform="matrix(1.00, 0.00, -0.00, -1.00, 68.6, 122.8)">m</text><text xml:space="preserve" font-family="Arial-BoldMT,Arial" font-weight="bold" font-size="24.0" fill="#09418B" transform="matrix(1.00, 0.00, -0.00, -1.00, 89.9, 122.8)">a</text><text xml:space="preserve" font-family="Arial-BoldMT,Arial" font-weight="bold" font-size="24.0" fill="#09418B" transform="matrix(1.00, 0.00, -0.00, -1.00, 103.3, 122.8)">r</text><text xml:space="preserve" font-family="Arial-BoldMT,Arial" font-weight="bold" font-size="24.0" fill="#09418B" transform="matrix(1.00, 0.00, -0.00, -1.00, 112.6, 122.8)">t</text><text xml:space="preserve" font-family="Arial-BoldMT,Arial" font-weight="bold" font-size="24.0" fill="#09418B" transform="matrix(1.00, 0.00, -0.00, -1.00, 120.6, 122.8)"> </text><text xml:space="preserve" font-family="Arial-BoldMT,Arial" font-weight="bold" font-size="24.0" fill="#09418B" transform="matrix(1.00, 0.00, -0.00, -1.00, 127.3, 122.8)">G</text><text xml:space="preserve" font-family="Arial-BoldMT,Arial" font-weight="bold" font-size="24.0" fill="#09418B" transform="matrix(1.00, 0.00, -0.00, -1.00, 145.9, 122.8)">r</text><text xml:space="preserve" font-family="Arial-BoldMT,Arial" font-weight="bold" font-size="24.0" fill="#09418B" transform="matrix(1.00, 0.00, -0.00, -1.00, 155.3, 122.8)">i</text><text xml:space="preserve" font-family="Arial-BoldMT,Arial" font-weight="bold" font-size="24.0" fill="#09418B" transform="matrix(1.00, 0.00, -0.00, -1.00, 161.9, 122.8)">d</text><text xml:space="preserve" font-family="Arial-BoldMT,Arial" font-weight="bold" font-size="24.0" fill="#09418B" transform="matrix(1.00, 0.00, -0.00, -1.00, 176.6, 122.8)"> </text><text xml:space="preserve" font-family="Arial-BoldMT,Arial" font-weight="bold" font-size="24.0" fill="#09418B" transform="matrix(1.00, 0.00, -0.00, -1.00, 183.2, 122.8)">a</text><text xml:space="preserve" font-family="Arial-BoldMT,Arial" font-weight="bold" font-size="24.0" fill="#09418B" transform="matrix(1.00, 0.00, -0.00, -1.00, 196.6, 122.8)">n</text><text xml:space="preserve" font-family="Arial-BoldMT,Arial" font-weight="bold" font-size="24.0" fill="#09418B" transform="matrix(1.00, 0.00, -0.00, -1.00, 211.3, 122.8)">d</text><text xml:space="preserve" font-family="Arial-BoldMT,Arial" font-weight="bold" font-size="24.0" fill="#09418B" transform="matrix(1.00, 0.00, -0.00, -1.00, 225.9, 122.8)"> </text><text xml:space="preserve" font-family="Arial-BoldMT,Arial" font-weight="bold" font-size="24.0" fill="#09418B" transform="matrix(1.00, 0.00, -0.00, -1.00, 232.6, 122.8)">C</text><text xml:space="preserve" font-family="Arial-BoldMT,Arial" font-weight="bold" font-size="24.0" fill="#09418B" transform="matrix(1.00, 0.00, -0.00, -1.00, 249.9, 122.8)">y</text><text xml:space="preserve" font-family="Arial-BoldMT,Arial" font-weight="bold" font-size="24.0" fill="#09418B" transform="matrix(1.00, 0.00, -0.00, -1.00, 263.3, 122.8)">b</text><text xml:space="preserve" font-family="Arial-BoldMT,Arial" font-weight="bold" font-size="24.0" fill="#09418B" transform="matrix(1.00, 0.00, -0.00, -1.00, 277.9, 122.8)">e</text><text xml:space="preserve" font-family="Arial-BoldMT,Arial" font-weight="bold" font-size="24.0" fill="#09418B" transform="matrix(1.00, 0.00, -0.00, -1.00, 291.3, 122.8)">r</text><text xml:space="preserve" font-family="Arial-BoldMT,Arial" font-weight="bold" font-size="24.0" fill="#09418B" transform="matrix(1.00, 0.00, -0.00, -1.00, 300.6, 122.8)">-</text><text xml:space="preserve" font-family="Arial-BoldMT,Arial" font-weight="bold" font-size="24.0" fill="#09418B" transform="matrix(1.00, 0.00, -0.00, -1.00, 308.6, 122.8)">P</text><text xml:space="preserve" font-family="Arial-BoldMT,Arial" font-weight="bold" font-size="24.0" fill="#09418B" transform="matrix(1.00, 0.00, -0.00, -1.00, 324.6, 122.8)">h</text><text xml:space="preserve" font-family="Arial-BoldMT,Arial" font-weight="bold" font-size="24.0" fill="#09418B" transform="matrix(1.00, 0.00, -0.00, -1.00, 339.3, 122.8)">y</text><text xml:space="preserve" font-family="Arial-BoldMT,Arial" font-weight="bold" font-size="24.0" fill="#09418B" transform="matrix(1.00, 0.00, -0.00, -1.00, 352.6, 122.8)">s</text><text xml:space="preserve" font-family="Arial-BoldMT,Arial" font-weight="bold" font-size="24.0" fill="#09418B" transform="matrix(1.00, 0.00, -0.00, -1.00, 366.0, 122.8)">i</text><text xml:space="preserve" font-family="Arial-BoldMT,Arial" font-weight="bold" font-size="24.0" fill="#09418B" transform="matrix(1.00, 0.00, -0.00, -1.00, 372.6, 122.8)">c</text><text xml:space="preserve" font-family="Arial-BoldMT,Arial" font-weight="bold" font-size="24.0" fill="#09418B" transform="matrix(1.00, 0.00, -0.00, -1.00, 386.0, 122.8)">a</text><text xml:space="preserve" font-family="Arial-BoldMT,Arial" font-weight="bold" font-size="24.0" fill="#09418B" transform="matrix(1.00, 0.00, -0.00, -1.00, 399.3, 122.8)">l</text><text xml:space="preserve" font-family="Arial-BoldMT,Arial" font-weight="bold" font-size="24.0" fill="#09418B" transform="matrix(1.00, 0.00, -0.00, -1.00, 406.0, 122.8)"> </text><text xml:space="preserve" font-family="Arial-BoldMT,Arial" font-weight="bold" font-size="24.0" fill="#09418B" transform="matrix(1.00, 0.00, -0.00, -1.00, 412.7, 122.8)">S</text><text xml:space="preserve" font-family="Arial-BoldMT,Arial" font-weight="bold" font-size="24.0" fill="#09418B" transform="matrix(1.00, 0.00, -0.00, -1.00, 428.7, 122.8)">y</text><text xml:space="preserve" font-family="Arial-BoldMT,Arial" font-weight="bold" font-size="24.0" fill="#09418B" transform="matrix(1.00, 0.00, -0.00, -1.00, 442.0, 122.8)">s</text><text xml:space="preserve" font-family="Arial-BoldMT,Arial" font-weight="bold" font-size="24.0" fill="#09418B" transform="matrix(1.00, 0.00, -0.00, -1.00, 455.4, 122.8)">t</text><text xml:space="preserve" font-family="Arial-BoldMT,Arial" font-weight="bold" font-size="24.0" fill="#09418B" transform="matrix(1.00, 0.00, -0.00, -1.00, 463.4, 122.8)">e</text><text xml:space="preserve" font-family="Arial-BoldMT,Arial" font-weight="bold" font-size="24.0" fill="#09418B" transform="matrix(1.00, 0.00, -0.00, -1.00, 476.7, 122.8)">m</text><text xml:space="preserve" font-family="Arial-BoldMT,Arial" font-weight="bold" font-size="24.0" fill="#09418B" transform="matrix(1.00, 0.00, -0.00, -1.00, 498.1, 122.8)">s</text><text xml:space="preserve" font-family="Arial-BoldMT,Arial" font-weight="bold" font-size="24.0" fill="#09418B" transform="matrix(1.00, 0.00, -0.00, -1.00, 511.4, 122.8)"> </text><text xml:space="preserve" font-family="Arial-BoldMT,Arial" font-weight="bold" font-size="24.0" fill="#09418B" transform="matrix(1.00, 0.00, -0.00, -1.00, 518.1, 122.8)">P</text><text xml:space="preserve" font-family="Arial-BoldMT,Arial" font-weight="bold" font-size="24.0" fill="#09418B" transform="matrix(1.00, 0.00, -0.00, -1.00, 534.1, 122.8)">r</text><text xml:space="preserve" font-family="Arial-BoldMT,Arial" font-weight="bold" font-size="24.0" fill="#09418B" transform="matrix(1.00, 0.00, -0.00, -1.00, 543.4, 122.8)">o</text><text xml:space="preserve" font-family="Arial-BoldMT,Arial" font-weight="bold" font-size="24.0" fill="#09418B" transform="matrix(1.00, 0.00, -0.00, -1.00, 558.1, 122.8)">g</text><text xml:space="preserve" font-family="Arial-BoldMT,Arial" font-weight="bold" font-size="24.0" fill="#09418B" transform="matrix(1.00, 0.00, -0.00, -1.00, 572.8, 122.8)">r</text><text xml:space="preserve" font-family="Arial-BoldMT,Arial" font-weight="bold" font-size="24.0" fill="#09418B" transform="matrix(1.00, 0.00, -0.00, -1.00, 582.1, 122.8)">a</text><text xml:space="preserve" font-family="Arial-BoldMT,Arial" font-weight="bold" font-size="24.0" fill="#09418B" transform="matrix(1.00, 0.00, -0.00, -1.00, 595.4, 122.8)">m</text><text xml:space="preserve" font-family="Arial-BoldMT,Arial" font-weight="bold" font-size="24.0" fill="#09418B" transform="matrix(1.00, 0.00, -0.00, -1.00, 616.8, 122.8)"> </text><text xml:space="preserve" font-family="Arial-BoldMT,Arial" font-weight="bold" font-size="24.0" fill="#09418B" transform="matrix(1.00, 0.00, -0.00, -1.00, 623.5, 122.8)">O</text><text xml:space="preserve" font-family="Arial-BoldMT,Arial" font-weight="bold" font-size="24.0" fill="#09418B" transform="matrix(1.00, 0.00, -0.00, -1.00, 642.1, 122.8)">f</text><text xml:space="preserve" font-family="Arial-BoldMT,Arial" font-weight="bold" font-size="24.0" fill="#09418B" transform="matrix(1.00, 0.00, -0.00, -1.00, 650.1, 122.8)">f</text><text xml:space="preserve" font-family="Arial-BoldMT,Arial" font-weight="bold" font-size="24.0" fill="#09418B" transform="matrix(1.00, 0.00, -0.00, -1.00, 658.1, 122.8)">i</text><text xml:space="preserve" font-family="Arial-BoldMT,Arial" font-weight="bold" font-size="24.0" fill="#09418B" transform="matrix(1.00, 0.00, -0.00, -1.00, 664.8, 122.8)">c</text><text xml:space="preserve" font-family="Arial-BoldMT,Arial" font-weight="bold" font-size="24.0" fill="#09418B" transform="matrix(1.00, 0.00, -0.00, -1.00, 678.1, 122.8)">e</text><text xml:space="preserve" font-family="LucidaGrande-Bold,Lucida Grande" font-weight="bold" font-size="24.0" fill="#09418B" transform="matrix(1.00, 0.00, -0.00, -1.00, 691.4, 122.8)"> </text><text xml:space="preserve" font-family="Arial-BoldMT,Arial" font-weight="bold" font-size="24.0" fill="#09418B" transform="matrix(1.00, 0.00, -0.00, -1.00, 203.5, 94.8)">E</text><text xml:space="preserve" font-family="Arial-BoldMT,Arial" font-weight="bold" font-size="24.0" fill="#09418B" transform="matrix(1.00, 0.00, -0.00, -1.00, 219.5, 94.8)">n</text><text xml:space="preserve" font-family="Arial-BoldMT,Arial" font-weight="bold" font-size="24.0" fill="#09418B" transform="matrix(1.00, 0.00, -0.00, -1.00, 234.2, 94.8)">g</text><text xml:space="preserve" font-family="Arial-BoldMT,Arial" font-weight="bold" font-size="24.0" fill="#09418B" transform="matrix(1.00, 0.00, -0.00, -1.00, 248.9, 94.8)">i</text><text xml:space="preserve" font-family="Arial-BoldMT,Arial" font-weight="bold" font-size="24.0" fill="#09418B" transform="matrix(1.00, 0.00, -0.00, -1.00, 255.5, 94.8)">n</text><text xml:space="preserve" font-family="Arial-BoldMT,Arial" font-weight="bold" font-size="24.0" fill="#09418B" transform="matrix(1.00, 0.00, -0.00, -1.00, 270.2, 94.8)">e</text><text xml:space="preserve" font-family="Arial-BoldMT,Arial" font-weight="bold" font-size="24.0" fill="#09418B" transform="matrix(1.00, 0.00, -0.00, -1.00, 283.5, 94.8)">e</text><text xml:space="preserve" font-family="Arial-BoldMT,Arial" font-weight="bold" font-size="24.0" fill="#09418B" transform="matrix(1.00, 0.00, -0.00, -1.00, 296.9, 94.8)">r</text><text xml:space="preserve" font-family="Arial-BoldMT,Arial" font-weight="bold" font-size="24.0" fill="#09418B" transform="matrix(1.00, 0.00, -0.00, -1.00, 306.2, 94.8)">i</text><text xml:space="preserve" font-family="Arial-BoldMT,Arial" font-weight="bold" font-size="24.0" fill="#09418B" transform="matrix(1.00, 0.00, -0.00, -1.00, 312.9, 94.8)">n</text><text xml:space="preserve" font-family="Arial-BoldMT,Arial" font-weight="bold" font-size="24.0" fill="#09418B" transform="matrix(1.00, 0.00, -0.00, -1.00, 327.5, 94.8)">g</text><text xml:space="preserve" font-family="Arial-BoldMT,Arial" font-weight="bold" font-size="24.0" fill="#09418B" transform="matrix(1.00, 0.00, -0.00, -1.00, 342.2, 94.8)"> </text><text xml:space="preserve" font-family="Arial-BoldMT,Arial" font-weight="bold" font-size="24.0" fill="#09418B" transform="matrix(1.00, 0.00, -0.00, -1.00, 348.9, 94.8)">L</text><text xml:space="preserve" font-family="Arial-BoldMT,Arial" font-weight="bold" font-size="24.0" fill="#09418B" transform="matrix(1.00, 0.00, -0.00, -1.00, 363.5, 94.8)">a</text><text xml:space="preserve" font-family="Arial-BoldMT,Arial" font-weight="bold" font-size="24.0" fill="#09418B" transform="matrix(1.00, 0.00, -0.00, -1.00, 376.9, 94.8)">b</text><text xml:space="preserve" font-family="Arial-BoldMT,Arial" font-weight="bold" font-size="24.0" fill="#09418B" transform="matrix(1.00, 0.00, -0.00, -1.00, 391.5, 94.8)">o</text><text xml:space="preserve" font-family="Arial-BoldMT,Arial" font-weight="bold" font-size="24.0" fill="#09418B" transform="matrix(1.00, 0.00, -0.00, -1.00, 406.2, 94.8)">r</text><text xml:space="preserve" font-family="Arial-BoldMT,Arial" font-weight="bold" font-size="24.0" fill="#09418B" transform="matrix(1.00, 0.00, -0.00, -1.00, 415.5, 94.8)">a</text><text xml:space="preserve" font-family="Arial-BoldMT,Arial" font-weight="bold" font-size="24.0" fill="#09418B" transform="matrix(1.00, 0.00, -0.00, -1.00, 428.9, 94.8)">t</text><text xml:space="preserve" font-family="Arial-BoldMT,Arial" font-weight="bold" font-size="24.0" fill="#09418B" transform="matrix(1.00, 0.00, -0.00, -1.00, 436.9, 94.8)">o</text><text xml:space="preserve" font-family="Arial-BoldMT,Arial" font-weight="bold" font-size="24.0" fill="#09418B" transform="matrix(1.00, 0.00, -0.00, -1.00, 451.5, 94.8)">r</text><text xml:space="preserve" font-family="Arial-BoldMT,Arial" font-weight="bold" font-size="24.0" fill="#09418B" transform="matrix(1.00, 0.00, -0.00, -1.00, 460.9, 94.8)">y</text><text xml:space="preserve" font-family="Arial-BoldMT,Arial" font-weight="bold" font-size="24.0" fill="#09418B" transform="matrix(1.00, 0.00, -0.00, -1.00, 472.4, 94.8)">,</text><text xml:space="preserve" font-family="Arial-BoldMT,Arial" font-weight="bold" font-size="24.0" fill="#09418B" transform="matrix(1.00, 0.00, -0.00, -1.00, 479.1, 94.8)"> </text><text xml:space="preserve" font-family="Arial-BoldMT,Arial" font-weight="bold" font-size="24.0" fill="#09418B" transform="matrix(1.00, 0.00, -0.00, -1.00, 485.8, 94.8)">N</text><text xml:space="preserve" font-family="Arial-BoldMT,Arial" font-weight="bold" font-size="24.0" fill="#09418B" transform="matrix(1.00, 0.00, -0.00, -1.00, 503.1, 94.8)">I</text><text xml:space="preserve" font-family="Arial-BoldMT,Arial" font-weight="bold" font-size="24.0" fill="#09418B" transform="matrix(1.00, 0.00, -0.00, -1.00, 509.8, 94.8)">S</text><text xml:space="preserve" font-family="Arial-BoldMT,Arial" font-weight="bold" font-size="24.0" fill="#09418B" transform="matrix(1.00, 0.00, -0.00, -1.00, 525.8, 94.8)">T</text><text xml:space="preserve" font-family="ArialMT,Arial" font-size="24.0" fill="#878787" transform="matrix(1.00, 0.00, -0.00, -1.00, 540.5, 94.8)"> </text><text xml:space="preserve" font-family="ArialMT,Arial" font-size="16.0" fill="#FFFFFF" transform="matrix(1.00, 0.00, -0.00, -1.00, 99.6, 253.8)">w</text><text xml:space="preserve" font-family="ArialMT,Arial" font-size="16.0" fill="#FFFFFF" transform="matrix(1.00, 0.00, -0.00, -1.00, 111.2, 253.8)">w</text><text xml:space="preserve" font-family="ArialMT,Arial" font-size="16.0" fill="#FFFFFF" transform="matrix(1.00, 0.00, -0.00, -1.00, 122.7, 253.8)">w</text><text xml:space="preserve" font-family="ArialMT,Arial" font-size="16.0" fill="#FFFFFF" transform="matrix(1.00, 0.00, -0.00, -1.00, 133.4, 253.8)">.</text><text xml:space="preserve" font-family="ArialMT,Arial" font-size="16.0" fill="#FFFFFF" transform="matrix(1.00, 0.00, -0.00, -1.00, 137.8, 253.8)">g</text><text xml:space="preserve" font-family="ArialMT,Arial" font-size="16.0" fill="#FFFFFF" transform="matrix(1.00, 0.00, -0.00, -1.00, 146.7, 253.8)">r</text><text xml:space="preserve" font-family="ArialMT,Arial" font-size="16.0" fill="#FFFFFF" transform="matrix(1.00, 0.00, -0.00, -1.00, 152.1, 253.8)">e</text><text xml:space="preserve" font-family="ArialMT,Arial" font-size="16.0" fill="#FFFFFF" transform="matrix(1.00, 0.00, -0.00, -1.00, 161.0, 253.8)">e</text><text xml:space="preserve" font-family="ArialMT,Arial" font-size="16.0" fill="#FFFFFF" transform="matrix(1.00, 0.00, -0.00, -1.00, 169.9, 253.8)">n</text><text xml:space="preserve" font-family="ArialMT,Arial" font-size="16.0" fill="#FFFFFF" transform="matrix(1.00, 0.00, -0.00, -1.00, 178.8, 253.8)">b</text><text xml:space="preserve" font-family="ArialMT,Arial" font-size="16.0" fill="#FFFFFF" transform="matrix(1.00, 0.00, -0.00, -1.00, 187.7, 253.8)">u</text><text xml:space="preserve" font-family="ArialMT,Arial" font-size="16.0" fill="#FFFFFF" transform="matrix(1.00, 0.00, -0.00, -1.00, 196.6, 253.8)">t</text><text xml:space="preserve" font-family="ArialMT,Arial" font-size="16.0" fill="#FFFFFF" transform="matrix(1.00, 0.00, -0.00, -1.00, 201.0, 253.8)">t</text><text xml:space="preserve" font-family="ArialMT,Arial" font-size="16.0" fill="#FFFFFF" transform="matrix(1.00, 0.00, -0.00, -1.00, 205.5, 253.8)">o</text><text xml:space="preserve" font-family="ArialMT,Arial" font-size="16.0" fill="#FFFFFF" transform="matrix(1.00, 0.00, -0.00, -1.00, 214.4, 253.8)">n</text><text xml:space="preserve" font-family="ArialMT,Arial" font-size="16.0" fill="#FFFFFF" transform="matrix(1.00, 0.00, -0.00, -1.00, 223.3, 253.8)">d</text><text xml:space="preserve" font-family="ArialMT,Arial" font-size="16.0" fill="#FFFFFF" transform="matrix(1.00, 0.00, -0.00, -1.00, 232.2, 253.8)">a</text><text xml:space="preserve" font-family="ArialMT,Arial" font-size="16.0" fill="#FFFFFF" transform="matrix(1.00, 0.00, -0.00, -1.00, 241.1, 253.8)">t</text><text xml:space="preserve" font-family="ArialMT,Arial" font-size="16.0" fill="#FFFFFF" transform="matrix(1.00, 0.00, -0.00, -1.00, 245.5, 253.8)">a</text><text xml:space="preserve" font-family="ArialMT,Arial" font-size="16.0" fill="#FFFFFF" transform="matrix(1.00, 0.00, -0.00, -1.00, 254.4, 253.8)">.</text><text xml:space="preserve" font-family="ArialMT,Arial" font-size="16.0" fill="#FFFFFF" transform="matrix(1.00, 0.00, -0.00, -1.00, 258.8, 253.8)">o</text><text xml:space="preserve" font-family="ArialMT,Arial" font-size="16.0" fill="#FFFFFF" transform="matrix(1.00, 0.00, -0.00, -1.00, 267.7, 253.8)">r</text><text xml:space="preserve" font-family="ArialMT,Arial" font-size="16.0" fill="#FFFFFF" transform="matrix(1.00, 0.00, -0.00, -1.00, 273.1, 253.8)">g</text></g></svg>