<?xml version="1.0" encoding="UTF-8" standalone="no"?><svg xmlns="http://www.w3.org/2000/svg" xmlns:xlink="http://www.w3.org/1999/xlink" clip-rule="evenodd" stroke-miterlimit="10" viewBox="0 0 720 540"><desc>SVG generated by Keynote</desc><defs></defs><g transform="matrix(1.00, 0.00, -0.00, -1.00, 0.0, 540.0)"><g><clipPath id="clip0x6080034b28a0"><path d="M 0.0 540.0 L 720.0 540.0 L 720.0 0.0 L 0.0 0.0 Z M 0.0 540.0 "></path></clipPath><g clip-path="url(#clip0x6080034b28a0)"><image xlink:href="../../6C8CA873-4094-4AAB-84FA-98B434A53252/assets/FB9F438063C152C41BBF80E1AC3A0F64.jpeg" width="1500.00" height="1125.00" transform="matrix(0.48, 0.00, -0.00, -0.48, 0.0, 540.0)"></image></g></g><image xlink:href="../../6C8CA873-4094-4AAB-84FA-98B434A53252/assets/4269B1647B48C2333CA1F43A723777F3.png" width="256.00" height="311.00" transform="matrix(0.19, 0.00, -0.00, -0.19, 666.0, 540.0)"></image><text xml:space="preserve" font-family="Arial-BoldMT,Arial" font-weight="bold" font-size="36.0" fill="#0B5D73" transform="matrix(1.00, 0.00, -0.00, -1.00, 39.6, 479.6)">G</text><text xml:space="preserve" font-family="Arial-BoldMT,Arial" font-weight="bold" font-size="36.0" fill="#0B5D73" transform="matrix(1.00, 0.00, -0.00, -1.00, 67.6, 479.6)">r</text><text xml:space="preserve" font-family="Arial-BoldMT,Arial" font-weight="bold" font-size="36.0" fill="#0B5D73" transform="matrix(1.00, 0.00, -0.00, -1.00, 81.6, 479.6)">e</text><text xml:space="preserve" font-family="Arial-BoldMT,Arial" font-weight="bold" font-size="36.0" fill="#0B5D73" transform="matrix(1.00, 0.00, -0.00, -1.00, 101.6, 479.6)">e</text><text xml:space="preserve" font-family="Arial-BoldMT,Arial" font-weight="bold" font-size="36.0" fill="#0B5D73" transform="matrix(1.00, 0.00, -0.00, -1.00, 121.7, 479.6)">n</text><text xml:space="preserve" font-family="Arial-BoldMT,Arial" font-weight="bold" font-size="36.0" fill="#0B5D73" transform="matrix(1.00, 0.00, -0.00, -1.00, 143.7, 479.6)"> </text><text xml:space="preserve" font-family="Arial-BoldMT,Arial" font-weight="bold" font-size="36.0" fill="#0B5D73" transform="matrix(1.00, 0.00, -0.00, -1.00, 153.6, 479.6)">B</text><text xml:space="preserve" font-family="Arial-BoldMT,Arial" font-weight="bold" font-size="36.0" fill="#0B5D73" transform="matrix(1.00, 0.00, -0.00, -1.00, 179.7, 479.6)">u</text><text xml:space="preserve" font-family="Arial-BoldMT,Arial" font-weight="bold" font-size="36.0" fill="#0B5D73" transform="matrix(1.00, 0.00, -0.00, -1.00, 201.6, 479.6)">t</text><text xml:space="preserve" font-family="Arial-BoldMT,Arial" font-weight="bold" font-size="36.0" fill="#0B5D73" transform="matrix(1.00, 0.00, -0.00, -1.00, 213.6, 479.6)">t</text><text xml:space="preserve" font-family="Arial-BoldMT,Arial" font-weight="bold" font-size="36.0" fill="#0B5D73" transform="matrix(1.00, 0.00, -0.00, -1.00, 225.6, 479.6)">o</text><text xml:space="preserve" font-family="Arial-BoldMT,Arial" font-weight="bold" font-size="36.0" fill="#0B5D73" transform="matrix(1.00, 0.00, -0.00, -1.00, 247.6, 479.6)">n</text><text xml:space="preserve" font-family="Arial-BoldMT,Arial" font-weight="bold" font-size="36.0" fill="#0B5D73" transform="matrix(1.00, 0.00, -0.00, -1.00, 269.6, 479.6)"> </text><text xml:space="preserve" font-family="Arial-BoldMT,Arial" font-weight="bold" font-size="36.0" fill="#0B5D73" transform="matrix(1.00, 0.00, -0.00, -1.00, 279.6, 479.6)">C</text><text xml:space="preserve" font-family="Arial-BoldMT,Arial" font-weight="bold" font-size="36.0" fill="#0B5D73" transform="matrix(1.00, 0.00, -0.00, -1.00, 305.6, 479.6)">M</text><text xml:space="preserve" font-family="Arial-BoldMT,Arial" font-weight="bold" font-size="36.0" fill="#0B5D73" transform="matrix(1.00, 0.00, -0.00, -1.00, 335.6, 479.6)">D</text><text xml:space="preserve" font-family="Arial-BoldMT,Arial" font-weight="bold" font-size="36.0" fill="#0B5D73" transform="matrix(1.00, 0.00, -0.00, -1.00, 361.6, 479.6)"> </text><text xml:space="preserve" font-family="Arial-BoldMT,Arial" font-weight="bold" font-size="36.0" fill="#0B5D73" transform="matrix(1.00, 0.00, -0.00, -1.00, 371.6, 479.6)">L</text><text xml:space="preserve" font-family="Arial-BoldMT,Arial" font-weight="bold" font-size="36.0" fill="#0B5D73" transform="matrix(1.00, 0.00, -0.00, -1.00, 393.5, 479.6)">i</text><text xml:space="preserve" font-family="Arial-BoldMT,Arial" font-weight="bold" font-size="36.0" fill="#0B5D73" transform="matrix(1.00, 0.00, -0.00, -1.00, 403.5, 479.6)">v</text><text xml:space="preserve" font-family="Arial-BoldMT,Arial" font-weight="bold" font-size="36.0" fill="#0B5D73" transform="matrix(1.00, 0.00, -0.00, -1.00, 423.6, 479.6)">e</text><text xml:space="preserve" font-family="Arial-BoldMT,Arial" font-weight="bold" font-size="36.0" fill="#0B5D73" transform="matrix(1.00, 0.00, -0.00, -1.00, 443.6, 479.6)"> </text><text xml:space="preserve" font-family="Arial-BoldMT,Arial" font-weight="bold" font-size="36.0" fill="#0B5D73" transform="matrix(1.00, 0.00, -0.00, -1.00, 452.3, 479.6)">A</text><text xml:space="preserve" font-family="Arial-BoldMT,Arial" font-weight="bold" font-size="36.0" fill="#0B5D73" transform="matrix(1.00, 0.00, -0.00, -1.00, 478.3, 479.6)">P</text><text xml:space="preserve" font-family="Arial-BoldMT,Arial" font-weight="bold" font-size="36.0" fill="#0B5D73" transform="matrix(1.00, 0.00, -0.00, -1.00, 502.3, 479.6)">I</text><text xml:space="preserve" font-family="ArialMT,Arial" font-size="12.0" fill="#878787" transform="matrix(1.00, 0.00, -0.00, -1.00, 667.1, 20.8)">4</text><text xml:space="preserve" font-family="ArialMT,Arial" font-size="12.0" fill="#878787" transform="matrix(1.00, 0.00, -0.00, -1.00, 673.7, 20.8)">5</text><image xlink:href="../../D6EDC165-672F-45E0-8C4F-0467215A9597/assets/633A570BD4E333BFA90A33B18179B5D0.png" width="797.00" height="713.00" transform="matrix(0.64, 0.00, -0.00, -0.61, 90.0, 462.0)"></image></g></svg>