<?xml version="1.0" encoding="UTF-8" standalone="no"?><svg xmlns="http://www.w3.org/2000/svg" xmlns:xlink="http://www.w3.org/1999/xlink" clip-rule="evenodd" stroke-miterlimit="10" viewBox="0 0 720 540"><desc>SVG generated by Keynote</desc><defs></defs><g transform="matrix(1.00, 0.00, -0.00, -1.00, 0.0, 540.0)"><g><clipPath id="clip0x618001aa9ea0"><path d="M 0.0 540.0 L 720.0 540.0 L 720.0 0.0 L 0.0 0.0 Z M 0.0 540.0 "></path></clipPath><g clip-path="url(#clip0x618001aa9ea0)"><image xlink:href="../../6C8CA873-4094-4AAB-84FA-98B434A53252/assets/FB9F438063C152C41BBF80E1AC3A0F64.jpeg" width="1500.00" height="1125.00" transform="matrix(0.48, 0.00, -0.00, -0.48, 0.0, 540.0)"></image></g></g><image xlink:href="../../6C8CA873-4094-4AAB-84FA-98B434A53252/assets/4269B1647B48C2333CA1F43A723777F3.png" width="256.00" height="311.00" transform="matrix(0.19, 0.00, -0.00, -0.19, 666.0, 540.0)"></image><text xml:space="preserve" font-family="Arial-BoldMT,Arial" font-weight="bold" font-size="28.0" fill="#0B5D73" transform="matrix(1.00, 0.00, -0.00, -1.00, 15.6, 473.2)">G</text><text xml:space="preserve" font-family="Arial-BoldMT,Arial" font-weight="bold" font-size="28.0" fill="#0B5D73" transform="matrix(1.00, 0.00, -0.00, -1.00, 37.4, 473.2)">r</text><text xml:space="preserve" font-family="Arial-BoldMT,Arial" font-weight="bold" font-size="28.0" fill="#0B5D73" transform="matrix(1.00, 0.00, -0.00, -1.00, 48.3, 473.2)">e</text><text xml:space="preserve" font-family="Arial-BoldMT,Arial" font-weight="bold" font-size="28.0" fill="#0B5D73" transform="matrix(1.00, 0.00, -0.00, -1.00, 63.9, 473.2)">e</text><text xml:space="preserve" font-family="Arial-BoldMT,Arial" font-weight="bold" font-size="28.0" fill="#0B5D73" transform="matrix(1.00, 0.00, -0.00, -1.00, 79.4, 473.2)">n</text><text xml:space="preserve" font-family="Arial-BoldMT,Arial" font-weight="bold" font-size="28.0" fill="#0B5D73" transform="matrix(1.00, 0.00, -0.00, -1.00, 96.5, 473.2)"> </text><text xml:space="preserve" font-family="Arial-BoldMT,Arial" font-weight="bold" font-size="28.0" fill="#0B5D73" transform="matrix(1.00, 0.00, -0.00, -1.00, 104.3, 473.2)">B</text><text xml:space="preserve" font-family="Arial-BoldMT,Arial" font-weight="bold" font-size="28.0" fill="#0B5D73" transform="matrix(1.00, 0.00, -0.00, -1.00, 124.5, 473.2)">u</text><text xml:space="preserve" font-family="Arial-BoldMT,Arial" font-weight="bold" font-size="28.0" fill="#0B5D73" transform="matrix(1.00, 0.00, -0.00, -1.00, 141.6, 473.2)">t</text><text xml:space="preserve" font-family="Arial-BoldMT,Arial" font-weight="bold" font-size="28.0" fill="#0B5D73" transform="matrix(1.00, 0.00, -0.00, -1.00, 151.0, 473.2)">t</text><text xml:space="preserve" font-family="Arial-BoldMT,Arial" font-weight="bold" font-size="28.0" fill="#0B5D73" transform="matrix(1.00, 0.00, -0.00, -1.00, 160.3, 473.2)">o</text><text xml:space="preserve" font-family="Arial-BoldMT,Arial" font-weight="bold" font-size="28.0" fill="#0B5D73" transform="matrix(1.00, 0.00, -0.00, -1.00, 177.4, 473.2)">n</text><text xml:space="preserve" font-family="Arial-BoldMT,Arial" font-weight="bold" font-size="28.0" fill="#0B5D73" transform="matrix(1.00, 0.00, -0.00, -1.00, 194.5, 473.2)"> </text><text xml:space="preserve" font-family="Arial-BoldMT,Arial" font-weight="bold" font-size="28.0" fill="#0B5D73" transform="matrix(1.00, 0.00, -0.00, -1.00, 202.2, 473.2)">C</text><text xml:space="preserve" font-family="Arial-BoldMT,Arial" font-weight="bold" font-size="28.0" fill="#0B5D73" transform="matrix(1.00, 0.00, -0.00, -1.00, 222.5, 473.2)">o</text><text xml:space="preserve" font-family="Arial-BoldMT,Arial" font-weight="bold" font-size="28.0" fill="#0B5D73" transform="matrix(1.00, 0.00, -0.00, -1.00, 239.6, 473.2)">n</text><text xml:space="preserve" font-family="Arial-BoldMT,Arial" font-weight="bold" font-size="28.0" fill="#0B5D73" transform="matrix(1.00, 0.00, -0.00, -1.00, 256.7, 473.2)">n</text><text xml:space="preserve" font-family="Arial-BoldMT,Arial" font-weight="bold" font-size="28.0" fill="#0B5D73" transform="matrix(1.00, 0.00, -0.00, -1.00, 273.8, 473.2)">e</text><text xml:space="preserve" font-family="Arial-BoldMT,Arial" font-weight="bold" font-size="28.0" fill="#0B5D73" transform="matrix(1.00, 0.00, -0.00, -1.00, 289.3, 473.2)">c</text><text xml:space="preserve" font-family="Arial-BoldMT,Arial" font-weight="bold" font-size="28.0" fill="#0B5D73" transform="matrix(1.00, 0.00, -0.00, -1.00, 304.9, 473.2)">t</text><text xml:space="preserve" font-family="Arial-BoldMT,Arial" font-weight="bold" font-size="28.0" fill="#0B5D73" transform="matrix(1.00, 0.00, -0.00, -1.00, 314.2, 473.2)"> </text><text xml:space="preserve" font-family="Arial-BoldMT,Arial" font-weight="bold" font-size="28.0" fill="#0B5D73" transform="matrix(1.00, 0.00, -0.00, -1.00, 322.0, 473.2)">M</text><text xml:space="preserve" font-family="Arial-BoldMT,Arial" font-weight="bold" font-size="28.0" fill="#0B5D73" transform="matrix(1.00, 0.00, -0.00, -1.00, 345.3, 473.2)">y</text><text xml:space="preserve" font-family="Arial-BoldMT,Arial" font-weight="bold" font-size="28.0" fill="#0B5D73" transform="matrix(1.00, 0.00, -0.00, -1.00, 360.9, 473.2)"> </text><text xml:space="preserve" font-family="Arial-BoldMT,Arial" font-weight="bold" font-size="28.0" fill="#0B5D73" transform="matrix(1.00, 0.00, -0.00, -1.00, 368.7, 473.2)">D</text><text xml:space="preserve" font-family="Arial-BoldMT,Arial" font-weight="bold" font-size="28.0" fill="#0B5D73" transform="matrix(1.00, 0.00, -0.00, -1.00, 388.9, 473.2)">a</text><text xml:space="preserve" font-family="Arial-BoldMT,Arial" font-weight="bold" font-size="28.0" fill="#0B5D73" transform="matrix(1.00, 0.00, -0.00, -1.00, 404.5, 473.2)">t</text><text xml:space="preserve" font-family="Arial-BoldMT,Arial" font-weight="bold" font-size="28.0" fill="#0B5D73" transform="matrix(1.00, 0.00, -0.00, -1.00, 413.8, 473.2)">a</text><text xml:space="preserve" font-family="Arial-BoldMT,Arial" font-weight="bold" font-size="28.0" fill="#0B5D73" transform="matrix(1.00, 0.00, -0.00, -1.00, 429.4, 473.2)"> </text><text xml:space="preserve" font-family="Arial-BoldMT,Arial" font-weight="bold" font-size="28.0" fill="#0B5D73" transform="matrix(1.00, 0.00, -0.00, -1.00, 437.2, 473.2)">R</text><text xml:space="preserve" font-family="Arial-BoldMT,Arial" font-weight="bold" font-size="28.0" fill="#0B5D73" transform="matrix(1.00, 0.00, -0.00, -1.00, 457.4, 473.2)">e</text><text xml:space="preserve" font-family="Arial-BoldMT,Arial" font-weight="bold" font-size="28.0" fill="#0B5D73" transform="matrix(1.00, 0.00, -0.00, -1.00, 473.0, 473.2)">g</text><text xml:space="preserve" font-family="Arial-BoldMT,Arial" font-weight="bold" font-size="28.0" fill="#0B5D73" transform="matrix(1.00, 0.00, -0.00, -1.00, 490.1, 473.2)">i</text><text xml:space="preserve" font-family="Arial-BoldMT,Arial" font-weight="bold" font-size="28.0" fill="#0B5D73" transform="matrix(1.00, 0.00, -0.00, -1.00, 497.9, 473.2)">s</text><text xml:space="preserve" font-family="Arial-BoldMT,Arial" font-weight="bold" font-size="28.0" fill="#0B5D73" transform="matrix(1.00, 0.00, -0.00, -1.00, 513.4, 473.2)">t</text><text xml:space="preserve" font-family="Arial-BoldMT,Arial" font-weight="bold" font-size="28.0" fill="#0B5D73" transform="matrix(1.00, 0.00, -0.00, -1.00, 522.8, 473.2)">r</text><text xml:space="preserve" font-family="Arial-BoldMT,Arial" font-weight="bold" font-size="28.0" fill="#0B5D73" transform="matrix(1.00, 0.00, -0.00, -1.00, 533.7, 473.2)">a</text><text xml:space="preserve" font-family="Arial-BoldMT,Arial" font-weight="bold" font-size="28.0" fill="#0B5D73" transform="matrix(1.00, 0.00, -0.00, -1.00, 549.2, 473.2)">t</text><text xml:space="preserve" font-family="Arial-BoldMT,Arial" font-weight="bold" font-size="28.0" fill="#0B5D73" transform="matrix(1.00, 0.00, -0.00, -1.00, 558.6, 473.2)">i</text><text xml:space="preserve" font-family="Arial-BoldMT,Arial" font-weight="bold" font-size="28.0" fill="#0B5D73" transform="matrix(1.00, 0.00, -0.00, -1.00, 566.3, 473.2)">o</text><text xml:space="preserve" font-family="Arial-BoldMT,Arial" font-weight="bold" font-size="28.0" fill="#0B5D73" transform="matrix(1.00, 0.00, -0.00, -1.00, 583.4, 473.2)">n</text><g><clipPath id="clip0x6080010b1d60"><path d="M 41.0 59.0 L 685.0 59.0 L 685.0 451.0 L 41.0 451.0 Z M 41.0 59.0 "></path></clipPath><g clip-path="url(#clip0x6080010b1d60)"><path d="M 42.0 450.0 L 684.0 450.0 L 684.0 60.0 L 42.0 60.0 Z M 42.0 450.0 " fill="#FFFFFF"></path></g></g><g><clipPath id="clip0x6080010b1fa0"><path d="M 42.0 60.0 L 684.0 60.0 L 684.0 450.0 L 42.0 450.0 Z M 42.0 60.0 "></path></clipPath><g clip-path="url(#clip0x6080010b1fa0)"><image xlink:href="6128026FCFA88077E2F409F7D1DB49E1.png" width="1148.00" height="696.00" transform="matrix(0.56, 0.00, -0.00, -0.56, 42.0, 450.0)"></image></g></g><text xml:space="preserve" font-family="ArialMT,Arial" font-size="16.0" fill="#0000FF" transform="matrix(1.00, 0.00, -0.00, -1.00, 45.6, 36.3)">R</text><text xml:space="preserve" font-family="ArialMT,Arial" font-size="16.0" fill="#0000FF" transform="matrix(1.00, 0.00, -0.00, -1.00, 57.2, 36.3)">e</text><text xml:space="preserve" font-family="ArialMT,Arial" font-size="16.0" fill="#0000FF" transform="matrix(1.00, 0.00, -0.00, -1.00, 66.1, 36.3)">f</text><text xml:space="preserve" font-family="ArialMT,Arial" font-size="16.0" fill="#0000FF" transform="matrix(1.00, 0.00, -0.00, -1.00, 70.5, 36.3)">:</text><text xml:space="preserve" font-family="ArialMT,Arial" font-size="16.0" fill="#0000FF" transform="matrix(1.00, 0.00, -0.00, -1.00, 74.9, 36.3)"> </text><text xml:space="preserve" font-family="ArialMT,Arial" font-size="16.0" fill="#0000FF" transform="matrix(1.00, 0.00, -0.00, -1.00, 78.5, 36.3)">A</text><text xml:space="preserve" font-family="ArialMT,Arial" font-size="16.0" fill="#0000FF" transform="matrix(1.00, 0.00, -0.00, -1.00, 89.2, 36.3)">u</text><text xml:space="preserve" font-family="ArialMT,Arial" font-size="16.0" fill="#0000FF" transform="matrix(1.00, 0.00, -0.00, -1.00, 98.1, 36.3)">t</text><text xml:space="preserve" font-family="ArialMT,Arial" font-size="16.0" fill="#0000FF" transform="matrix(1.00, 0.00, -0.00, -1.00, 102.5, 36.3)">h</text><text xml:space="preserve" font-family="ArialMT,Arial" font-size="16.0" fill="#0000FF" transform="matrix(1.00, 0.00, -0.00, -1.00, 111.4, 36.3)">o</text><text xml:space="preserve" font-family="ArialMT,Arial" font-size="16.0" fill="#0000FF" transform="matrix(1.00, 0.00, -0.00, -1.00, 120.3, 36.3)">r</text><text xml:space="preserve" font-family="ArialMT,Arial" font-size="16.0" fill="#0000FF" transform="matrix(1.00, 0.00, -0.00, -1.00, 125.7, 36.3)">i</text><text xml:space="preserve" font-family="ArialMT,Arial" font-size="16.0" fill="#0000FF" transform="matrix(1.00, 0.00, -0.00, -1.00, 129.2, 36.3)">z</text><text xml:space="preserve" font-family="ArialMT,Arial" font-size="16.0" fill="#0000FF" transform="matrix(1.00, 0.00, -0.00, -1.00, 137.2, 36.3)">a</text><text xml:space="preserve" font-family="ArialMT,Arial" font-size="16.0" fill="#0000FF" transform="matrix(1.00, 0.00, -0.00, -1.00, 146.1, 36.3)">t</text><text xml:space="preserve" font-family="ArialMT,Arial" font-size="16.0" fill="#0000FF" transform="matrix(1.00, 0.00, -0.00, -1.00, 150.6, 36.3)">i</text><text xml:space="preserve" font-family="ArialMT,Arial" font-size="16.0" fill="#0000FF" transform="matrix(1.00, 0.00, -0.00, -1.00, 154.1, 36.3)">o</text><text xml:space="preserve" font-family="ArialMT,Arial" font-size="16.0" fill="#0000FF" transform="matrix(1.00, 0.00, -0.00, -1.00, 163.0, 36.3)">n</text><text xml:space="preserve" font-family="ArialMT,Arial" font-size="16.0" fill="#0000FF" transform="matrix(1.00, 0.00, -0.00, -1.00, 171.9, 36.3)">.</text><text xml:space="preserve" font-family="ArialMT,Arial" font-size="16.0" fill="#0000FF" transform="matrix(1.00, 0.00, -0.00, -1.00, 176.4, 36.3)">d</text><text xml:space="preserve" font-family="ArialMT,Arial" font-size="16.0" fill="#0000FF" transform="matrix(1.00, 0.00, -0.00, -1.00, 185.3, 36.3)">o</text><text xml:space="preserve" font-family="ArialMT,Arial" font-size="16.0" fill="#0000FF" transform="matrix(1.00, 0.00, -0.00, -1.00, 194.2, 36.3)">c</text><text xml:space="preserve" font-family="ArialMT,Arial" font-size="16.0" fill="#0000FF" transform="matrix(1.00, 0.00, -0.00, -1.00, 202.2, 36.3)">x</text><text xml:space="preserve" font-family="ArialMT,Arial" font-size="16.0" fill="#0000FF" transform="matrix(1.00, 0.00, -0.00, -1.00, 210.2, 36.3)"> </text><text xml:space="preserve" font-family="ArialMT,Arial" font-size="16.0" fill="#0000FF" transform="matrix(1.00, 0.00, -0.00, -1.00, 214.6, 36.3)">S</text><text xml:space="preserve" font-family="ArialMT,Arial" font-size="16.0" fill="#0000FF" transform="matrix(1.00, 0.00, -0.00, -1.00, 225.3, 36.3)">e</text><text xml:space="preserve" font-family="ArialMT,Arial" font-size="16.0" fill="#0000FF" transform="matrix(1.00, 0.00, -0.00, -1.00, 234.2, 36.3)">c</text><text xml:space="preserve" font-family="ArialMT,Arial" font-size="16.0" fill="#0000FF" transform="matrix(1.00, 0.00, -0.00, -1.00, 242.2, 36.3)">t</text><text xml:space="preserve" font-family="ArialMT,Arial" font-size="16.0" fill="#0000FF" transform="matrix(1.00, 0.00, -0.00, -1.00, 246.6, 36.3)">i</text><text xml:space="preserve" font-family="ArialMT,Arial" font-size="16.0" fill="#0000FF" transform="matrix(1.00, 0.00, -0.00, -1.00, 250.2, 36.3)">o</text><text xml:space="preserve" font-family="ArialMT,Arial" font-size="16.0" fill="#0000FF" transform="matrix(1.00, 0.00, -0.00, -1.00, 259.1, 36.3)">n</text><text xml:space="preserve" font-family="ArialMT,Arial" font-size="16.0" fill="#0000FF" transform="matrix(1.00, 0.00, -0.00, -1.00, 268.0, 36.3)"> </text><text xml:space="preserve" font-family="ArialMT,Arial" font-size="16.0" fill="#0000FF" transform="matrix(1.00, 0.00, -0.00, -1.00, 272.4, 36.3)">2</text><text xml:space="preserve" font-family="ArialMT,Arial" font-size="16.0" fill="#0000FF" transform="matrix(1.00, 0.00, -0.00, -1.00, 281.3, 36.3)">.</text><text xml:space="preserve" font-family="ArialMT,Arial" font-size="16.0" fill="#0000FF" transform="matrix(1.00, 0.00, -0.00, -1.00, 285.8, 36.3)">2</text><g><clipPath id="clip0x6000026a3600"><path d="M 44.6 33.0 L 294.6 33.0 L 294.6 36.2 L 44.6 36.2 Z M 44.6 33.0 "></path></clipPath><g clip-path="url(#clip0x6000026a3600)"><path d="M 3.6 19.4 L 252.6 19.4 " fill="none" stroke="#0000FF" stroke-width="1.17" transform="matrix(1.00, 0.00, 0.00, -1.00, 42.0, 54.0)"></path></g></g></g></svg>